<?xml version="1.0" encoding="utf-8" standalone="no"?>
<!DOCTYPE svg PUBLIC "-//W3C//DTD SVG 1.1//EN"
  "http://www.w3.org/Graphics/SVG/1.1/DTD/svg11.dtd">
<svg xmlns:xlink="http://www.w3.org/1999/xlink" width="1152pt" height="360pt" viewBox="0 0 1152 360" xmlns="http://www.w3.org/2000/svg" version="1.1">
 <metadata>
  <rdf:RDF xmlns:dc="http://purl.org/dc/elements/1.1/" xmlns:cc="http://creativecommons.org/ns#" xmlns:rdf="http://www.w3.org/1999/02/22-rdf-syntax-ns#">
   <cc:Work>
    <dc:type rdf:resource="http://purl.org/dc/dcmitype/StillImage"/>
    <dc:date>2024-05-28T15:53:27.634819</dc:date>
    <dc:format>image/svg+xml</dc:format>
    <dc:creator>
     <cc:Agent>
      <dc:title>Matplotlib v3.6.2, https://matplotlib.org/</dc:title>
     </cc:Agent>
    </dc:creator>
   </cc:Work>
  </rdf:RDF>
 </metadata>
 <defs>
  <style type="text/css">*{stroke-linejoin: round; stroke-linecap: butt}</style>
 </defs>
 <g id="figure_1">
  <g id="patch_1">
   <path d="M 0 360 
L 1152 360 
L 1152 0 
L 0 0 
z
" style="fill: #ffffff"/>
  </g>
  <g id="axes_1">
   <g id="patch_2">
    <path d="M 50.96 318.04 
L 377.31 318.04 
L 377.31 10.8 
L 50.96 10.8 
z
" style="fill: #ffffff"/>
   </g>
   <g id="matplotlib.axis_1">
    <g id="xtick_1">
     <g id="line2d_1">
      <path d="M 58.919756 318.04 
L 58.919756 10.8 
" clip-path="url(#pbb96891873)" style="fill: none; stroke: #b0b0b0; stroke-width: 0.8; stroke-linecap: square"/>
     </g>
     <g id="line2d_2">
      <defs>
       <path id="m81f7ac7efa" d="M 0 0 
L 0 3.5 
" style="stroke: #000000; stroke-width: 0.8"/>
      </defs>
      <g>
       <use xlink:href="#m81f7ac7efa" x="58.919756" y="318.04" style="stroke: #000000; stroke-width: 0.8"/>
      </g>
     </g>
     <g id="text_1">
      <!-- 41.2 -->
      <g transform="translate(47.786944 332.638438) scale(0.1 -0.1)">
       <defs>
        <path id="DejaVuSans-34" d="M 2419 4116 
L 825 1625 
L 2419 1625 
L 2419 4116 
z
M 2253 4666 
L 3047 4666 
L 3047 1625 
L 3713 1625 
L 3713 1100 
L 3047 1100 
L 3047 0 
L 2419 0 
L 2419 1100 
L 313 1100 
L 313 1709 
L 2253 4666 
z
" transform="scale(0.015625)"/>
        <path id="DejaVuSans-31" d="M 794 531 
L 1825 531 
L 1825 4091 
L 703 3866 
L 703 4441 
L 1819 4666 
L 2450 4666 
L 2450 531 
L 3481 531 
L 3481 0 
L 794 0 
L 794 531 
z
" transform="scale(0.015625)"/>
        <path id="DejaVuSans-2e" d="M 684 794 
L 1344 794 
L 1344 0 
L 684 0 
L 684 794 
z
" transform="scale(0.015625)"/>
        <path id="DejaVuSans-32" d="M 1228 531 
L 3431 531 
L 3431 0 
L 469 0 
L 469 531 
Q 828 903 1448 1529 
Q 2069 2156 2228 2338 
Q 2531 2678 2651 2914 
Q 2772 3150 2772 3378 
Q 2772 3750 2511 3984 
Q 2250 4219 1831 4219 
Q 1534 4219 1204 4116 
Q 875 4013 500 3803 
L 500 4441 
Q 881 4594 1212 4672 
Q 1544 4750 1819 4750 
Q 2544 4750 2975 4387 
Q 3406 4025 3406 3419 
Q 3406 3131 3298 2873 
Q 3191 2616 2906 2266 
Q 2828 2175 2409 1742 
Q 1991 1309 1228 531 
z
" transform="scale(0.015625)"/>
       </defs>
       <use xlink:href="#DejaVuSans-34"/>
       <use xlink:href="#DejaVuSans-31" x="63.623047"/>
       <use xlink:href="#DejaVuSans-2e" x="127.246094"/>
       <use xlink:href="#DejaVuSans-32" x="159.033203"/>
      </g>
     </g>
    </g>
    <g id="xtick_2">
     <g id="line2d_3">
      <path d="M 98.718537 318.04 
L 98.718537 10.8 
" clip-path="url(#pbb96891873)" style="fill: none; stroke: #b0b0b0; stroke-width: 0.8; stroke-linecap: square"/>
     </g>
     <g id="line2d_4">
      <g>
       <use xlink:href="#m81f7ac7efa" x="98.718537" y="318.04" style="stroke: #000000; stroke-width: 0.8"/>
      </g>
     </g>
     <g id="text_2">
      <!-- 41.3 -->
      <g transform="translate(87.585724 332.638438) scale(0.1 -0.1)">
       <defs>
        <path id="DejaVuSans-33" d="M 2597 2516 
Q 3050 2419 3304 2112 
Q 3559 1806 3559 1356 
Q 3559 666 3084 287 
Q 2609 -91 1734 -91 
Q 1441 -91 1130 -33 
Q 819 25 488 141 
L 488 750 
Q 750 597 1062 519 
Q 1375 441 1716 441 
Q 2309 441 2620 675 
Q 2931 909 2931 1356 
Q 2931 1769 2642 2001 
Q 2353 2234 1838 2234 
L 1294 2234 
L 1294 2753 
L 1863 2753 
Q 2328 2753 2575 2939 
Q 2822 3125 2822 3475 
Q 2822 3834 2567 4026 
Q 2313 4219 1838 4219 
Q 1578 4219 1281 4162 
Q 984 4106 628 3988 
L 628 4550 
Q 988 4650 1302 4700 
Q 1616 4750 1894 4750 
Q 2613 4750 3031 4423 
Q 3450 4097 3450 3541 
Q 3450 3153 3228 2886 
Q 3006 2619 2597 2516 
z
" transform="scale(0.015625)"/>
       </defs>
       <use xlink:href="#DejaVuSans-34"/>
       <use xlink:href="#DejaVuSans-31" x="63.623047"/>
       <use xlink:href="#DejaVuSans-2e" x="127.246094"/>
       <use xlink:href="#DejaVuSans-33" x="159.033203"/>
      </g>
     </g>
    </g>
    <g id="xtick_3">
     <g id="line2d_5">
      <path d="M 138.517317 318.04 
L 138.517317 10.8 
" clip-path="url(#pbb96891873)" style="fill: none; stroke: #b0b0b0; stroke-width: 0.8; stroke-linecap: square"/>
     </g>
     <g id="line2d_6">
      <g>
       <use xlink:href="#m81f7ac7efa" x="138.517317" y="318.04" style="stroke: #000000; stroke-width: 0.8"/>
      </g>
     </g>
     <g id="text_3">
      <!-- 41.4 -->
      <g transform="translate(127.384505 332.638438) scale(0.1 -0.1)">
       <use xlink:href="#DejaVuSans-34"/>
       <use xlink:href="#DejaVuSans-31" x="63.623047"/>
       <use xlink:href="#DejaVuSans-2e" x="127.246094"/>
       <use xlink:href="#DejaVuSans-34" x="159.033203"/>
      </g>
     </g>
    </g>
    <g id="xtick_4">
     <g id="line2d_7">
      <path d="M 178.316098 318.04 
L 178.316098 10.8 
" clip-path="url(#pbb96891873)" style="fill: none; stroke: #b0b0b0; stroke-width: 0.8; stroke-linecap: square"/>
     </g>
     <g id="line2d_8">
      <g>
       <use xlink:href="#m81f7ac7efa" x="178.316098" y="318.04" style="stroke: #000000; stroke-width: 0.8"/>
      </g>
     </g>
     <g id="text_4">
      <!-- 41.5 -->
      <g transform="translate(167.183285 332.638438) scale(0.1 -0.1)">
       <defs>
        <path id="DejaVuSans-35" d="M 691 4666 
L 3169 4666 
L 3169 4134 
L 1269 4134 
L 1269 2991 
Q 1406 3038 1543 3061 
Q 1681 3084 1819 3084 
Q 2600 3084 3056 2656 
Q 3513 2228 3513 1497 
Q 3513 744 3044 326 
Q 2575 -91 1722 -91 
Q 1428 -91 1123 -41 
Q 819 9 494 109 
L 494 744 
Q 775 591 1075 516 
Q 1375 441 1709 441 
Q 2250 441 2565 725 
Q 2881 1009 2881 1497 
Q 2881 1984 2565 2268 
Q 2250 2553 1709 2553 
Q 1456 2553 1204 2497 
Q 953 2441 691 2322 
L 691 4666 
z
" transform="scale(0.015625)"/>
       </defs>
       <use xlink:href="#DejaVuSans-34"/>
       <use xlink:href="#DejaVuSans-31" x="63.623047"/>
       <use xlink:href="#DejaVuSans-2e" x="127.246094"/>
       <use xlink:href="#DejaVuSans-35" x="159.033203"/>
      </g>
     </g>
    </g>
    <g id="xtick_5">
     <g id="line2d_9">
      <path d="M 218.114878 318.04 
L 218.114878 10.8 
" clip-path="url(#pbb96891873)" style="fill: none; stroke: #b0b0b0; stroke-width: 0.8; stroke-linecap: square"/>
     </g>
     <g id="line2d_10">
      <g>
       <use xlink:href="#m81f7ac7efa" x="218.114878" y="318.04" style="stroke: #000000; stroke-width: 0.8"/>
      </g>
     </g>
     <g id="text_5">
      <!-- 41.6 -->
      <g transform="translate(206.982066 332.638438) scale(0.1 -0.1)">
       <defs>
        <path id="DejaVuSans-36" d="M 2113 2584 
Q 1688 2584 1439 2293 
Q 1191 2003 1191 1497 
Q 1191 994 1439 701 
Q 1688 409 2113 409 
Q 2538 409 2786 701 
Q 3034 994 3034 1497 
Q 3034 2003 2786 2293 
Q 2538 2584 2113 2584 
z
M 3366 4563 
L 3366 3988 
Q 3128 4100 2886 4159 
Q 2644 4219 2406 4219 
Q 1781 4219 1451 3797 
Q 1122 3375 1075 2522 
Q 1259 2794 1537 2939 
Q 1816 3084 2150 3084 
Q 2853 3084 3261 2657 
Q 3669 2231 3669 1497 
Q 3669 778 3244 343 
Q 2819 -91 2113 -91 
Q 1303 -91 875 529 
Q 447 1150 447 2328 
Q 447 3434 972 4092 
Q 1497 4750 2381 4750 
Q 2619 4750 2861 4703 
Q 3103 4656 3366 4563 
z
" transform="scale(0.015625)"/>
       </defs>
       <use xlink:href="#DejaVuSans-34"/>
       <use xlink:href="#DejaVuSans-31" x="63.623047"/>
       <use xlink:href="#DejaVuSans-2e" x="127.246094"/>
       <use xlink:href="#DejaVuSans-36" x="159.033203"/>
      </g>
     </g>
    </g>
    <g id="xtick_6">
     <g id="line2d_11">
      <path d="M 257.913659 318.04 
L 257.913659 10.8 
" clip-path="url(#pbb96891873)" style="fill: none; stroke: #b0b0b0; stroke-width: 0.8; stroke-linecap: square"/>
     </g>
     <g id="line2d_12">
      <g>
       <use xlink:href="#m81f7ac7efa" x="257.913659" y="318.04" style="stroke: #000000; stroke-width: 0.8"/>
      </g>
     </g>
     <g id="text_6">
      <!-- 41.7 -->
      <g transform="translate(246.780846 332.638438) scale(0.1 -0.1)">
       <defs>
        <path id="DejaVuSans-37" d="M 525 4666 
L 3525 4666 
L 3525 4397 
L 1831 0 
L 1172 0 
L 2766 4134 
L 525 4134 
L 525 4666 
z
" transform="scale(0.015625)"/>
       </defs>
       <use xlink:href="#DejaVuSans-34"/>
       <use xlink:href="#DejaVuSans-31" x="63.623047"/>
       <use xlink:href="#DejaVuSans-2e" x="127.246094"/>
       <use xlink:href="#DejaVuSans-37" x="159.033203"/>
      </g>
     </g>
    </g>
    <g id="xtick_7">
     <g id="line2d_13">
      <path d="M 297.712439 318.04 
L 297.712439 10.8 
" clip-path="url(#pbb96891873)" style="fill: none; stroke: #b0b0b0; stroke-width: 0.8; stroke-linecap: square"/>
     </g>
     <g id="line2d_14">
      <g>
       <use xlink:href="#m81f7ac7efa" x="297.712439" y="318.04" style="stroke: #000000; stroke-width: 0.8"/>
      </g>
     </g>
     <g id="text_7">
      <!-- 41.8 -->
      <g transform="translate(286.579627 332.638438) scale(0.1 -0.1)">
       <defs>
        <path id="DejaVuSans-38" d="M 2034 2216 
Q 1584 2216 1326 1975 
Q 1069 1734 1069 1313 
Q 1069 891 1326 650 
Q 1584 409 2034 409 
Q 2484 409 2743 651 
Q 3003 894 3003 1313 
Q 3003 1734 2745 1975 
Q 2488 2216 2034 2216 
z
M 1403 2484 
Q 997 2584 770 2862 
Q 544 3141 544 3541 
Q 544 4100 942 4425 
Q 1341 4750 2034 4750 
Q 2731 4750 3128 4425 
Q 3525 4100 3525 3541 
Q 3525 3141 3298 2862 
Q 3072 2584 2669 2484 
Q 3125 2378 3379 2068 
Q 3634 1759 3634 1313 
Q 3634 634 3220 271 
Q 2806 -91 2034 -91 
Q 1263 -91 848 271 
Q 434 634 434 1313 
Q 434 1759 690 2068 
Q 947 2378 1403 2484 
z
M 1172 3481 
Q 1172 3119 1398 2916 
Q 1625 2713 2034 2713 
Q 2441 2713 2670 2916 
Q 2900 3119 2900 3481 
Q 2900 3844 2670 4047 
Q 2441 4250 2034 4250 
Q 1625 4250 1398 4047 
Q 1172 3844 1172 3481 
z
" transform="scale(0.015625)"/>
       </defs>
       <use xlink:href="#DejaVuSans-34"/>
       <use xlink:href="#DejaVuSans-31" x="63.623047"/>
       <use xlink:href="#DejaVuSans-2e" x="127.246094"/>
       <use xlink:href="#DejaVuSans-38" x="159.033203"/>
      </g>
     </g>
    </g>
    <g id="xtick_8">
     <g id="line2d_15">
      <path d="M 337.51122 318.04 
L 337.51122 10.8 
" clip-path="url(#pbb96891873)" style="fill: none; stroke: #b0b0b0; stroke-width: 0.8; stroke-linecap: square"/>
     </g>
     <g id="line2d_16">
      <g>
       <use xlink:href="#m81f7ac7efa" x="337.51122" y="318.04" style="stroke: #000000; stroke-width: 0.8"/>
      </g>
     </g>
     <g id="text_8">
      <!-- 41.9 -->
      <g transform="translate(326.378407 332.638438) scale(0.1 -0.1)">
       <defs>
        <path id="DejaVuSans-39" d="M 703 97 
L 703 672 
Q 941 559 1184 500 
Q 1428 441 1663 441 
Q 2288 441 2617 861 
Q 2947 1281 2994 2138 
Q 2813 1869 2534 1725 
Q 2256 1581 1919 1581 
Q 1219 1581 811 2004 
Q 403 2428 403 3163 
Q 403 3881 828 4315 
Q 1253 4750 1959 4750 
Q 2769 4750 3195 4129 
Q 3622 3509 3622 2328 
Q 3622 1225 3098 567 
Q 2575 -91 1691 -91 
Q 1453 -91 1209 -44 
Q 966 3 703 97 
z
M 1959 2075 
Q 2384 2075 2632 2365 
Q 2881 2656 2881 3163 
Q 2881 3666 2632 3958 
Q 2384 4250 1959 4250 
Q 1534 4250 1286 3958 
Q 1038 3666 1038 3163 
Q 1038 2656 1286 2365 
Q 1534 2075 1959 2075 
z
" transform="scale(0.015625)"/>
       </defs>
       <use xlink:href="#DejaVuSans-34"/>
       <use xlink:href="#DejaVuSans-31" x="63.623047"/>
       <use xlink:href="#DejaVuSans-2e" x="127.246094"/>
       <use xlink:href="#DejaVuSans-39" x="159.033203"/>
      </g>
     </g>
    </g>
    <g id="xtick_9">
     <g id="line2d_17">
      <path d="M 377.31 318.04 
L 377.31 10.8 
" clip-path="url(#pbb96891873)" style="fill: none; stroke: #b0b0b0; stroke-width: 0.8; stroke-linecap: square"/>
     </g>
     <g id="line2d_18">
      <g>
       <use xlink:href="#m81f7ac7efa" x="377.31" y="318.04" style="stroke: #000000; stroke-width: 0.8"/>
      </g>
     </g>
     <g id="text_9">
      <!-- 42.0 -->
      <g transform="translate(366.177188 332.638438) scale(0.1 -0.1)">
       <defs>
        <path id="DejaVuSans-30" d="M 2034 4250 
Q 1547 4250 1301 3770 
Q 1056 3291 1056 2328 
Q 1056 1369 1301 889 
Q 1547 409 2034 409 
Q 2525 409 2770 889 
Q 3016 1369 3016 2328 
Q 3016 3291 2770 3770 
Q 2525 4250 2034 4250 
z
M 2034 4750 
Q 2819 4750 3233 4129 
Q 3647 3509 3647 2328 
Q 3647 1150 3233 529 
Q 2819 -91 2034 -91 
Q 1250 -91 836 529 
Q 422 1150 422 2328 
Q 422 3509 836 4129 
Q 1250 4750 2034 4750 
z
" transform="scale(0.015625)"/>
       </defs>
       <use xlink:href="#DejaVuSans-34"/>
       <use xlink:href="#DejaVuSans-32" x="63.623047"/>
       <use xlink:href="#DejaVuSans-2e" x="127.246094"/>
       <use xlink:href="#DejaVuSans-30" x="159.033203"/>
      </g>
     </g>
    </g>
    <g id="text_10">
     <!-- Time(s) -->
     <g transform="translate(195.395156 346.316563) scale(0.1 -0.1)">
      <defs>
       <path id="DejaVuSans-54" d="M -19 4666 
L 3928 4666 
L 3928 4134 
L 2272 4134 
L 2272 0 
L 1638 0 
L 1638 4134 
L -19 4134 
L -19 4666 
z
" transform="scale(0.015625)"/>
       <path id="DejaVuSans-69" d="M 603 3500 
L 1178 3500 
L 1178 0 
L 603 0 
L 603 3500 
z
M 603 4863 
L 1178 4863 
L 1178 4134 
L 603 4134 
L 603 4863 
z
" transform="scale(0.015625)"/>
       <path id="DejaVuSans-6d" d="M 3328 2828 
Q 3544 3216 3844 3400 
Q 4144 3584 4550 3584 
Q 5097 3584 5394 3201 
Q 5691 2819 5691 2113 
L 5691 0 
L 5113 0 
L 5113 2094 
Q 5113 2597 4934 2840 
Q 4756 3084 4391 3084 
Q 3944 3084 3684 2787 
Q 3425 2491 3425 1978 
L 3425 0 
L 2847 0 
L 2847 2094 
Q 2847 2600 2669 2842 
Q 2491 3084 2119 3084 
Q 1678 3084 1418 2786 
Q 1159 2488 1159 1978 
L 1159 0 
L 581 0 
L 581 3500 
L 1159 3500 
L 1159 2956 
Q 1356 3278 1631 3431 
Q 1906 3584 2284 3584 
Q 2666 3584 2933 3390 
Q 3200 3197 3328 2828 
z
" transform="scale(0.015625)"/>
       <path id="DejaVuSans-65" d="M 3597 1894 
L 3597 1613 
L 953 1613 
Q 991 1019 1311 708 
Q 1631 397 2203 397 
Q 2534 397 2845 478 
Q 3156 559 3463 722 
L 3463 178 
Q 3153 47 2828 -22 
Q 2503 -91 2169 -91 
Q 1331 -91 842 396 
Q 353 884 353 1716 
Q 353 2575 817 3079 
Q 1281 3584 2069 3584 
Q 2775 3584 3186 3129 
Q 3597 2675 3597 1894 
z
M 3022 2063 
Q 3016 2534 2758 2815 
Q 2500 3097 2075 3097 
Q 1594 3097 1305 2825 
Q 1016 2553 972 2059 
L 3022 2063 
z
" transform="scale(0.015625)"/>
       <path id="DejaVuSans-28" d="M 1984 4856 
Q 1566 4138 1362 3434 
Q 1159 2731 1159 2009 
Q 1159 1288 1364 580 
Q 1569 -128 1984 -844 
L 1484 -844 
Q 1016 -109 783 600 
Q 550 1309 550 2009 
Q 550 2706 781 3412 
Q 1013 4119 1484 4856 
L 1984 4856 
z
" transform="scale(0.015625)"/>
       <path id="DejaVuSans-73" d="M 2834 3397 
L 2834 2853 
Q 2591 2978 2328 3040 
Q 2066 3103 1784 3103 
Q 1356 3103 1142 2972 
Q 928 2841 928 2578 
Q 928 2378 1081 2264 
Q 1234 2150 1697 2047 
L 1894 2003 
Q 2506 1872 2764 1633 
Q 3022 1394 3022 966 
Q 3022 478 2636 193 
Q 2250 -91 1575 -91 
Q 1294 -91 989 -36 
Q 684 19 347 128 
L 347 722 
Q 666 556 975 473 
Q 1284 391 1588 391 
Q 1994 391 2212 530 
Q 2431 669 2431 922 
Q 2431 1156 2273 1281 
Q 2116 1406 1581 1522 
L 1381 1569 
Q 847 1681 609 1914 
Q 372 2147 372 2553 
Q 372 3047 722 3315 
Q 1072 3584 1716 3584 
Q 2034 3584 2315 3537 
Q 2597 3491 2834 3397 
z
" transform="scale(0.015625)"/>
       <path id="DejaVuSans-29" d="M 513 4856 
L 1013 4856 
Q 1481 4119 1714 3412 
Q 1947 2706 1947 2009 
Q 1947 1309 1714 600 
Q 1481 -109 1013 -844 
L 513 -844 
Q 928 -128 1133 580 
Q 1338 1288 1338 2009 
Q 1338 2731 1133 3434 
Q 928 4138 513 4856 
z
" transform="scale(0.015625)"/>
      </defs>
      <use xlink:href="#DejaVuSans-54"/>
      <use xlink:href="#DejaVuSans-69" x="57.958984"/>
      <use xlink:href="#DejaVuSans-6d" x="85.742188"/>
      <use xlink:href="#DejaVuSans-65" x="183.154297"/>
      <use xlink:href="#DejaVuSans-28" x="244.677734"/>
      <use xlink:href="#DejaVuSans-73" x="283.691406"/>
      <use xlink:href="#DejaVuSans-29" x="335.791016"/>
     </g>
    </g>
   </g>
   <g id="matplotlib.axis_2">
    <g id="ytick_1">
     <g id="line2d_19">
      <path d="M 50.96 318.04 
L 377.31 318.04 
" clip-path="url(#pbb96891873)" style="fill: none; stroke: #b0b0b0; stroke-width: 0.8; stroke-linecap: square"/>
     </g>
     <g id="line2d_20">
      <defs>
       <path id="m5205320354" d="M 0 0 
L -3.5 0 
" style="stroke: #000000; stroke-width: 0.8"/>
      </defs>
      <g>
       <use xlink:href="#m5205320354" x="50.96" y="318.04" style="stroke: #000000; stroke-width: 0.8"/>
      </g>
     </g>
     <g id="text_11">
      <!-- 40 -->
      <g transform="translate(31.235 321.839219) scale(0.1 -0.1)">
       <use xlink:href="#DejaVuSans-34"/>
       <use xlink:href="#DejaVuSans-30" x="63.623047"/>
      </g>
     </g>
    </g>
    <g id="ytick_2">
     <g id="line2d_21">
      <path d="M 50.96 281.894118 
L 377.31 281.894118 
" clip-path="url(#pbb96891873)" style="fill: none; stroke: #b0b0b0; stroke-width: 0.8; stroke-linecap: square"/>
     </g>
     <g id="line2d_22">
      <g>
       <use xlink:href="#m5205320354" x="50.96" y="281.894118" style="stroke: #000000; stroke-width: 0.8"/>
      </g>
     </g>
     <g id="text_12">
      <!-- 50 -->
      <g transform="translate(31.235 285.693336) scale(0.1 -0.1)">
       <use xlink:href="#DejaVuSans-35"/>
       <use xlink:href="#DejaVuSans-30" x="63.623047"/>
      </g>
     </g>
    </g>
    <g id="ytick_3">
     <g id="line2d_23">
      <path d="M 50.96 245.748235 
L 377.31 245.748235 
" clip-path="url(#pbb96891873)" style="fill: none; stroke: #b0b0b0; stroke-width: 0.8; stroke-linecap: square"/>
     </g>
     <g id="line2d_24">
      <g>
       <use xlink:href="#m5205320354" x="50.96" y="245.748235" style="stroke: #000000; stroke-width: 0.8"/>
      </g>
     </g>
     <g id="text_13">
      <!-- 60 -->
      <g transform="translate(31.235 249.547454) scale(0.1 -0.1)">
       <use xlink:href="#DejaVuSans-36"/>
       <use xlink:href="#DejaVuSans-30" x="63.623047"/>
      </g>
     </g>
    </g>
    <g id="ytick_4">
     <g id="line2d_25">
      <path d="M 50.96 209.602353 
L 377.31 209.602353 
" clip-path="url(#pbb96891873)" style="fill: none; stroke: #b0b0b0; stroke-width: 0.8; stroke-linecap: square"/>
     </g>
     <g id="line2d_26">
      <g>
       <use xlink:href="#m5205320354" x="50.96" y="209.602353" style="stroke: #000000; stroke-width: 0.8"/>
      </g>
     </g>
     <g id="text_14">
      <!-- 70 -->
      <g transform="translate(31.235 213.401572) scale(0.1 -0.1)">
       <use xlink:href="#DejaVuSans-37"/>
       <use xlink:href="#DejaVuSans-30" x="63.623047"/>
      </g>
     </g>
    </g>
    <g id="ytick_5">
     <g id="line2d_27">
      <path d="M 50.96 173.456471 
L 377.31 173.456471 
" clip-path="url(#pbb96891873)" style="fill: none; stroke: #b0b0b0; stroke-width: 0.8; stroke-linecap: square"/>
     </g>
     <g id="line2d_28">
      <g>
       <use xlink:href="#m5205320354" x="50.96" y="173.456471" style="stroke: #000000; stroke-width: 0.8"/>
      </g>
     </g>
     <g id="text_15">
      <!-- 80 -->
      <g transform="translate(31.235 177.255689) scale(0.1 -0.1)">
       <use xlink:href="#DejaVuSans-38"/>
       <use xlink:href="#DejaVuSans-30" x="63.623047"/>
      </g>
     </g>
    </g>
    <g id="ytick_6">
     <g id="line2d_29">
      <path d="M 50.96 137.310588 
L 377.31 137.310588 
" clip-path="url(#pbb96891873)" style="fill: none; stroke: #b0b0b0; stroke-width: 0.8; stroke-linecap: square"/>
     </g>
     <g id="line2d_30">
      <g>
       <use xlink:href="#m5205320354" x="50.96" y="137.310588" style="stroke: #000000; stroke-width: 0.8"/>
      </g>
     </g>
     <g id="text_16">
      <!-- 90 -->
      <g transform="translate(31.235 141.109807) scale(0.1 -0.1)">
       <use xlink:href="#DejaVuSans-39"/>
       <use xlink:href="#DejaVuSans-30" x="63.623047"/>
      </g>
     </g>
    </g>
    <g id="ytick_7">
     <g id="line2d_31">
      <path d="M 50.96 101.164706 
L 377.31 101.164706 
" clip-path="url(#pbb96891873)" style="fill: none; stroke: #b0b0b0; stroke-width: 0.8; stroke-linecap: square"/>
     </g>
     <g id="line2d_32">
      <g>
       <use xlink:href="#m5205320354" x="50.96" y="101.164706" style="stroke: #000000; stroke-width: 0.8"/>
      </g>
     </g>
     <g id="text_17">
      <!-- 100 -->
      <g transform="translate(24.8725 104.963925) scale(0.1 -0.1)">
       <use xlink:href="#DejaVuSans-31"/>
       <use xlink:href="#DejaVuSans-30" x="63.623047"/>
       <use xlink:href="#DejaVuSans-30" x="127.246094"/>
      </g>
     </g>
    </g>
    <g id="ytick_8">
     <g id="line2d_33">
      <path d="M 50.96 65.018824 
L 377.31 65.018824 
" clip-path="url(#pbb96891873)" style="fill: none; stroke: #b0b0b0; stroke-width: 0.8; stroke-linecap: square"/>
     </g>
     <g id="line2d_34">
      <g>
       <use xlink:href="#m5205320354" x="50.96" y="65.018824" style="stroke: #000000; stroke-width: 0.8"/>
      </g>
     </g>
     <g id="text_18">
      <!-- 110 -->
      <g transform="translate(24.8725 68.818042) scale(0.1 -0.1)">
       <use xlink:href="#DejaVuSans-31"/>
       <use xlink:href="#DejaVuSans-31" x="63.623047"/>
       <use xlink:href="#DejaVuSans-30" x="127.246094"/>
      </g>
     </g>
    </g>
    <g id="ytick_9">
     <g id="line2d_35">
      <path d="M 50.96 28.872941 
L 377.31 28.872941 
" clip-path="url(#pbb96891873)" style="fill: none; stroke: #b0b0b0; stroke-width: 0.8; stroke-linecap: square"/>
     </g>
     <g id="line2d_36">
      <g>
       <use xlink:href="#m5205320354" x="50.96" y="28.872941" style="stroke: #000000; stroke-width: 0.8"/>
      </g>
     </g>
     <g id="text_19">
      <!-- 120 -->
      <g transform="translate(24.8725 32.67216) scale(0.1 -0.1)">
       <use xlink:href="#DejaVuSans-31"/>
       <use xlink:href="#DejaVuSans-32" x="63.623047"/>
       <use xlink:href="#DejaVuSans-30" x="127.246094"/>
      </g>
     </g>
    </g>
    <g id="text_20">
     <!-- Volume(ml) -->
     <g transform="translate(18.792812 193.177813) rotate(-90) scale(0.1 -0.1)">
      <defs>
       <path id="DejaVuSans-56" d="M 1831 0 
L 50 4666 
L 709 4666 
L 2188 738 
L 3669 4666 
L 4325 4666 
L 2547 0 
L 1831 0 
z
" transform="scale(0.015625)"/>
       <path id="DejaVuSans-6f" d="M 1959 3097 
Q 1497 3097 1228 2736 
Q 959 2375 959 1747 
Q 959 1119 1226 758 
Q 1494 397 1959 397 
Q 2419 397 2687 759 
Q 2956 1122 2956 1747 
Q 2956 2369 2687 2733 
Q 2419 3097 1959 3097 
z
M 1959 3584 
Q 2709 3584 3137 3096 
Q 3566 2609 3566 1747 
Q 3566 888 3137 398 
Q 2709 -91 1959 -91 
Q 1206 -91 779 398 
Q 353 888 353 1747 
Q 353 2609 779 3096 
Q 1206 3584 1959 3584 
z
" transform="scale(0.015625)"/>
       <path id="DejaVuSans-6c" d="M 603 4863 
L 1178 4863 
L 1178 0 
L 603 0 
L 603 4863 
z
" transform="scale(0.015625)"/>
       <path id="DejaVuSans-75" d="M 544 1381 
L 544 3500 
L 1119 3500 
L 1119 1403 
Q 1119 906 1312 657 
Q 1506 409 1894 409 
Q 2359 409 2629 706 
Q 2900 1003 2900 1516 
L 2900 3500 
L 3475 3500 
L 3475 0 
L 2900 0 
L 2900 538 
Q 2691 219 2414 64 
Q 2138 -91 1772 -91 
Q 1169 -91 856 284 
Q 544 659 544 1381 
z
M 1991 3584 
L 1991 3584 
z
" transform="scale(0.015625)"/>
      </defs>
      <use xlink:href="#DejaVuSans-56"/>
      <use xlink:href="#DejaVuSans-6f" x="60.658203"/>
      <use xlink:href="#DejaVuSans-6c" x="121.839844"/>
      <use xlink:href="#DejaVuSans-75" x="149.623047"/>
      <use xlink:href="#DejaVuSans-6d" x="213.001953"/>
      <use xlink:href="#DejaVuSans-65" x="310.414062"/>
      <use xlink:href="#DejaVuSans-28" x="371.9375"/>
      <use xlink:href="#DejaVuSans-6d" x="410.951172"/>
      <use xlink:href="#DejaVuSans-6c" x="508.363281"/>
      <use xlink:href="#DejaVuSans-29" x="536.146484"/>
     </g>
    </g>
   </g>
   <g id="line2d_37">
    <path d="M 46.980122 299.648542 
L 50.96 299.0268 
L 54.939878 299.023187 
L 58.919756 299.023104 
L 62.899634 298.684819 
L 66.879512 294.818283 
L 70.85939 284.474127 
L 74.839268 268.916993 
L 78.819146 250.854303 
L 82.799024 232.254211 
L 86.778902 214.187848 
L 90.75878 197.190844 
L 94.738659 181.498453 
L 98.718537 167.247089 
L 102.698415 154.510802 
L 106.678293 143.321853 
L 110.658171 133.691792 
L 114.638049 125.628531 
L 118.617927 119.133606 
L 122.597805 114.164003 
L 126.577683 110.52834 
L 130.557561 107.947105 
L 134.537439 106.145563 
L 138.517317 104.899231 
L 142.497195 104.041408 
L 146.477073 103.452868 
L 150.456951 103.051168 
L 154.436829 102.77821 
L 158.416707 102.594304 
L 162.396585 102.471077 
L 166.376463 102.388721 
L 170.356341 102.333836 
L 174.33622 102.297055 
L 178.316098 102.270815 
L 182.295976 102.23345 
L 186.275854 101.989891 
L 190.255732 100.966387 
L 194.23561 98.399186 
L 198.215488 93.779463 
L 202.195366 87.155212 
L 206.175244 79.031031 
L 210.155122 70.108141 
L 214.135 61.076413 
L 218.114878 52.503123 
L 222.094756 45.719862 
L 226.074634 43.10703 
L 230.054512 43.00797 
L 234.03439 43.26155 
L 238.014268 46.685062 
L 241.994146 54.815621 
L 245.974024 66.272295 
L 249.953902 79.819546 
L 253.93378 94.59039 
L 257.913659 109.92962 
L 261.893537 125.329608 
L 265.873415 140.404137 
L 269.853293 154.871296 
L 273.833171 168.538216 
L 277.813049 181.287132 
L 281.792927 193.066052 
L 285.772805 203.866881 
L 289.752683 213.719307 
L 293.732561 222.683006 
L 297.712439 230.82586 
L 301.692317 238.225678 
L 305.672195 244.962917 
L 309.652073 251.116807 
L 313.631951 256.760412 
L 317.611829 261.955992 
L 321.591707 266.755179 
L 325.571585 271.211823 
L 329.551463 275.369127 
L 333.531341 279.265044 
L 337.51122 282.928008 
L 341.491098 286.383206 
L 345.470976 289.651918 
L 349.450854 292.754796 
L 353.430732 295.704816 
L 357.41061 298.519465 
L 361.390488 300.592712 
L 365.370366 299.646549 
L 369.350244 299.02329 
L 373.330122 299.019661 
L 377.31 299.019578 
L 381.289878 298.681402 
" clip-path="url(#pbb96891873)" style="fill: none; stroke: #1f77b4; stroke-width: 1.5; stroke-linecap: square"/>
   </g>
   <g id="line2d_38">
    <path d="M 46.980122 38.708098 
L 50.96 34.164295 
L 54.939878 29.998506 
L 58.919756 26.207634 
L 62.899634 23.105035 
L 66.879512 23.825438 
L 70.85939 31.214486 
L 74.839268 43.902683 
L 78.819146 59.120052 
L 82.799024 74.8761 
L 86.778902 90.100398 
L 90.75878 104.26879 
L 94.738659 117.162412 
L 98.718537 128.661749 
L 102.698415 138.709408 
L 106.678293 147.289093 
L 110.658171 154.40409 
L 114.638049 160.060573 
L 118.617927 164.268318 
L 122.597805 167.08165 
L 126.577683 168.700523 
L 130.557561 169.408489 
L 134.537439 169.479981 
L 138.517317 169.135582 
L 142.497195 168.535703 
L 146.477073 167.79186 
L 150.456951 166.978041 
L 154.436829 166.143692 
L 158.416707 165.319967 
L 162.396585 164.527036 
L 166.376463 163.776921 
L 170.356341 163.079185 
L 174.33622 162.541674 
L 178.316098 162.347703 
L 182.295976 162.514312 
L 186.275854 163.191016 
L 190.255732 164.88834 
L 194.23561 168.293489 
L 198.215488 173.829514 
L 202.195366 181.364801 
L 206.175244 190.325279 
L 210.155122 199.961538 
L 214.135 209.558927 
L 218.114878 218.547911 
L 222.094756 225.614748 
L 226.074634 228.430006 
L 230.054512 228.135466 
L 234.03439 227.068905 
L 238.014268 225.617678 
L 241.994146 223.940595 
L 245.974024 221.980082 
L 249.953902 219.568185 
L 253.93378 216.55352 
L 257.913659 212.858165 
L 261.893537 208.475533 
L 265.873415 203.446424 
L 269.853293 197.837416 
L 273.833171 191.726287 
L 277.813049 185.193912 
L 281.792927 178.319232 
L 285.772805 171.177233 
L 289.752683 163.837561 
L 293.732561 156.362593 
L 297.712439 148.81033 
L 301.692317 141.232425 
L 305.672195 133.674359 
L 309.652073 126.177064 
L 313.631951 118.774669 
L 317.611829 111.494258 
L 321.591707 104.357552 
L 325.571585 97.385969 
L 329.551463 90.59519 
L 333.531341 83.998038 
L 337.51122 77.601922 
L 341.491098 71.412145 
L 345.470976 65.431324 
L 349.450854 59.661731 
L 353.430732 54.100531 
L 357.41061 48.748761 
L 361.390488 43.602999 
L 365.370366 38.711233 
L 369.350244 34.167325 
L 373.330122 30.001449 
L 377.31 26.210499 
L 381.289878 23.107721 
" clip-path="url(#pbb96891873)" style="fill: none; stroke: #ff7f0e; stroke-width: 1.5; stroke-linecap: square"/>
   </g>
   <g id="line2d_39">
    <path d="M 46.980122 281.577263 
L 50.96 282.430515 
L 54.939878 282.753809 
L 58.919756 282.799141 
L 62.899634 282.750199 
L 66.879512 282.273255 
L 70.85939 280.743853 
L 74.839268 277.669921 
L 78.819146 272.856512 
L 82.799024 266.379678 
L 86.778902 258.493774 
L 90.75878 249.54131 
L 94.738659 239.890194 
L 98.718537 229.876426 
L 102.698415 219.788212 
L 106.678293 209.862912 
L 110.658171 200.288235 
L 114.638049 191.211678 
L 118.617927 182.73701 
L 122.597805 174.948841 
L 126.577683 167.91585 
L 130.557561 161.68908 
L 134.537439 156.285078 
L 138.517317 151.674249 
L 142.497195 147.793145 
L 146.477073 144.561239 
L 150.456951 141.893951 
L 154.436829 139.711862 
L 158.416707 137.94422 
L 162.396585 136.528277 
L 166.376463 135.407701 
L 170.356341 134.531772 
L 174.33622 133.851586 
L 178.316098 133.305643 
L 182.295976 132.766404 
L 186.275854 131.913482 
L 190.255732 130.11998 
L 194.23561 126.633635 
L 198.215488 120.902293 
L 202.195366 112.78085 
L 206.175244 102.499088 
L 210.155122 90.531757 
L 214.135 77.469815 
L 218.114878 63.923088 
L 222.094756 50.556763 
L 226.074634 38.831535 
L 230.054512 30.503531 
L 234.03439 27.063154 
L 238.014268 27.261208 
L 241.994146 29.614394 
L 245.974024 35.145251 
L 249.953902 43.92416 
L 253.93378 55.127316 
L 257.913659 67.747203 
L 261.893537 80.992579 
L 265.873415 94.352374 
L 269.853293 107.518985 
L 273.833171 120.314037 
L 277.813049 132.636138 
L 281.792927 144.43098 
L 285.772805 155.667729 
L 289.752683 166.333208 
L 293.732561 176.427649 
L 297.712439 185.956057 
L 301.692317 194.930376 
L 305.672195 203.367834 
L 309.652073 211.289163 
L 313.631951 218.719937 
L 317.611829 225.68749 
L 321.591707 232.217361 
L 325.571585 238.340215 
L 329.551463 244.086368 
L 333.531341 249.48553 
L 337.51122 254.565794 
L 341.491098 259.353945 
L 345.470976 263.873889 
L 349.450854 268.149362 
L 353.430732 272.197662 
L 357.41061 276.039221 
L 361.390488 279.536601 
L 365.370366 281.583815 
L 369.350244 282.436907 
L 373.330122 282.76016 
L 377.31 282.805489 
L 381.289878 282.756526 
" clip-path="url(#pbb96891873)" style="fill: none; stroke: #2ca02c; stroke-width: 1.5; stroke-linecap: square"/>
   </g>
   <g id="line2d_40">
    <path d="M 46.980122 166.607518 
L 50.96 162.498105 
L 54.939878 158.46755 
L 58.919756 154.51148 
L 62.899634 150.679726 
L 66.879512 147.345091 
L 70.85939 145.132389 
L 74.839268 144.531512 
L 78.819146 145.734916 
L 82.799024 148.664057 
L 86.778902 153.062269 
L 90.75878 158.584991 
L 94.738659 164.862589 
L 98.718537 171.55763 
L 102.698415 178.380734 
L 106.678293 185.093588 
L 110.658171 191.507712 
L 114.638049 197.475135 
L 118.617927 202.891232 
L 122.597805 207.671118 
L 126.577683 211.745722 
L 130.557561 215.063674 
L 134.537439 217.608129 
L 138.517317 219.408385 
L 142.497195 220.527564 
L 146.477073 221.045816 
L 150.456951 221.047287 
L 154.436829 220.610915 
L 158.416707 219.806912 
L 162.396585 218.697452 
L 166.376463 217.338257 
L 170.356341 215.779771 
L 174.33622 214.081278 
L 178.316098 212.324185 
L 182.295976 210.638097 
L 186.275854 209.341247 
L 190.255732 209.056097 
L 194.23561 210.528798 
L 198.215488 214.303967 
L 202.195366 220.518363 
L 206.175244 228.933861 
L 210.155122 239.068066 
L 214.135 250.323579 
L 218.114878 262.085663 
L 222.094756 273.685796 
L 226.074634 283.660065 
L 230.054512 290.198885 
L 234.03439 291.816267 
L 238.014268 290.198551 
L 241.994146 288.237908 
L 245.974024 286.123138 
L 249.953902 283.818501 
L 253.93378 281.301665 
L 257.913659 278.562442 
L 261.893537 275.600338 
L 265.873415 272.422388 
L 269.853293 269.041199 
L 273.833171 265.473173 
L 277.813049 261.737075 
L 281.792927 257.852837 
L 285.772805 253.84047 
L 289.752683 249.719442 
L 293.732561 245.507813 
L 297.712439 241.222522 
L 301.692317 236.878857 
L 305.672195 232.490386 
L 309.652073 228.069371 
L 313.631951 223.62615 
L 317.611829 219.169145 
L 321.591707 214.705303 
L 325.571585 210.241773 
L 329.551463 205.784321 
L 333.531341 201.338102 
L 337.51122 196.907089 
L 341.491098 192.494863 
L 345.470976 188.104511 
L 349.450854 183.73904 
L 353.430732 179.40044 
L 357.41061 175.091438 
L 361.390488 170.815561 
L 365.370366 166.609189 
L 369.350244 162.499642 
L 373.330122 158.468965 
L 377.31 154.512775 
L 381.289878 150.680924 
" clip-path="url(#pbb96891873)" style="fill: none; stroke: #d62728; stroke-width: 1.5; stroke-linecap: square"/>
   </g>
   <g id="patch_3">
    <path d="M 50.96 318.04 
L 50.96 10.8 
" style="fill: none; stroke: #000000; stroke-width: 0.8; stroke-linejoin: miter; stroke-linecap: square"/>
   </g>
   <g id="patch_4">
    <path d="M 377.31 318.04 
L 377.31 10.8 
" style="fill: none; stroke: #000000; stroke-width: 0.8; stroke-linejoin: miter; stroke-linecap: square"/>
   </g>
   <g id="patch_5">
    <path d="M 50.96 318.04 
L 377.31 318.04 
" style="fill: none; stroke: #000000; stroke-width: 0.8; stroke-linejoin: miter; stroke-linecap: square"/>
   </g>
   <g id="patch_6">
    <path d="M 50.96 10.8 
L 377.31 10.8 
" style="fill: none; stroke: #000000; stroke-width: 0.8; stroke-linejoin: miter; stroke-linecap: square"/>
   </g>
   <g id="legend_1">
    <g id="patch_7">
     <path d="M 191.440469 195.27625 
L 236.829531 195.27625 
Q 238.829531 195.27625 238.829531 193.27625 
L 238.829531 135.56375 
Q 238.829531 133.56375 236.829531 133.56375 
L 191.440469 133.56375 
Q 189.440469 133.56375 189.440469 135.56375 
L 189.440469 193.27625 
Q 189.440469 195.27625 191.440469 195.27625 
z
" style="fill: #ffffff; opacity: 0.8; stroke: #cccccc; stroke-linejoin: miter"/>
    </g>
    <g id="line2d_41">
     <path d="M 193.440469 141.662188 
L 203.440469 141.662188 
L 213.440469 141.662188 
" style="fill: none; stroke: #1f77b4; stroke-width: 1.5; stroke-linecap: square"/>
    </g>
    <g id="text_21">
     <!-- LV -->
     <g transform="translate(221.440469 145.162188) scale(0.1 -0.1)">
      <defs>
       <path id="DejaVuSans-4c" d="M 628 4666 
L 1259 4666 
L 1259 531 
L 3531 531 
L 3531 0 
L 628 0 
L 628 4666 
z
" transform="scale(0.015625)"/>
      </defs>
      <use xlink:href="#DejaVuSans-4c"/>
      <use xlink:href="#DejaVuSans-56" x="44.712891"/>
     </g>
    </g>
    <g id="line2d_42">
     <path d="M 193.440469 156.340313 
L 203.440469 156.340313 
L 213.440469 156.340313 
" style="fill: none; stroke: #ff7f0e; stroke-width: 1.5; stroke-linecap: square"/>
    </g>
    <g id="text_22">
     <!-- LA -->
     <g transform="translate(221.440469 159.840313) scale(0.1 -0.1)">
      <defs>
       <path id="DejaVuSans-41" d="M 2188 4044 
L 1331 1722 
L 3047 1722 
L 2188 4044 
z
M 1831 4666 
L 2547 4666 
L 4325 0 
L 3669 0 
L 3244 1197 
L 1141 1197 
L 716 0 
L 50 0 
L 1831 4666 
z
" transform="scale(0.015625)"/>
      </defs>
      <use xlink:href="#DejaVuSans-4c"/>
      <use xlink:href="#DejaVuSans-41" x="57.962891"/>
     </g>
    </g>
    <g id="line2d_43">
     <path d="M 193.440469 171.018438 
L 203.440469 171.018438 
L 213.440469 171.018438 
" style="fill: none; stroke: #2ca02c; stroke-width: 1.5; stroke-linecap: square"/>
    </g>
    <g id="text_23">
     <!-- RV -->
     <g transform="translate(221.440469 174.518438) scale(0.1 -0.1)">
      <defs>
       <path id="DejaVuSans-52" d="M 2841 2188 
Q 3044 2119 3236 1894 
Q 3428 1669 3622 1275 
L 4263 0 
L 3584 0 
L 2988 1197 
Q 2756 1666 2539 1819 
Q 2322 1972 1947 1972 
L 1259 1972 
L 1259 0 
L 628 0 
L 628 4666 
L 2053 4666 
Q 2853 4666 3247 4331 
Q 3641 3997 3641 3322 
Q 3641 2881 3436 2590 
Q 3231 2300 2841 2188 
z
M 1259 4147 
L 1259 2491 
L 2053 2491 
Q 2509 2491 2742 2702 
Q 2975 2913 2975 3322 
Q 2975 3731 2742 3939 
Q 2509 4147 2053 4147 
L 1259 4147 
z
" transform="scale(0.015625)"/>
      </defs>
      <use xlink:href="#DejaVuSans-52"/>
      <use xlink:href="#DejaVuSans-56" x="63.982422"/>
     </g>
    </g>
    <g id="line2d_44">
     <path d="M 193.440469 185.696563 
L 203.440469 185.696563 
L 213.440469 185.696563 
" style="fill: none; stroke: #d62728; stroke-width: 1.5; stroke-linecap: square"/>
    </g>
    <g id="text_24">
     <!-- RA -->
     <g transform="translate(221.440469 189.196563) scale(0.1 -0.1)">
      <use xlink:href="#DejaVuSans-52"/>
      <use xlink:href="#DejaVuSans-41" x="65.482422"/>
     </g>
    </g>
   </g>
  </g>
  <g id="axes_2">
   <g id="patch_8">
    <path d="M 432.905 318.04 
L 759.255 318.04 
L 759.255 10.8 
L 432.905 10.8 
z
" style="fill: #ffffff"/>
   </g>
   <g id="matplotlib.axis_3">
    <g id="xtick_10">
     <g id="line2d_45">
      <path d="M 440.864756 318.04 
L 440.864756 10.8 
" clip-path="url(#pd214cf5235)" style="fill: none; stroke: #b0b0b0; stroke-width: 0.8; stroke-linecap: square"/>
     </g>
     <g id="line2d_46">
      <g>
       <use xlink:href="#m81f7ac7efa" x="440.864756" y="318.04" style="stroke: #000000; stroke-width: 0.8"/>
      </g>
     </g>
     <g id="text_25">
      <!-- 41.2 -->
      <g transform="translate(429.731944 332.638438) scale(0.1 -0.1)">
       <use xlink:href="#DejaVuSans-34"/>
       <use xlink:href="#DejaVuSans-31" x="63.623047"/>
       <use xlink:href="#DejaVuSans-2e" x="127.246094"/>
       <use xlink:href="#DejaVuSans-32" x="159.033203"/>
      </g>
     </g>
    </g>
    <g id="xtick_11">
     <g id="line2d_47">
      <path d="M 480.663537 318.04 
L 480.663537 10.8 
" clip-path="url(#pd214cf5235)" style="fill: none; stroke: #b0b0b0; stroke-width: 0.8; stroke-linecap: square"/>
     </g>
     <g id="line2d_48">
      <g>
       <use xlink:href="#m81f7ac7efa" x="480.663537" y="318.04" style="stroke: #000000; stroke-width: 0.8"/>
      </g>
     </g>
     <g id="text_26">
      <!-- 41.3 -->
      <g transform="translate(469.530724 332.638438) scale(0.1 -0.1)">
       <use xlink:href="#DejaVuSans-34"/>
       <use xlink:href="#DejaVuSans-31" x="63.623047"/>
       <use xlink:href="#DejaVuSans-2e" x="127.246094"/>
       <use xlink:href="#DejaVuSans-33" x="159.033203"/>
      </g>
     </g>
    </g>
    <g id="xtick_12">
     <g id="line2d_49">
      <path d="M 520.462317 318.04 
L 520.462317 10.8 
" clip-path="url(#pd214cf5235)" style="fill: none; stroke: #b0b0b0; stroke-width: 0.8; stroke-linecap: square"/>
     </g>
     <g id="line2d_50">
      <g>
       <use xlink:href="#m81f7ac7efa" x="520.462317" y="318.04" style="stroke: #000000; stroke-width: 0.8"/>
      </g>
     </g>
     <g id="text_27">
      <!-- 41.4 -->
      <g transform="translate(509.329505 332.638438) scale(0.1 -0.1)">
       <use xlink:href="#DejaVuSans-34"/>
       <use xlink:href="#DejaVuSans-31" x="63.623047"/>
       <use xlink:href="#DejaVuSans-2e" x="127.246094"/>
       <use xlink:href="#DejaVuSans-34" x="159.033203"/>
      </g>
     </g>
    </g>
    <g id="xtick_13">
     <g id="line2d_51">
      <path d="M 560.261098 318.04 
L 560.261098 10.8 
" clip-path="url(#pd214cf5235)" style="fill: none; stroke: #b0b0b0; stroke-width: 0.8; stroke-linecap: square"/>
     </g>
     <g id="line2d_52">
      <g>
       <use xlink:href="#m81f7ac7efa" x="560.261098" y="318.04" style="stroke: #000000; stroke-width: 0.8"/>
      </g>
     </g>
     <g id="text_28">
      <!-- 41.5 -->
      <g transform="translate(549.128285 332.638438) scale(0.1 -0.1)">
       <use xlink:href="#DejaVuSans-34"/>
       <use xlink:href="#DejaVuSans-31" x="63.623047"/>
       <use xlink:href="#DejaVuSans-2e" x="127.246094"/>
       <use xlink:href="#DejaVuSans-35" x="159.033203"/>
      </g>
     </g>
    </g>
    <g id="xtick_14">
     <g id="line2d_53">
      <path d="M 600.059878 318.04 
L 600.059878 10.8 
" clip-path="url(#pd214cf5235)" style="fill: none; stroke: #b0b0b0; stroke-width: 0.8; stroke-linecap: square"/>
     </g>
     <g id="line2d_54">
      <g>
       <use xlink:href="#m81f7ac7efa" x="600.059878" y="318.04" style="stroke: #000000; stroke-width: 0.8"/>
      </g>
     </g>
     <g id="text_29">
      <!-- 41.6 -->
      <g transform="translate(588.927066 332.638438) scale(0.1 -0.1)">
       <use xlink:href="#DejaVuSans-34"/>
       <use xlink:href="#DejaVuSans-31" x="63.623047"/>
       <use xlink:href="#DejaVuSans-2e" x="127.246094"/>
       <use xlink:href="#DejaVuSans-36" x="159.033203"/>
      </g>
     </g>
    </g>
    <g id="xtick_15">
     <g id="line2d_55">
      <path d="M 639.858659 318.04 
L 639.858659 10.8 
" clip-path="url(#pd214cf5235)" style="fill: none; stroke: #b0b0b0; stroke-width: 0.8; stroke-linecap: square"/>
     </g>
     <g id="line2d_56">
      <g>
       <use xlink:href="#m81f7ac7efa" x="639.858659" y="318.04" style="stroke: #000000; stroke-width: 0.8"/>
      </g>
     </g>
     <g id="text_30">
      <!-- 41.7 -->
      <g transform="translate(628.725846 332.638438) scale(0.1 -0.1)">
       <use xlink:href="#DejaVuSans-34"/>
       <use xlink:href="#DejaVuSans-31" x="63.623047"/>
       <use xlink:href="#DejaVuSans-2e" x="127.246094"/>
       <use xlink:href="#DejaVuSans-37" x="159.033203"/>
      </g>
     </g>
    </g>
    <g id="xtick_16">
     <g id="line2d_57">
      <path d="M 679.657439 318.04 
L 679.657439 10.8 
" clip-path="url(#pd214cf5235)" style="fill: none; stroke: #b0b0b0; stroke-width: 0.8; stroke-linecap: square"/>
     </g>
     <g id="line2d_58">
      <g>
       <use xlink:href="#m81f7ac7efa" x="679.657439" y="318.04" style="stroke: #000000; stroke-width: 0.8"/>
      </g>
     </g>
     <g id="text_31">
      <!-- 41.8 -->
      <g transform="translate(668.524627 332.638438) scale(0.1 -0.1)">
       <use xlink:href="#DejaVuSans-34"/>
       <use xlink:href="#DejaVuSans-31" x="63.623047"/>
       <use xlink:href="#DejaVuSans-2e" x="127.246094"/>
       <use xlink:href="#DejaVuSans-38" x="159.033203"/>
      </g>
     </g>
    </g>
    <g id="xtick_17">
     <g id="line2d_59">
      <path d="M 719.45622 318.04 
L 719.45622 10.8 
" clip-path="url(#pd214cf5235)" style="fill: none; stroke: #b0b0b0; stroke-width: 0.8; stroke-linecap: square"/>
     </g>
     <g id="line2d_60">
      <g>
       <use xlink:href="#m81f7ac7efa" x="719.45622" y="318.04" style="stroke: #000000; stroke-width: 0.8"/>
      </g>
     </g>
     <g id="text_32">
      <!-- 41.9 -->
      <g transform="translate(708.323407 332.638438) scale(0.1 -0.1)">
       <use xlink:href="#DejaVuSans-34"/>
       <use xlink:href="#DejaVuSans-31" x="63.623047"/>
       <use xlink:href="#DejaVuSans-2e" x="127.246094"/>
       <use xlink:href="#DejaVuSans-39" x="159.033203"/>
      </g>
     </g>
    </g>
    <g id="xtick_18">
     <g id="line2d_61">
      <path d="M 759.255 318.04 
L 759.255 10.8 
" clip-path="url(#pd214cf5235)" style="fill: none; stroke: #b0b0b0; stroke-width: 0.8; stroke-linecap: square"/>
     </g>
     <g id="line2d_62">
      <g>
       <use xlink:href="#m81f7ac7efa" x="759.255" y="318.04" style="stroke: #000000; stroke-width: 0.8"/>
      </g>
     </g>
     <g id="text_33">
      <!-- 42.0 -->
      <g transform="translate(748.122188 332.638438) scale(0.1 -0.1)">
       <use xlink:href="#DejaVuSans-34"/>
       <use xlink:href="#DejaVuSans-32" x="63.623047"/>
       <use xlink:href="#DejaVuSans-2e" x="127.246094"/>
       <use xlink:href="#DejaVuSans-30" x="159.033203"/>
      </g>
     </g>
    </g>
    <g id="text_34">
     <!-- Time(s) -->
     <g transform="translate(577.340156 346.316563) scale(0.1 -0.1)">
      <use xlink:href="#DejaVuSans-54"/>
      <use xlink:href="#DejaVuSans-69" x="57.958984"/>
      <use xlink:href="#DejaVuSans-6d" x="85.742188"/>
      <use xlink:href="#DejaVuSans-65" x="183.154297"/>
      <use xlink:href="#DejaVuSans-28" x="244.677734"/>
      <use xlink:href="#DejaVuSans-73" x="283.691406"/>
      <use xlink:href="#DejaVuSans-29" x="335.791016"/>
     </g>
    </g>
   </g>
   <g id="matplotlib.axis_4">
    <g id="ytick_10">
     <g id="line2d_63">
      <path d="M 432.905 309.196822 
L 759.255 309.196822 
" clip-path="url(#pd214cf5235)" style="fill: none; stroke: #b0b0b0; stroke-width: 0.8; stroke-linecap: square"/>
     </g>
     <g id="line2d_64">
      <g>
       <use xlink:href="#m5205320354" x="432.905" y="309.196822" style="stroke: #000000; stroke-width: 0.8"/>
      </g>
     </g>
     <g id="text_35">
      <!-- 0 -->
      <g transform="translate(419.5425 312.996041) scale(0.1 -0.1)">
       <use xlink:href="#DejaVuSans-30"/>
      </g>
     </g>
    </g>
    <g id="ytick_11">
     <g id="line2d_65">
      <path d="M 432.905 274.347303 
L 759.255 274.347303 
" clip-path="url(#pd214cf5235)" style="fill: none; stroke: #b0b0b0; stroke-width: 0.8; stroke-linecap: square"/>
     </g>
     <g id="line2d_66">
      <g>
       <use xlink:href="#m5205320354" x="432.905" y="274.347303" style="stroke: #000000; stroke-width: 0.8"/>
      </g>
     </g>
     <g id="text_36">
      <!-- 10 -->
      <g transform="translate(413.18 278.146521) scale(0.1 -0.1)">
       <use xlink:href="#DejaVuSans-31"/>
       <use xlink:href="#DejaVuSans-30" x="63.623047"/>
      </g>
     </g>
    </g>
    <g id="ytick_12">
     <g id="line2d_67">
      <path d="M 432.905 239.497783 
L 759.255 239.497783 
" clip-path="url(#pd214cf5235)" style="fill: none; stroke: #b0b0b0; stroke-width: 0.8; stroke-linecap: square"/>
     </g>
     <g id="line2d_68">
      <g>
       <use xlink:href="#m5205320354" x="432.905" y="239.497783" style="stroke: #000000; stroke-width: 0.8"/>
      </g>
     </g>
     <g id="text_37">
      <!-- 20 -->
      <g transform="translate(413.18 243.297002) scale(0.1 -0.1)">
       <use xlink:href="#DejaVuSans-32"/>
       <use xlink:href="#DejaVuSans-30" x="63.623047"/>
      </g>
     </g>
    </g>
    <g id="ytick_13">
     <g id="line2d_69">
      <path d="M 432.905 204.648264 
L 759.255 204.648264 
" clip-path="url(#pd214cf5235)" style="fill: none; stroke: #b0b0b0; stroke-width: 0.8; stroke-linecap: square"/>
     </g>
     <g id="line2d_70">
      <g>
       <use xlink:href="#m5205320354" x="432.905" y="204.648264" style="stroke: #000000; stroke-width: 0.8"/>
      </g>
     </g>
     <g id="text_38">
      <!-- 30 -->
      <g transform="translate(413.18 208.447482) scale(0.1 -0.1)">
       <use xlink:href="#DejaVuSans-33"/>
       <use xlink:href="#DejaVuSans-30" x="63.623047"/>
      </g>
     </g>
    </g>
    <g id="ytick_14">
     <g id="line2d_71">
      <path d="M 432.905 169.798744 
L 759.255 169.798744 
" clip-path="url(#pd214cf5235)" style="fill: none; stroke: #b0b0b0; stroke-width: 0.8; stroke-linecap: square"/>
     </g>
     <g id="line2d_72">
      <g>
       <use xlink:href="#m5205320354" x="432.905" y="169.798744" style="stroke: #000000; stroke-width: 0.8"/>
      </g>
     </g>
     <g id="text_39">
      <!-- 40 -->
      <g transform="translate(413.18 173.597963) scale(0.1 -0.1)">
       <use xlink:href="#DejaVuSans-34"/>
       <use xlink:href="#DejaVuSans-30" x="63.623047"/>
      </g>
     </g>
    </g>
    <g id="ytick_15">
     <g id="line2d_73">
      <path d="M 432.905 134.949225 
L 759.255 134.949225 
" clip-path="url(#pd214cf5235)" style="fill: none; stroke: #b0b0b0; stroke-width: 0.8; stroke-linecap: square"/>
     </g>
     <g id="line2d_74">
      <g>
       <use xlink:href="#m5205320354" x="432.905" y="134.949225" style="stroke: #000000; stroke-width: 0.8"/>
      </g>
     </g>
     <g id="text_40">
      <!-- 50 -->
      <g transform="translate(413.18 138.748444) scale(0.1 -0.1)">
       <use xlink:href="#DejaVuSans-35"/>
       <use xlink:href="#DejaVuSans-30" x="63.623047"/>
      </g>
     </g>
    </g>
    <g id="ytick_16">
     <g id="line2d_75">
      <path d="M 432.905 100.099705 
L 759.255 100.099705 
" clip-path="url(#pd214cf5235)" style="fill: none; stroke: #b0b0b0; stroke-width: 0.8; stroke-linecap: square"/>
     </g>
     <g id="line2d_76">
      <g>
       <use xlink:href="#m5205320354" x="432.905" y="100.099705" style="stroke: #000000; stroke-width: 0.8"/>
      </g>
     </g>
     <g id="text_41">
      <!-- 60 -->
      <g transform="translate(413.18 103.898924) scale(0.1 -0.1)">
       <use xlink:href="#DejaVuSans-36"/>
       <use xlink:href="#DejaVuSans-30" x="63.623047"/>
      </g>
     </g>
    </g>
    <g id="ytick_17">
     <g id="line2d_77">
      <path d="M 432.905 65.250186 
L 759.255 65.250186 
" clip-path="url(#pd214cf5235)" style="fill: none; stroke: #b0b0b0; stroke-width: 0.8; stroke-linecap: square"/>
     </g>
     <g id="line2d_78">
      <g>
       <use xlink:href="#m5205320354" x="432.905" y="65.250186" style="stroke: #000000; stroke-width: 0.8"/>
      </g>
     </g>
     <g id="text_42">
      <!-- 70 -->
      <g transform="translate(413.18 69.049405) scale(0.1 -0.1)">
       <use xlink:href="#DejaVuSans-37"/>
       <use xlink:href="#DejaVuSans-30" x="63.623047"/>
      </g>
     </g>
    </g>
    <g id="ytick_18">
     <g id="line2d_79">
      <path d="M 432.905 30.400667 
L 759.255 30.400667 
" clip-path="url(#pd214cf5235)" style="fill: none; stroke: #b0b0b0; stroke-width: 0.8; stroke-linecap: square"/>
     </g>
     <g id="line2d_80">
      <g>
       <use xlink:href="#m5205320354" x="432.905" y="30.400667" style="stroke: #000000; stroke-width: 0.8"/>
      </g>
     </g>
     <g id="text_43">
      <!-- 80 -->
      <g transform="translate(413.18 34.199885) scale(0.1 -0.1)">
       <use xlink:href="#DejaVuSans-38"/>
       <use xlink:href="#DejaVuSans-30" x="63.623047"/>
      </g>
     </g>
    </g>
    <g id="text_44">
     <!-- Pressure(mmHg) -->
     <g transform="translate(407.100312 206.341094) rotate(-90) scale(0.1 -0.1)">
      <defs>
       <path id="DejaVuSans-50" d="M 1259 4147 
L 1259 2394 
L 2053 2394 
Q 2494 2394 2734 2622 
Q 2975 2850 2975 3272 
Q 2975 3691 2734 3919 
Q 2494 4147 2053 4147 
L 1259 4147 
z
M 628 4666 
L 2053 4666 
Q 2838 4666 3239 4311 
Q 3641 3956 3641 3272 
Q 3641 2581 3239 2228 
Q 2838 1875 2053 1875 
L 1259 1875 
L 1259 0 
L 628 0 
L 628 4666 
z
" transform="scale(0.015625)"/>
       <path id="DejaVuSans-72" d="M 2631 2963 
Q 2534 3019 2420 3045 
Q 2306 3072 2169 3072 
Q 1681 3072 1420 2755 
Q 1159 2438 1159 1844 
L 1159 0 
L 581 0 
L 581 3500 
L 1159 3500 
L 1159 2956 
Q 1341 3275 1631 3429 
Q 1922 3584 2338 3584 
Q 2397 3584 2469 3576 
Q 2541 3569 2628 3553 
L 2631 2963 
z
" transform="scale(0.015625)"/>
       <path id="DejaVuSans-48" d="M 628 4666 
L 1259 4666 
L 1259 2753 
L 3553 2753 
L 3553 4666 
L 4184 4666 
L 4184 0 
L 3553 0 
L 3553 2222 
L 1259 2222 
L 1259 0 
L 628 0 
L 628 4666 
z
" transform="scale(0.015625)"/>
       <path id="DejaVuSans-67" d="M 2906 1791 
Q 2906 2416 2648 2759 
Q 2391 3103 1925 3103 
Q 1463 3103 1205 2759 
Q 947 2416 947 1791 
Q 947 1169 1205 825 
Q 1463 481 1925 481 
Q 2391 481 2648 825 
Q 2906 1169 2906 1791 
z
M 3481 434 
Q 3481 -459 3084 -895 
Q 2688 -1331 1869 -1331 
Q 1566 -1331 1297 -1286 
Q 1028 -1241 775 -1147 
L 775 -588 
Q 1028 -725 1275 -790 
Q 1522 -856 1778 -856 
Q 2344 -856 2625 -561 
Q 2906 -266 2906 331 
L 2906 616 
Q 2728 306 2450 153 
Q 2172 0 1784 0 
Q 1141 0 747 490 
Q 353 981 353 1791 
Q 353 2603 747 3093 
Q 1141 3584 1784 3584 
Q 2172 3584 2450 3431 
Q 2728 3278 2906 2969 
L 2906 3500 
L 3481 3500 
L 3481 434 
z
" transform="scale(0.015625)"/>
      </defs>
      <use xlink:href="#DejaVuSans-50"/>
      <use xlink:href="#DejaVuSans-72" x="58.552734"/>
      <use xlink:href="#DejaVuSans-65" x="97.416016"/>
      <use xlink:href="#DejaVuSans-73" x="158.939453"/>
      <use xlink:href="#DejaVuSans-73" x="211.039062"/>
      <use xlink:href="#DejaVuSans-75" x="263.138672"/>
      <use xlink:href="#DejaVuSans-72" x="326.517578"/>
      <use xlink:href="#DejaVuSans-65" x="365.380859"/>
      <use xlink:href="#DejaVuSans-28" x="426.904297"/>
      <use xlink:href="#DejaVuSans-6d" x="465.917969"/>
      <use xlink:href="#DejaVuSans-6d" x="563.330078"/>
      <use xlink:href="#DejaVuSans-48" x="660.742188"/>
      <use xlink:href="#DejaVuSans-67" x="735.9375"/>
      <use xlink:href="#DejaVuSans-29" x="799.414062"/>
     </g>
    </g>
   </g>
   <g id="line2d_81">
    <path d="M 428.925122 175.269854 
L 432.905 226.079284 
L 436.884878 259.220813 
L 440.864756 278.115257 
L 444.844634 288.183563 
L 448.824512 293.012372 
L 452.80439 294.804513 
L 456.784268 295.003142 
L 460.764146 294.419289 
L 464.744024 293.469549 
L 468.723902 292.369736 
L 472.70378 291.23685 
L 476.683659 290.134409 
L 480.663537 289.100572 
L 484.643415 288.157847 
L 488.623293 287.318896 
L 492.603171 286.590762 
L 496.583049 285.97777 
L 500.562927 285.48228 
L 504.542805 285.102329 
L 508.522683 284.823976 
L 512.502561 284.626161 
L 516.482439 284.487999 
L 520.462317 284.392362 
L 524.442195 284.326507 
L 528.422073 284.281307 
L 532.401951 284.250447 
L 536.381829 284.229472 
L 540.361707 284.215338 
L 544.341585 284.205866 
L 548.321463 284.199535 
L 552.301341 284.195316 
L 556.28122 284.192488 
L 560.261098 284.19047 
L 564.240976 284.187593 
L 568.220854 284.168809 
L 572.200732 284.089867 
L 576.18061 283.891858 
L 580.160488 283.535536 
L 584.140366 283.024603 
L 588.120244 282.397978 
L 592.100122 281.709749 
L 596.08 281.013124 
L 600.059878 280.35186 
L 604.039756 261.491826 
L 608.019634 234.682788 
L 611.999512 205.041292 
L 615.97939 174.054018 
L 619.959268 143.975796 
L 623.939146 116.97699 
L 627.919024 93.752055 
L 631.898902 74.462666 
L 635.87878 59.019165 
L 639.858659 47.143616 
L 643.838537 38.432627 
L 647.818415 32.417971 
L 651.798293 28.615953 
L 655.778171 26.563459 
L 659.758049 25.842574 
L 663.737927 26.099909 
L 667.717805 27.042153 
L 671.697683 28.441807 
L 675.677561 30.136344 
L 679.657439 32.003514 
L 683.637317 33.96385 
L 687.617195 35.969738 
L 691.597073 37.997687 
L 695.576951 40.037998 
L 699.556829 42.083981 
L 703.536707 44.128442 
L 707.516585 46.182082 
L 711.496463 48.250359 
L 715.476341 50.340115 
L 719.45622 52.450185 
L 723.436098 54.580609 
L 727.415976 56.73035 
L 731.395854 58.90236 
L 735.375732 61.089693 
L 739.35561 63.297582 
L 743.335488 111.534462 
L 747.315366 175.267749 
L 751.295244 226.076995 
L 755.275122 259.21943 
L 759.255 278.114397 
L 763.234878 288.183001 
" clip-path="url(#pd214cf5235)" style="fill: none; stroke: #1f77b4; stroke-width: 1.5; stroke-linecap: square"/>
   </g>
   <g id="line2d_82">
    <path d="M 428.925122 277.336262 
L 432.905 276.985795 
L 436.884878 276.664485 
L 440.864756 276.372093 
L 444.844634 276.132787 
L 448.824512 276.188353 
L 452.80439 276.758276 
L 456.784268 277.736927 
L 460.764146 278.910656 
L 464.744024 280.125933 
L 468.723902 281.300195 
L 472.70378 282.393015 
L 476.683659 283.387511 
L 480.663537 284.274464 
L 484.643415 285.049448 
L 488.623293 285.711207 
L 492.603171 286.259992 
L 496.583049 286.696281 
L 500.562927 287.020828 
L 504.542805 287.237823 
L 508.522683 287.362688 
L 512.502561 287.417294 
L 516.482439 287.422808 
L 520.462317 287.396244 
L 524.442195 287.349975 
L 528.422073 287.292602 
L 532.401951 287.229831 
L 536.381829 287.165477 
L 540.361707 287.101943 
L 544.341585 287.040783 
L 548.321463 286.982926 
L 552.301341 286.929109 
L 556.28122 285.541842 
L 560.261098 283.760201 
L 564.240976 282.00148 
L 568.220854 280.401844 
L 572.200732 279.061515 
L 576.18061 278.076336 
L 580.160488 277.506756 
L 584.140366 277.344289 
L 588.120244 277.518901 
L 592.100122 277.928872 
L 596.08 278.468497 
L 600.059878 279.04551 
L 604.039756 279.46754 
L 608.019634 280.511378 
L 611.999512 284.778233 
L 615.97939 287.945982 
L 619.959268 289.749624 
L 623.939146 290.614739 
L 627.919024 290.957836 
L 631.898902 291.017317 
L 635.87878 290.909 
L 639.858659 290.688478 
L 643.838537 290.38491 
L 647.818415 290.015959 
L 651.798293 289.594032 
L 655.778171 289.128874 
L 659.758049 288.628702 
L 663.737927 288.100679 
L 667.717805 287.551186 
L 671.697683 286.985937 
L 675.677561 286.40994 
L 679.657439 285.827788 
L 683.637317 285.243535 
L 687.617195 284.660734 
L 691.597073 284.082568 
L 695.576951 283.511689 
L 699.556829 282.950195 
L 703.536707 282.399771 
L 707.516585 281.862072 
L 711.496463 281.338311 
L 715.476341 280.82948 
L 719.45622 280.336152 
L 723.436098 279.858736 
L 727.415976 279.397435 
L 731.395854 278.952425 
L 735.375732 278.523488 
L 739.35561 278.110704 
L 743.335488 277.713808 
L 747.315366 277.336503 
L 751.295244 276.986029 
L 755.275122 276.664712 
L 759.255 276.372314 
L 763.234878 276.132994 
" clip-path="url(#pd214cf5235)" style="fill: none; stroke: #ff7f0e; stroke-width: 1.5; stroke-linecap: square"/>
   </g>
   <g id="line2d_83">
    <path d="M 428.925122 276.407772 
L 432.905 287.756305 
L 436.884878 294.972167 
L 440.864756 299.061507 
L 444.844634 301.247523 
L 448.824512 302.369007 
L 452.80439 302.899588 
L 456.784268 303.08833 
L 460.764146 303.06576 
L 464.744024 302.904543 
L 468.723902 302.64971 
L 472.70378 302.332517 
L 476.683659 301.976612 
L 480.663537 301.60004 
L 484.643415 301.21673 
L 488.623293 300.837427 
L 492.603171 300.47029 
L 496.583049 300.121547 
L 500.562927 299.795519 
L 504.542805 299.495663 
L 508.522683 299.224744 
L 512.502561 298.984801 
L 516.482439 298.776517 
L 520.462317 298.598776 
L 524.442195 298.44915 
L 528.422073 298.324542 
L 532.401951 298.221697 
L 536.381829 298.137557 
L 540.361707 298.069396 
L 544.341585 298.014795 
L 548.321463 297.971583 
L 552.301341 297.937805 
L 556.28122 297.911575 
L 560.261098 297.890521 
L 564.240976 297.869726 
L 568.220854 297.836833 
L 572.200732 297.767666 
L 576.18061 297.633214 
L 580.160488 297.412183 
L 584.140366 297.098976 
L 588.120244 296.702456 
L 592.100122 296.240931 
L 596.08 295.737192 
L 600.059878 295.214757 
L 604.039756 291.227299 
L 608.019634 285.5315 
L 611.999512 279.156858 
L 615.97939 272.688129 
L 619.959268 266.399408 
L 623.939146 260.398399 
L 627.919024 255.004927 
L 631.898902 250.423367 
L 635.87878 246.684381 
L 639.858659 243.714777 
L 643.838537 241.411061 
L 647.818415 239.675372 
L 651.798293 238.422793 
L 655.778171 237.580796 
L 659.758049 237.086772 
L 663.737927 236.886381 
L 667.717805 236.93078 
L 671.697683 237.176779 
L 675.677561 237.586781 
L 679.657439 238.126963 
L 683.637317 238.768127 
L 687.617195 239.485395 
L 691.597073 240.257711 
L 695.576951 241.068245 
L 699.556829 241.903351 
L 703.536707 242.751216 
L 707.516585 243.604017 
L 711.496463 244.455962 
L 715.476341 245.303009 
L 719.45622 246.142299 
L 723.436098 246.972088 
L 727.415976 247.790967 
L 731.395854 248.598712 
L 735.375732 249.393737 
L 739.35561 250.176607 
L 743.335488 261.455067 
L 747.315366 276.409254 
L 751.295244 287.757256 
L 755.275122 294.972795 
L 759.255 299.061955 
L 763.234878 301.247873 
" clip-path="url(#pd214cf5235)" style="fill: none; stroke: #2ca02c; stroke-width: 1.5; stroke-linecap: square"/>
   </g>
   <g id="line2d_84">
    <path d="M 428.925122 298.199034 
L 432.905 298.040554 
L 436.884878 297.885114 
L 440.864756 297.732547 
L 444.844634 297.584774 
L 448.824512 297.456173 
L 452.80439 297.370839 
L 456.784268 297.347666 
L 460.764146 297.394076 
L 464.744024 297.50704 
L 468.723902 297.676659 
L 472.70378 297.889645 
L 476.683659 298.131743 
L 480.663537 298.38994 
L 484.643415 298.653076 
L 488.623293 298.91196 
L 492.603171 299.159323 
L 496.583049 299.38946 
L 500.562927 299.598334 
L 504.542805 299.782672 
L 508.522683 299.939811 
L 512.502561 300.067769 
L 516.482439 300.165897 
L 520.462317 300.235324 
L 524.442195 300.278486 
L 528.422073 300.298473 
L 532.401951 300.298529 
L 536.381829 300.2817 
L 540.361707 300.250694 
L 544.341585 300.207907 
L 548.321463 300.155489 
L 552.301341 300.095385 
L 556.28122 298.678108 
L 560.261098 296.814833 
L 564.240976 294.920791 
L 568.220854 293.136236 
L 572.200732 291.556244 
L 576.18061 290.26653 
L 580.160488 289.333355 
L 584.140366 288.785329 
L 588.120244 288.610474 
L 592.100122 288.764547 
L 596.08 289.18286 
L 600.059878 289.791387 
L 604.039756 290.504982 
L 608.019634 292.171697 
L 611.999512 296.635094 
L 615.97939 299.618271 
L 619.959268 301.216212 
L 623.939146 302.00486 
L 627.919024 302.355031 
L 631.898902 302.481664 
L 635.87878 302.494153 
L 639.858659 302.445626 
L 643.838537 302.361983 
L 647.818415 302.256254 
L 651.798293 302.135355 
L 655.778171 302.003242 
L 659.758049 301.862403 
L 663.737927 301.714563 
L 667.717805 301.561028 
L 671.697683 301.402853 
L 675.677561 301.24091 
L 679.657439 301.075956 
L 683.637317 300.908644 
L 687.617195 300.739536 
L 691.597073 300.569129 
L 695.576951 300.397836 
L 699.556829 300.225992 
L 703.536707 300.053872 
L 707.516585 299.881755 
L 711.496463 299.709867 
L 715.476341 299.538407 
L 719.45622 299.367531 
L 723.436098 299.197377 
L 727.415976 299.028065 
L 731.395854 298.859712 
L 735.375732 298.692394 
L 739.35561 298.526218 
L 743.335488 298.361318 
L 747.315366 298.199098 
L 751.295244 298.040613 
L 755.275122 297.885169 
L 759.255 297.732597 
L 763.234878 297.58482 
" clip-path="url(#pd214cf5235)" style="fill: none; stroke: #d62728; stroke-width: 1.5; stroke-linecap: square"/>
   </g>
   <g id="line2d_85">
    <path d="M 428.925122 97.419513 
L 432.905 92.236525 
L 436.884878 95.715777 
L 440.864756 99.292126 
L 444.844634 102.802947 
L 448.824512 106.249196 
L 452.80439 109.632529 
L 456.784268 112.955001 
L 460.764146 116.218873 
L 464.744024 119.4264 
L 468.723902 122.579675 
L 472.70378 125.680552 
L 476.683659 128.730596 
L 480.663537 131.731103 
L 484.643415 134.683133 
L 488.623293 137.587548 
L 492.603171 140.445048 
L 496.583049 143.256059 
L 500.562927 146.021356 
L 504.542805 148.741187 
L 508.522683 151.415907 
L 512.502561 154.045811 
L 516.482439 156.63117 
L 520.462317 159.17225 
L 524.442195 161.669348 
L 528.422073 164.122804 
L 532.401951 166.533009 
L 536.381829 168.900401 
L 540.361707 171.225466 
L 544.341585 173.508723 
L 548.321463 175.750723 
L 552.301341 177.951718 
L 556.28122 180.10232 
L 560.261098 182.184533 
L 564.240976 184.19649 
L 568.220854 186.140136 
L 572.200732 188.019482 
L 576.18061 189.840054 
L 580.160488 191.608665 
L 584.140366 193.332859 
L 588.120244 195.02018 
L 592.100122 196.677541 
L 596.08 198.310763 
L 600.059878 199.924289 
L 604.039756 201.52112 
L 608.019634 203.104154 
L 611.999512 204.721724 
L 615.97939 198.855017 
L 619.959268 166.078431 
L 623.939146 133.808188 
L 627.919024 108.246925 
L 631.898902 87.585138 
L 635.87878 70.854419 
L 639.858659 57.557313 
L 643.838537 47.297664 
L 647.818415 39.688421 
L 651.798293 34.343093 
L 655.778171 30.883039 
L 659.758049 28.945508 
L 663.737927 28.203374 
L 667.717805 28.364665 
L 671.697683 29.183456 
L 675.677561 30.471292 
L 679.657439 32.069644 
L 683.637317 33.865972 
L 687.617195 35.784981 
L 691.597073 37.77366 
L 695.576951 39.809273 
L 699.556829 41.868366 
L 703.536707 43.938577 
L 707.516585 46.014826 
L 711.496463 48.103162 
L 715.476341 50.207714 
L 719.45622 52.331916 
L 723.436098 54.474541 
L 727.415976 56.636204 
L 731.395854 58.816725 
L 735.375732 61.013763 
L 739.35561 63.226382 
L 743.335488 80.383878 
L 747.315366 97.42004 
L 751.295244 92.231347 
L 755.275122 95.709695 
L 759.255 99.286153 
L 763.234878 102.797081 
" clip-path="url(#pd214cf5235)" style="fill: none; stroke: #9467bd; stroke-width: 1.5; stroke-linecap: square"/>
   </g>
   <g id="patch_9">
    <path d="M 432.905 318.04 
L 432.905 10.8 
" style="fill: none; stroke: #000000; stroke-width: 0.8; stroke-linejoin: miter; stroke-linecap: square"/>
   </g>
   <g id="patch_10">
    <path d="M 759.255 318.04 
L 759.255 10.8 
" style="fill: none; stroke: #000000; stroke-width: 0.8; stroke-linejoin: miter; stroke-linecap: square"/>
   </g>
   <g id="patch_11">
    <path d="M 432.905 318.04 
L 759.255 318.04 
" style="fill: none; stroke: #000000; stroke-width: 0.8; stroke-linejoin: miter; stroke-linecap: square"/>
   </g>
   <g id="patch_12">
    <path d="M 432.905 10.8 
L 759.255 10.8 
" style="fill: none; stroke: #000000; stroke-width: 0.8; stroke-linejoin: miter; stroke-linecap: square"/>
   </g>
   <g id="legend_2">
    <g id="patch_13">
     <path d="M 439.905 92.190625 
L 498.84875 92.190625 
Q 500.84875 92.190625 500.84875 90.190625 
L 500.84875 17.8 
Q 500.84875 15.8 498.84875 15.8 
L 439.905 15.8 
Q 437.905 15.8 437.905 17.8 
L 437.905 90.190625 
Q 437.905 92.190625 439.905 92.190625 
z
" style="fill: #ffffff; opacity: 0.8; stroke: #cccccc; stroke-linejoin: miter"/>
    </g>
    <g id="line2d_86">
     <path d="M 441.905 23.898438 
L 451.905 23.898438 
L 461.905 23.898438 
" style="fill: none; stroke: #1f77b4; stroke-width: 1.5; stroke-linecap: square"/>
    </g>
    <g id="text_45">
     <!-- LV -->
     <g transform="translate(469.905 27.398438) scale(0.1 -0.1)">
      <use xlink:href="#DejaVuSans-4c"/>
      <use xlink:href="#DejaVuSans-56" x="44.712891"/>
     </g>
    </g>
    <g id="line2d_87">
     <path d="M 441.905 38.576563 
L 451.905 38.576563 
L 461.905 38.576563 
" style="fill: none; stroke: #ff7f0e; stroke-width: 1.5; stroke-linecap: square"/>
    </g>
    <g id="text_46">
     <!-- LA -->
     <g transform="translate(469.905 42.076563) scale(0.1 -0.1)">
      <use xlink:href="#DejaVuSans-4c"/>
      <use xlink:href="#DejaVuSans-41" x="57.962891"/>
     </g>
    </g>
    <g id="line2d_88">
     <path d="M 441.905 53.254687 
L 451.905 53.254687 
L 461.905 53.254687 
" style="fill: none; stroke: #2ca02c; stroke-width: 1.5; stroke-linecap: square"/>
    </g>
    <g id="text_47">
     <!-- RV -->
     <g transform="translate(469.905 56.754687) scale(0.1 -0.1)">
      <use xlink:href="#DejaVuSans-52"/>
      <use xlink:href="#DejaVuSans-56" x="63.982422"/>
     </g>
    </g>
    <g id="line2d_89">
     <path d="M 441.905 67.932813 
L 451.905 67.932813 
L 461.905 67.932813 
" style="fill: none; stroke: #d62728; stroke-width: 1.5; stroke-linecap: square"/>
    </g>
    <g id="text_48">
     <!-- RA -->
     <g transform="translate(469.905 71.432813) scale(0.1 -0.1)">
      <use xlink:href="#DejaVuSans-52"/>
      <use xlink:href="#DejaVuSans-41" x="65.482422"/>
     </g>
    </g>
    <g id="line2d_90">
     <path d="M 441.905 82.610937 
L 451.905 82.610937 
L 461.905 82.610937 
" style="fill: none; stroke: #9467bd; stroke-width: 1.5; stroke-linecap: square"/>
    </g>
    <g id="text_49">
     <!-- Aorta -->
     <g transform="translate(469.905 86.110937) scale(0.1 -0.1)">
      <defs>
       <path id="DejaVuSans-74" d="M 1172 4494 
L 1172 3500 
L 2356 3500 
L 2356 3053 
L 1172 3053 
L 1172 1153 
Q 1172 725 1289 603 
Q 1406 481 1766 481 
L 2356 481 
L 2356 0 
L 1766 0 
Q 1100 0 847 248 
Q 594 497 594 1153 
L 594 3053 
L 172 3053 
L 172 3500 
L 594 3500 
L 594 4494 
L 1172 4494 
z
" transform="scale(0.015625)"/>
       <path id="DejaVuSans-61" d="M 2194 1759 
Q 1497 1759 1228 1600 
Q 959 1441 959 1056 
Q 959 750 1161 570 
Q 1363 391 1709 391 
Q 2188 391 2477 730 
Q 2766 1069 2766 1631 
L 2766 1759 
L 2194 1759 
z
M 3341 1997 
L 3341 0 
L 2766 0 
L 2766 531 
Q 2569 213 2275 61 
Q 1981 -91 1556 -91 
Q 1019 -91 701 211 
Q 384 513 384 1019 
Q 384 1609 779 1909 
Q 1175 2209 1959 2209 
L 2766 2209 
L 2766 2266 
Q 2766 2663 2505 2880 
Q 2244 3097 1772 3097 
Q 1472 3097 1187 3025 
Q 903 2953 641 2809 
L 641 3341 
Q 956 3463 1253 3523 
Q 1550 3584 1831 3584 
Q 2591 3584 2966 3190 
Q 3341 2797 3341 1997 
z
" transform="scale(0.015625)"/>
      </defs>
      <use xlink:href="#DejaVuSans-41"/>
      <use xlink:href="#DejaVuSans-6f" x="66.658203"/>
      <use xlink:href="#DejaVuSans-72" x="127.839844"/>
      <use xlink:href="#DejaVuSans-74" x="168.953125"/>
      <use xlink:href="#DejaVuSans-61" x="208.162109"/>
     </g>
    </g>
   </g>
  </g>
  <g id="axes_3">
   <g id="patch_14">
    <path d="M 814.85 318.04 
L 1141.2 318.04 
L 1141.2 10.8 
L 814.85 10.8 
z
" style="fill: #ffffff"/>
   </g>
   <g id="matplotlib.axis_5">
    <g id="xtick_19">
     <g id="line2d_91">
      <path d="M 849.677119 318.04 
L 849.677119 10.8 
" clip-path="url(#pf0c703724f)" style="fill: none; stroke: #b0b0b0; stroke-width: 0.8; stroke-linecap: square"/>
     </g>
     <g id="line2d_92">
      <g>
       <use xlink:href="#m81f7ac7efa" x="849.677119" y="318.04" style="stroke: #000000; stroke-width: 0.8"/>
      </g>
     </g>
     <g id="text_50">
      <!-- 50 -->
      <g transform="translate(843.314619 332.638438) scale(0.1 -0.1)">
       <use xlink:href="#DejaVuSans-35"/>
       <use xlink:href="#DejaVuSans-30" x="63.623047"/>
      </g>
     </g>
    </g>
    <g id="xtick_20">
     <g id="line2d_93">
      <path d="M 888.32311 318.04 
L 888.32311 10.8 
" clip-path="url(#pf0c703724f)" style="fill: none; stroke: #b0b0b0; stroke-width: 0.8; stroke-linecap: square"/>
     </g>
     <g id="line2d_94">
      <g>
       <use xlink:href="#m81f7ac7efa" x="888.32311" y="318.04" style="stroke: #000000; stroke-width: 0.8"/>
      </g>
     </g>
     <g id="text_51">
      <!-- 60 -->
      <g transform="translate(881.96061 332.638438) scale(0.1 -0.1)">
       <use xlink:href="#DejaVuSans-36"/>
       <use xlink:href="#DejaVuSans-30" x="63.623047"/>
      </g>
     </g>
    </g>
    <g id="xtick_21">
     <g id="line2d_95">
      <path d="M 926.9691 318.04 
L 926.9691 10.8 
" clip-path="url(#pf0c703724f)" style="fill: none; stroke: #b0b0b0; stroke-width: 0.8; stroke-linecap: square"/>
     </g>
     <g id="line2d_96">
      <g>
       <use xlink:href="#m81f7ac7efa" x="926.9691" y="318.04" style="stroke: #000000; stroke-width: 0.8"/>
      </g>
     </g>
     <g id="text_52">
      <!-- 70 -->
      <g transform="translate(920.6066 332.638438) scale(0.1 -0.1)">
       <use xlink:href="#DejaVuSans-37"/>
       <use xlink:href="#DejaVuSans-30" x="63.623047"/>
      </g>
     </g>
    </g>
    <g id="xtick_22">
     <g id="line2d_97">
      <path d="M 965.615091 318.04 
L 965.615091 10.8 
" clip-path="url(#pf0c703724f)" style="fill: none; stroke: #b0b0b0; stroke-width: 0.8; stroke-linecap: square"/>
     </g>
     <g id="line2d_98">
      <g>
       <use xlink:href="#m81f7ac7efa" x="965.615091" y="318.04" style="stroke: #000000; stroke-width: 0.8"/>
      </g>
     </g>
     <g id="text_53">
      <!-- 80 -->
      <g transform="translate(959.252591 332.638438) scale(0.1 -0.1)">
       <use xlink:href="#DejaVuSans-38"/>
       <use xlink:href="#DejaVuSans-30" x="63.623047"/>
      </g>
     </g>
    </g>
    <g id="xtick_23">
     <g id="line2d_99">
      <path d="M 1004.261081 318.04 
L 1004.261081 10.8 
" clip-path="url(#pf0c703724f)" style="fill: none; stroke: #b0b0b0; stroke-width: 0.8; stroke-linecap: square"/>
     </g>
     <g id="line2d_100">
      <g>
       <use xlink:href="#m81f7ac7efa" x="1004.261081" y="318.04" style="stroke: #000000; stroke-width: 0.8"/>
      </g>
     </g>
     <g id="text_54">
      <!-- 90 -->
      <g transform="translate(997.898581 332.638438) scale(0.1 -0.1)">
       <use xlink:href="#DejaVuSans-39"/>
       <use xlink:href="#DejaVuSans-30" x="63.623047"/>
      </g>
     </g>
    </g>
    <g id="xtick_24">
     <g id="line2d_101">
      <path d="M 1042.907072 318.04 
L 1042.907072 10.8 
" clip-path="url(#pf0c703724f)" style="fill: none; stroke: #b0b0b0; stroke-width: 0.8; stroke-linecap: square"/>
     </g>
     <g id="line2d_102">
      <g>
       <use xlink:href="#m81f7ac7efa" x="1042.907072" y="318.04" style="stroke: #000000; stroke-width: 0.8"/>
      </g>
     </g>
     <g id="text_55">
      <!-- 100 -->
      <g transform="translate(1033.363322 332.638438) scale(0.1 -0.1)">
       <use xlink:href="#DejaVuSans-31"/>
       <use xlink:href="#DejaVuSans-30" x="63.623047"/>
       <use xlink:href="#DejaVuSans-30" x="127.246094"/>
      </g>
     </g>
    </g>
    <g id="xtick_25">
     <g id="line2d_103">
      <path d="M 1081.553062 318.04 
L 1081.553062 10.8 
" clip-path="url(#pf0c703724f)" style="fill: none; stroke: #b0b0b0; stroke-width: 0.8; stroke-linecap: square"/>
     </g>
     <g id="line2d_104">
      <g>
       <use xlink:href="#m81f7ac7efa" x="1081.553062" y="318.04" style="stroke: #000000; stroke-width: 0.8"/>
      </g>
     </g>
     <g id="text_56">
      <!-- 110 -->
      <g transform="translate(1072.009312 332.638438) scale(0.1 -0.1)">
       <use xlink:href="#DejaVuSans-31"/>
       <use xlink:href="#DejaVuSans-31" x="63.623047"/>
       <use xlink:href="#DejaVuSans-30" x="127.246094"/>
      </g>
     </g>
    </g>
    <g id="xtick_26">
     <g id="line2d_105">
      <path d="M 1120.199053 318.04 
L 1120.199053 10.8 
" clip-path="url(#pf0c703724f)" style="fill: none; stroke: #b0b0b0; stroke-width: 0.8; stroke-linecap: square"/>
     </g>
     <g id="line2d_106">
      <g>
       <use xlink:href="#m81f7ac7efa" x="1120.199053" y="318.04" style="stroke: #000000; stroke-width: 0.8"/>
      </g>
     </g>
     <g id="text_57">
      <!-- 120 -->
      <g transform="translate(1110.655303 332.638438) scale(0.1 -0.1)">
       <use xlink:href="#DejaVuSans-31"/>
       <use xlink:href="#DejaVuSans-32" x="63.623047"/>
       <use xlink:href="#DejaVuSans-30" x="127.246094"/>
      </g>
     </g>
    </g>
    <g id="text_58">
     <!-- Volume(ml) -->
     <g transform="translate(949.267187 346.316563) scale(0.1 -0.1)">
      <use xlink:href="#DejaVuSans-56"/>
      <use xlink:href="#DejaVuSans-6f" x="60.658203"/>
      <use xlink:href="#DejaVuSans-6c" x="121.839844"/>
      <use xlink:href="#DejaVuSans-75" x="149.623047"/>
      <use xlink:href="#DejaVuSans-6d" x="213.001953"/>
      <use xlink:href="#DejaVuSans-65" x="310.414062"/>
      <use xlink:href="#DejaVuSans-28" x="371.9375"/>
      <use xlink:href="#DejaVuSans-6d" x="410.951172"/>
      <use xlink:href="#DejaVuSans-6c" x="508.363281"/>
      <use xlink:href="#DejaVuSans-29" x="536.146484"/>
     </g>
    </g>
   </g>
   <g id="matplotlib.axis_6">
    <g id="ytick_19">
     <g id="line2d_107">
      <path d="M 814.85 310.228499 
L 1141.2 310.228499 
" clip-path="url(#pf0c703724f)" style="fill: none; stroke: #b0b0b0; stroke-width: 0.8; stroke-linecap: square"/>
     </g>
     <g id="line2d_108">
      <g>
       <use xlink:href="#m5205320354" x="814.85" y="310.228499" style="stroke: #000000; stroke-width: 0.8"/>
      </g>
     </g>
     <g id="text_59">
      <!-- 0 -->
      <g transform="translate(801.4875 314.027718) scale(0.1 -0.1)">
       <use xlink:href="#DejaVuSans-30"/>
      </g>
     </g>
    </g>
    <g id="ytick_20">
     <g id="line2d_109">
      <path d="M 814.85 275.11962 
L 1141.2 275.11962 
" clip-path="url(#pf0c703724f)" style="fill: none; stroke: #b0b0b0; stroke-width: 0.8; stroke-linecap: square"/>
     </g>
     <g id="line2d_110">
      <g>
       <use xlink:href="#m5205320354" x="814.85" y="275.11962" style="stroke: #000000; stroke-width: 0.8"/>
      </g>
     </g>
     <g id="text_60">
      <!-- 10 -->
      <g transform="translate(795.125 278.918839) scale(0.1 -0.1)">
       <use xlink:href="#DejaVuSans-31"/>
       <use xlink:href="#DejaVuSans-30" x="63.623047"/>
      </g>
     </g>
    </g>
    <g id="ytick_21">
     <g id="line2d_111">
      <path d="M 814.85 240.010742 
L 1141.2 240.010742 
" clip-path="url(#pf0c703724f)" style="fill: none; stroke: #b0b0b0; stroke-width: 0.8; stroke-linecap: square"/>
     </g>
     <g id="line2d_112">
      <g>
       <use xlink:href="#m5205320354" x="814.85" y="240.010742" style="stroke: #000000; stroke-width: 0.8"/>
      </g>
     </g>
     <g id="text_61">
      <!-- 20 -->
      <g transform="translate(795.125 243.80996) scale(0.1 -0.1)">
       <use xlink:href="#DejaVuSans-32"/>
       <use xlink:href="#DejaVuSans-30" x="63.623047"/>
      </g>
     </g>
    </g>
    <g id="ytick_22">
     <g id="line2d_113">
      <path d="M 814.85 204.901863 
L 1141.2 204.901863 
" clip-path="url(#pf0c703724f)" style="fill: none; stroke: #b0b0b0; stroke-width: 0.8; stroke-linecap: square"/>
     </g>
     <g id="line2d_114">
      <g>
       <use xlink:href="#m5205320354" x="814.85" y="204.901863" style="stroke: #000000; stroke-width: 0.8"/>
      </g>
     </g>
     <g id="text_62">
      <!-- 30 -->
      <g transform="translate(795.125 208.701082) scale(0.1 -0.1)">
       <use xlink:href="#DejaVuSans-33"/>
       <use xlink:href="#DejaVuSans-30" x="63.623047"/>
      </g>
     </g>
    </g>
    <g id="ytick_23">
     <g id="line2d_115">
      <path d="M 814.85 169.792984 
L 1141.2 169.792984 
" clip-path="url(#pf0c703724f)" style="fill: none; stroke: #b0b0b0; stroke-width: 0.8; stroke-linecap: square"/>
     </g>
     <g id="line2d_116">
      <g>
       <use xlink:href="#m5205320354" x="814.85" y="169.792984" style="stroke: #000000; stroke-width: 0.8"/>
      </g>
     </g>
     <g id="text_63">
      <!-- 40 -->
      <g transform="translate(795.125 173.592203) scale(0.1 -0.1)">
       <use xlink:href="#DejaVuSans-34"/>
       <use xlink:href="#DejaVuSans-30" x="63.623047"/>
      </g>
     </g>
    </g>
    <g id="ytick_24">
     <g id="line2d_117">
      <path d="M 814.85 134.684106 
L 1141.2 134.684106 
" clip-path="url(#pf0c703724f)" style="fill: none; stroke: #b0b0b0; stroke-width: 0.8; stroke-linecap: square"/>
     </g>
     <g id="line2d_118">
      <g>
       <use xlink:href="#m5205320354" x="814.85" y="134.684106" style="stroke: #000000; stroke-width: 0.8"/>
      </g>
     </g>
     <g id="text_64">
      <!-- 50 -->
      <g transform="translate(795.125 138.483324) scale(0.1 -0.1)">
       <use xlink:href="#DejaVuSans-35"/>
       <use xlink:href="#DejaVuSans-30" x="63.623047"/>
      </g>
     </g>
    </g>
    <g id="ytick_25">
     <g id="line2d_119">
      <path d="M 814.85 99.575227 
L 1141.2 99.575227 
" clip-path="url(#pf0c703724f)" style="fill: none; stroke: #b0b0b0; stroke-width: 0.8; stroke-linecap: square"/>
     </g>
     <g id="line2d_120">
      <g>
       <use xlink:href="#m5205320354" x="814.85" y="99.575227" style="stroke: #000000; stroke-width: 0.8"/>
      </g>
     </g>
     <g id="text_65">
      <!-- 60 -->
      <g transform="translate(795.125 103.374446) scale(0.1 -0.1)">
       <use xlink:href="#DejaVuSans-36"/>
       <use xlink:href="#DejaVuSans-30" x="63.623047"/>
      </g>
     </g>
    </g>
    <g id="ytick_26">
     <g id="line2d_121">
      <path d="M 814.85 64.466348 
L 1141.2 64.466348 
" clip-path="url(#pf0c703724f)" style="fill: none; stroke: #b0b0b0; stroke-width: 0.8; stroke-linecap: square"/>
     </g>
     <g id="line2d_122">
      <g>
       <use xlink:href="#m5205320354" x="814.85" y="64.466348" style="stroke: #000000; stroke-width: 0.8"/>
      </g>
     </g>
     <g id="text_66">
      <!-- 70 -->
      <g transform="translate(795.125 68.265567) scale(0.1 -0.1)">
       <use xlink:href="#DejaVuSans-37"/>
       <use xlink:href="#DejaVuSans-30" x="63.623047"/>
      </g>
     </g>
    </g>
    <g id="ytick_27">
     <g id="line2d_123">
      <path d="M 814.85 29.35747 
L 1141.2 29.35747 
" clip-path="url(#pf0c703724f)" style="fill: none; stroke: #b0b0b0; stroke-width: 0.8; stroke-linecap: square"/>
     </g>
     <g id="line2d_124">
      <g>
       <use xlink:href="#m5205320354" x="814.85" y="29.35747" style="stroke: #000000; stroke-width: 0.8"/>
      </g>
     </g>
     <g id="text_67">
      <!-- 80 -->
      <g transform="translate(795.125 33.156688) scale(0.1 -0.1)">
       <use xlink:href="#DejaVuSans-38"/>
       <use xlink:href="#DejaVuSans-30" x="63.623047"/>
      </g>
     </g>
    </g>
    <g id="text_68">
     <!-- Pressure(mmHg) -->
     <g transform="translate(789.045312 206.341094) rotate(-90) scale(0.1 -0.1)">
      <use xlink:href="#DejaVuSans-50"/>
      <use xlink:href="#DejaVuSans-72" x="58.552734"/>
      <use xlink:href="#DejaVuSans-65" x="97.416016"/>
      <use xlink:href="#DejaVuSans-73" x="158.939453"/>
      <use xlink:href="#DejaVuSans-73" x="211.039062"/>
      <use xlink:href="#DejaVuSans-75" x="263.138672"/>
      <use xlink:href="#DejaVuSans-72" x="326.517578"/>
      <use xlink:href="#DejaVuSans-65" x="365.380859"/>
      <use xlink:href="#DejaVuSans-28" x="426.904297"/>
      <use xlink:href="#DejaVuSans-6d" x="465.917969"/>
      <use xlink:href="#DejaVuSans-6d" x="563.330078"/>
      <use xlink:href="#DejaVuSans-48" x="660.742188"/>
      <use xlink:href="#DejaVuSans-67" x="735.9375"/>
      <use xlink:href="#DejaVuSans-29" x="799.414062"/>
     </g>
    </g>
   </g>
   <g id="line2d_125">
    <path d="M 904.288658 30.957515 
L 896.37771 32.931012 
L 889.176341 34.948706 
L 882.592695 36.997207 
L 876.554376 39.058868 
L 870.994737 41.127079 
L 865.8586 43.194566 
L 861.094034 45.263109 
L 856.649049 47.347126 
L 852.484338 49.451444 
L 848.569024 51.575626 
L 844.874615 53.722364 
L 841.377867 55.891567 
L 838.062376 58.076329 
L 834.907825 60.28088 
L 831.90147 62.499889 
L 829.684091 111.096719 
L 830.694671 175.304812 
L 831.359418 226.492379 
L 831.36328 259.880555 
L 831.36337 278.915617 
L 831.725053 289.058853 
L 835.859026 293.9236 
L 846.918658 295.729078 
L 863.551835 295.929186 
L 882.86387 295.340987 
L 902.750477 294.384179 
L 922.06644 293.276181 
L 940.239079 292.134864 
L 957.016868 291.024218 
L 972.253958 289.982687 
L 985.871178 289.032946 
L 997.834035 288.187752 
L 1008.130179 287.454199 
L 1016.751153 286.836644 
L 1023.695314 286.337467 
L 1029.008651 285.954688 
L 1032.895782 285.674264 
L 1035.655554 285.474977 
L 1037.581703 285.335786 
L 1038.91424 285.239438 
L 1039.831396 285.173092 
L 1040.460644 285.127556 
L 1040.890129 285.096466 
L 1041.181967 285.075336 
L 1041.378592 285.061096 
L 1041.510343 285.051554 
L 1041.598396 285.045176 
L 1041.657077 285.040925 
L 1041.696402 285.038076 
L 1041.724457 285.036044 
L 1041.764406 285.033144 
L 1042.024812 285.014221 
L 1043.119108 284.934692 
L 1045.863875 284.735209 
L 1050.803131 284.376235 
L 1057.885563 283.861499 
L 1066.57167 283.230211 
L 1076.111731 282.53686 
L 1085.768159 281.835051 
L 1094.934439 281.168865 
L 1102.186878 262.16847 
L 1104.980432 235.159912 
L 1105.086345 205.297816 
L 1104.815224 174.079927 
L 1101.154919 143.777854 
L 1092.461992 116.578117 
L 1080.212892 93.180336 
L 1065.728616 73.74739 
L 1049.936114 58.188954 
L 1033.535913 46.225025 
L 1017.070752 37.449206 
L 1000.953561 31.389788 
L 985.48575 27.559474 
L 970.873527 25.491705 
L 957.242805 24.765455 
L 944.64917 25.024705 
L 933.101278 25.973962 
L 922.567388 27.384032 
L 912.983696 29.09118 
L 904.277624 30.972246 
L 896.365981 32.947171 
L 889.162746 34.967988 
L 882.583209 37.011029 
L 876.549253 39.066524 
L 870.994308 41.127734 
L 865.863176 43.187411 
L 861.098278 45.256335 
L 856.653425 47.340004 
L 852.488039 49.445313 
L 848.571717 51.571086 
L 844.877534 53.717365 
L 841.382734 55.883105 
L 838.065238 58.07128 
L 834.911174 60.274892 
L 831.901843 62.499213 
L 829.685196 111.095084 
L 830.696803 175.302691 
L 831.363171 226.490073 
L 831.367051 259.879162 
" clip-path="url(#pf0c703724f)" style="fill: none; stroke: #1f77b4; stroke-width: 1.5; stroke-linecap: square"/>
   </g>
   <g id="line2d_126">
    <path d="M 991.965751 286.68556 
L 1000.066042 286.097086 
L 1008.14504 285.510081 
L 1016.160593 284.927635 
L 1024.075858 284.352444 
L 1031.859697 283.786782 
L 1039.489272 283.232316 
L 1046.944235 282.69053 
L 1054.205178 282.162838 
L 1061.259403 281.650164 
L 1068.098814 281.153099 
L 1074.717009 280.672109 
L 1081.11063 280.207439 
L 1087.280817 279.759006 
L 1093.226302 279.326903 
L 1098.95091 278.910853 
L 1104.453642 278.510927 
L 1109.683626 278.130824 
L 1114.541711 277.777749 
L 1118.995637 277.454048 
L 1123.048712 277.159479 
L 1126.365909 276.918393 
L 1125.595678 276.974372 
L 1117.69555 277.548537 
L 1104.129747 278.534472 
L 1087.859836 279.716935 
L 1071.013986 280.941256 
L 1054.736667 282.124258 
L 1039.588288 283.225211 
L 1025.80285 284.227108 
L 1013.508137 285.120662 
L 1002.765509 285.901414 
L 993.592392 286.568097 
L 985.985271 287.120967 
L 979.937545 287.560503 
L 975.438762 287.887466 
L 972.43084 288.106075 
L 970.699994 288.231869 
L 969.943059 288.286882 
L 969.866623 288.292437 
L 970.234843 288.265676 
L 970.876214 288.219062 
L 971.671506 288.161262 
L 972.541615 288.098024 
L 973.433673 288.033191 
L 974.314373 287.969184 
L 975.162149 287.907569 
L 975.964147 287.849282 
L 976.710144 287.795064 
L 977.284833 286.397473 
L 977.492221 284.602572 
L 977.314088 282.830762 
L 976.590578 281.219221 
L 974.775854 279.868917 
L 971.135182 278.876406 
L 965.216246 278.302587 
L 957.159763 278.138911 
L 947.579515 278.314822 
L 937.276743 278.727845 
L 927.01553 279.271486 
L 917.404804 279.852793 
L 909.849173 280.277964 
L 906.839192 281.329571 
L 907.154104 285.628181 
L 908.294437 288.819505 
L 909.84604 290.63657 
L 911.639123 291.508124 
L 913.735239 291.853774 
L 916.31396 291.913697 
L 919.537141 291.804574 
L 923.488093 291.582411 
L 928.173859 291.276584 
L 933.550818 290.904887 
L 939.547785 290.47982 
L 946.081603 290.0112 
L 953.065804 289.507305 
L 960.415986 288.975352 
L 968.051977 288.42177 
L 975.899313 287.852314 
L 983.891304 287.272031 
L 991.965935 286.685546 
L 1000.067983 286.096945 
L 1008.148819 285.509807 
L 1016.16468 284.927338 
L 1024.079077 284.35221 
L 1031.863054 283.786538 
L 1039.493385 283.232017 
L 1046.947174 282.690316 
L 1054.207651 282.162658 
L 1061.26111 281.65004 
L 1068.099627 281.15304 
L 1074.717533 280.672071 
L 1081.112031 280.207337 
L 1087.28069 279.759015 
L 1093.226542 279.326886 
L 1098.948479 278.911029 
L 1104.450159 278.51118 
L 1109.680275 278.131067 
L 1114.538471 277.777985 
L 1118.992489 277.454277 
" clip-path="url(#pf0c703724f)" style="fill: none; stroke: #ff7f0e; stroke-width: 1.5; stroke-linecap: square"/>
   </g>
   <g id="line2d_127">
    <path d="M 952.255597 238.628424 
L 942.662256 239.273833 
L 933.643605 239.995682 
L 925.174383 240.773679 
L 917.228899 241.590413 
L 909.778531 242.43196 
L 902.795057 243.286717 
L 896.248279 244.145972 
L 890.104786 245.004195 
L 884.332551 245.85739 
L 878.901295 246.702763 
L 873.782408 247.538541 
L 868.948838 248.363837 
L 864.378869 249.177127 
L 860.049181 249.978543 
L 855.944149 250.766391 
L 852.204665 262.129304 
L 850.01589 277.195424 
L 849.10362 288.628416 
L 848.757966 295.89798 
L 848.709498 300.017754 
L 848.761825 302.220039 
L 849.271758 303.349869 
L 850.906945 303.884399 
L 854.193492 304.074545 
L 859.339831 304.051808 
L 866.264649 303.889391 
L 874.695998 303.632661 
L 884.267679 303.313108 
L 894.586335 302.954554 
L 905.292727 302.57518 
L 916.078715 302.189017 
L 926.690519 301.806891 
L 936.927449 301.437022 
L 946.631806 301.085683 
L 955.692643 300.757229 
L 964.019498 300.455141 
L 971.53894 300.182206 
L 978.196398 299.940478 
L 983.974181 299.730643 
L 988.903927 299.55158 
L 993.053476 299.40084 
L 996.508924 299.275304 
L 999.3607 299.171694 
L 1001.693719 299.086928 
L 1003.583624 299.018259 
L 1005.097503 298.963252 
L 1006.295585 298.919719 
L 1007.232101 298.885689 
L 1007.959333 298.859264 
L 1008.543037 298.838054 
L 1009.119574 298.817104 
L 1010.03149 298.783966 
L 1011.949044 298.714284 
L 1015.67653 298.578832 
L 1021.804292 298.356155 
L 1030.487473 298.040618 
L 1041.480394 297.641146 
L 1054.275472 297.176187 
L 1068.240871 296.668698 
L 1082.724587 296.142375 
L 1097.015423 292.125242 
L 1109.551651 286.387053 
L 1118.45568 279.96497 
L 1122.134018 273.448098 
L 1121.922265 267.112575 
L 1119.406315 261.066906 
L 1113.492905 255.633293 
L 1104.106784 251.017637 
L 1092.128738 247.250824 
L 1078.635968 244.25912 
L 1064.474448 241.938258 
L 1050.190593 240.189653 
L 1036.113285 238.927752 
L 1022.433236 238.079488 
L 1009.25885 237.581787 
L 996.648192 237.379905 
L 984.63423 237.424634 
L 973.231049 237.672464 
L 962.438405 238.085517 
L 952.250944 238.629719 
L 942.655897 239.275655 
L 933.634843 239.998261 
L 925.165619 240.776325 
L 917.220879 241.592891 
L 909.7714 242.434213 
L 902.789877 243.288387 
L 896.243522 244.147535 
L 890.099924 245.005821 
L 884.327317 245.859171 
L 878.895666 246.704708 
L 873.776332 247.540672 
L 868.943756 248.365646 
L 864.372561 249.179402 
L 860.044251 249.980344 
L 855.936983 250.76904 
L 852.197698 262.131437 
L 850.008885 277.196918 
L 849.096787 288.629374 
L 848.751175 295.898613 
" clip-path="url(#pf0c703724f)" style="fill: none; stroke: #2ca02c; stroke-width: 1.5; stroke-linecap: square"/>
   </g>
   <g id="line2d_128">
    <path d="M 893.168435 302.046956 
L 897.81161 301.878433 
L 902.502671 301.708101 
L 907.228851 301.536448 
L 911.979152 301.363889 
L 916.743985 301.190783 
L 921.515956 301.017405 
L 926.288176 300.844008 
L 931.053757 300.670847 
L 935.807439 300.498114 
L 940.544903 300.325967 
L 945.26214 300.154553 
L 949.955774 299.983995 
L 954.623276 299.814386 
L 959.261668 299.645834 
L 963.869003 299.47841 
L 968.440628 299.312283 
L 972.937766 299.148862 
L 977.331416 298.989203 
L 981.640753 298.832606 
L 985.870452 298.678904 
L 989.967238 298.530031 
L 993.53252 298.400473 
L 995.898269 298.314504 
L 996.540707 298.291159 
L 995.254067 298.337914 
L 992.122325 298.451718 
L 987.419902 298.6226 
L 981.515188 298.837171 
L 974.803387 299.081071 
L 967.645269 299.341189 
L 960.35023 299.606284 
L 953.173067 299.867094 
L 946.315296 300.116299 
L 939.935124 300.348147 
L 934.144411 300.558576 
L 929.033913 300.744286 
L 924.677481 300.902594 
L 921.130036 301.031505 
L 918.409587 301.130363 
L 916.484812 301.200307 
L 915.288223 301.24379 
L 914.734126 301.263926 
L 914.732552 301.263983 
L 915.199107 301.247029 
L 916.05872 301.215791 
L 917.244919 301.172686 
L 918.698126 301.119878 
L 920.364408 301.059327 
L 922.180381 299.631501 
L 924.059007 297.75436 
L 925.861717 295.846222 
L 927.248266 294.048386 
L 927.553139 292.456635 
L 925.978576 291.157323 
L 921.94229 290.217202 
L 915.298061 289.665098 
L 906.300487 289.488942 
L 895.465327 289.644161 
L 883.431303 290.065588 
L 870.855669 290.678644 
L 858.453188 291.39755 
L 847.789027 293.076668 
L 840.797934 297.573283 
L 839.068683 300.578662 
L 840.798292 302.188495 
L 842.894547 302.983013 
L 845.15559 303.335789 
L 847.619631 303.463365 
L 850.310551 303.475947 
L 853.239237 303.427059 
L 856.406222 303.342793 
L 859.803981 303.236277 
L 863.419038 303.114479 
L 867.233854 302.981383 
L 871.228368 302.839495 
L 875.381267 302.690555 
L 879.671158 302.535878 
L 884.077226 302.376525 
L 888.580161 302.213377 
L 893.161854 302.047195 
L 897.805958 301.878638 
L 902.497967 301.708272 
L 907.224771 301.536596 
L 911.975317 301.364029 
L 916.740601 301.190906 
L 921.513194 301.017505 
L 926.285453 300.844107 
L 931.051215 300.670939 
L 935.804966 300.498203 
L 940.54246 300.326055 
L 945.259867 300.154635 
L 949.953887 299.984064 
L 954.621305 299.814458 
L 959.259994 299.645895 
L 963.867038 299.478481 
L 968.438665 299.312354 
L 972.935979 299.148927 
L 977.329772 298.989262 
L 981.63924 298.832661 
" clip-path="url(#pf0c703724f)" style="fill: none; stroke: #d62728; stroke-width: 1.5; stroke-linecap: square"/>
   </g>
   <g id="patch_15">
    <path d="M 814.85 318.04 
L 814.85 10.8 
" style="fill: none; stroke: #000000; stroke-width: 0.8; stroke-linejoin: miter; stroke-linecap: square"/>
   </g>
   <g id="patch_16">
    <path d="M 1141.2 318.04 
L 1141.2 10.8 
" style="fill: none; stroke: #000000; stroke-width: 0.8; stroke-linejoin: miter; stroke-linecap: square"/>
   </g>
   <g id="patch_17">
    <path d="M 814.85 318.04 
L 1141.2 318.04 
" style="fill: none; stroke: #000000; stroke-width: 0.8; stroke-linejoin: miter; stroke-linecap: square"/>
   </g>
   <g id="patch_18">
    <path d="M 814.85 10.8 
L 1141.2 10.8 
" style="fill: none; stroke: #000000; stroke-width: 0.8; stroke-linejoin: miter; stroke-linecap: square"/>
   </g>
   <g id="legend_3">
    <g id="patch_19">
     <path d="M 1088.810937 77.5125 
L 1134.2 77.5125 
Q 1136.2 77.5125 1136.2 75.5125 
L 1136.2 17.8 
Q 1136.2 15.8 1134.2 15.8 
L 1088.810937 15.8 
Q 1086.810937 15.8 1086.810937 17.8 
L 1086.810937 75.5125 
Q 1086.810937 77.5125 1088.810937 77.5125 
z
" style="fill: #ffffff; opacity: 0.8; stroke: #cccccc; stroke-linejoin: miter"/>
    </g>
    <g id="line2d_129">
     <path d="M 1090.810937 23.898438 
L 1100.810937 23.898438 
L 1110.810937 23.898438 
" style="fill: none; stroke: #1f77b4; stroke-width: 1.5; stroke-linecap: square"/>
    </g>
    <g id="text_69">
     <!-- LV -->
     <g transform="translate(1118.810937 27.398438) scale(0.1 -0.1)">
      <use xlink:href="#DejaVuSans-4c"/>
      <use xlink:href="#DejaVuSans-56" x="44.712891"/>
     </g>
    </g>
    <g id="line2d_130">
     <path d="M 1090.810937 38.576563 
L 1100.810937 38.576563 
L 1110.810937 38.576563 
" style="fill: none; stroke: #ff7f0e; stroke-width: 1.5; stroke-linecap: square"/>
    </g>
    <g id="text_70">
     <!-- LA -->
     <g transform="translate(1118.810937 42.076563) scale(0.1 -0.1)">
      <use xlink:href="#DejaVuSans-4c"/>
      <use xlink:href="#DejaVuSans-41" x="57.962891"/>
     </g>
    </g>
    <g id="line2d_131">
     <path d="M 1090.810937 53.254687 
L 1100.810937 53.254687 
L 1110.810937 53.254687 
" style="fill: none; stroke: #2ca02c; stroke-width: 1.5; stroke-linecap: square"/>
    </g>
    <g id="text_71">
     <!-- RV -->
     <g transform="translate(1118.810937 56.754687) scale(0.1 -0.1)">
      <use xlink:href="#DejaVuSans-52"/>
      <use xlink:href="#DejaVuSans-56" x="63.982422"/>
     </g>
    </g>
    <g id="line2d_132">
     <path d="M 1090.810937 67.932813 
L 1100.810937 67.932813 
L 1110.810937 67.932813 
" style="fill: none; stroke: #d62728; stroke-width: 1.5; stroke-linecap: square"/>
    </g>
    <g id="text_72">
     <!-- RA -->
     <g transform="translate(1118.810937 71.432813) scale(0.1 -0.1)">
      <use xlink:href="#DejaVuSans-52"/>
      <use xlink:href="#DejaVuSans-41" x="65.482422"/>
     </g>
    </g>
   </g>
  </g>
 </g>
 <defs>
  <clipPath id="pbb96891873">
   <rect x="50.96" y="10.8" width="326.35" height="307.24"/>
  </clipPath>
  <clipPath id="pd214cf5235">
   <rect x="432.905" y="10.8" width="326.35" height="307.24"/>
  </clipPath>
  <clipPath id="pf0c703724f">
   <rect x="814.85" y="10.8" width="326.35" height="307.24"/>
  </clipPath>
 </defs>
</svg>
