<?xml version="1.0" encoding="utf-8" standalone="no"?>
<!DOCTYPE svg PUBLIC "-//W3C//DTD SVG 1.1//EN"
  "http://www.w3.org/Graphics/SVG/1.1/DTD/svg11.dtd">
<svg xmlns:xlink="http://www.w3.org/1999/xlink" width="1152pt" height="360pt" viewBox="0 0 1152 360" xmlns="http://www.w3.org/2000/svg" version="1.1">
 <metadata>
  <rdf:RDF xmlns:dc="http://purl.org/dc/elements/1.1/" xmlns:cc="http://creativecommons.org/ns#" xmlns:rdf="http://www.w3.org/1999/02/22-rdf-syntax-ns#">
   <cc:Work>
    <dc:type rdf:resource="http://purl.org/dc/dcmitype/StillImage"/>
    <dc:date>2024-07-17T11:55:14.361881</dc:date>
    <dc:format>image/svg+xml</dc:format>
    <dc:creator>
     <cc:Agent>
      <dc:title>Matplotlib v3.6.2, https://matplotlib.org/</dc:title>
     </cc:Agent>
    </dc:creator>
   </cc:Work>
  </rdf:RDF>
 </metadata>
 <defs>
  <style type="text/css">*{stroke-linejoin: round; stroke-linecap: butt}</style>
 </defs>
 <g id="figure_1">
  <g id="patch_1">
   <path d="M 0 360 
L 1152 360 
L 1152 0 
L 0 0 
z
" style="fill: #ffffff"/>
  </g>
  <g id="axes_1">
   <g id="patch_2">
    <path d="M 50.96 318.04 
L 384.66 318.04 
L 384.66 10.8 
L 50.96 10.8 
z
" style="fill: #ffffff"/>
   </g>
   <g id="matplotlib.axis_1">
    <g id="xtick_1">
     <g id="line2d_1">
      <path d="M 71.81625 318.04 
L 71.81625 10.8 
" clip-path="url(#p98842b54a5)" style="fill: none; stroke: #b0b0b0; stroke-width: 0.8; stroke-linecap: square"/>
     </g>
     <g id="line2d_2">
      <defs>
       <path id="mf2bc4af843" d="M 0 0 
L 0 3.5 
" style="stroke: #000000; stroke-width: 0.8"/>
      </defs>
      <g>
       <use xlink:href="#mf2bc4af843" x="71.81625" y="318.04" style="stroke: #000000; stroke-width: 0.8"/>
      </g>
     </g>
     <g id="text_1">
      <!-- 8.6 -->
      <g transform="translate(63.864687 332.638438) scale(0.1 -0.1)">
       <defs>
        <path id="DejaVuSans-38" d="M 2034 2216 
Q 1584 2216 1326 1975 
Q 1069 1734 1069 1313 
Q 1069 891 1326 650 
Q 1584 409 2034 409 
Q 2484 409 2743 651 
Q 3003 894 3003 1313 
Q 3003 1734 2745 1975 
Q 2488 2216 2034 2216 
z
M 1403 2484 
Q 997 2584 770 2862 
Q 544 3141 544 3541 
Q 544 4100 942 4425 
Q 1341 4750 2034 4750 
Q 2731 4750 3128 4425 
Q 3525 4100 3525 3541 
Q 3525 3141 3298 2862 
Q 3072 2584 2669 2484 
Q 3125 2378 3379 2068 
Q 3634 1759 3634 1313 
Q 3634 634 3220 271 
Q 2806 -91 2034 -91 
Q 1263 -91 848 271 
Q 434 634 434 1313 
Q 434 1759 690 2068 
Q 947 2378 1403 2484 
z
M 1172 3481 
Q 1172 3119 1398 2916 
Q 1625 2713 2034 2713 
Q 2441 2713 2670 2916 
Q 2900 3119 2900 3481 
Q 2900 3844 2670 4047 
Q 2441 4250 2034 4250 
Q 1625 4250 1398 4047 
Q 1172 3844 1172 3481 
z
" transform="scale(0.015625)"/>
        <path id="DejaVuSans-2e" d="M 684 794 
L 1344 794 
L 1344 0 
L 684 0 
L 684 794 
z
" transform="scale(0.015625)"/>
        <path id="DejaVuSans-36" d="M 2113 2584 
Q 1688 2584 1439 2293 
Q 1191 2003 1191 1497 
Q 1191 994 1439 701 
Q 1688 409 2113 409 
Q 2538 409 2786 701 
Q 3034 994 3034 1497 
Q 3034 2003 2786 2293 
Q 2538 2584 2113 2584 
z
M 3366 4563 
L 3366 3988 
Q 3128 4100 2886 4159 
Q 2644 4219 2406 4219 
Q 1781 4219 1451 3797 
Q 1122 3375 1075 2522 
Q 1259 2794 1537 2939 
Q 1816 3084 2150 3084 
Q 2853 3084 3261 2657 
Q 3669 2231 3669 1497 
Q 3669 778 3244 343 
Q 2819 -91 2113 -91 
Q 1303 -91 875 529 
Q 447 1150 447 2328 
Q 447 3434 972 4092 
Q 1497 4750 2381 4750 
Q 2619 4750 2861 4703 
Q 3103 4656 3366 4563 
z
" transform="scale(0.015625)"/>
       </defs>
       <use xlink:href="#DejaVuSans-38"/>
       <use xlink:href="#DejaVuSans-2e" x="63.623047"/>
       <use xlink:href="#DejaVuSans-36" x="95.410156"/>
      </g>
     </g>
    </g>
    <g id="xtick_2">
     <g id="line2d_3">
      <path d="M 113.52875 318.04 
L 113.52875 10.8 
" clip-path="url(#p98842b54a5)" style="fill: none; stroke: #b0b0b0; stroke-width: 0.8; stroke-linecap: square"/>
     </g>
     <g id="line2d_4">
      <g>
       <use xlink:href="#mf2bc4af843" x="113.52875" y="318.04" style="stroke: #000000; stroke-width: 0.8"/>
      </g>
     </g>
     <g id="text_2">
      <!-- 8.7 -->
      <g transform="translate(105.577187 332.638438) scale(0.1 -0.1)">
       <defs>
        <path id="DejaVuSans-37" d="M 525 4666 
L 3525 4666 
L 3525 4397 
L 1831 0 
L 1172 0 
L 2766 4134 
L 525 4134 
L 525 4666 
z
" transform="scale(0.015625)"/>
       </defs>
       <use xlink:href="#DejaVuSans-38"/>
       <use xlink:href="#DejaVuSans-2e" x="63.623047"/>
       <use xlink:href="#DejaVuSans-37" x="95.410156"/>
      </g>
     </g>
    </g>
    <g id="xtick_3">
     <g id="line2d_5">
      <path d="M 155.24125 318.04 
L 155.24125 10.8 
" clip-path="url(#p98842b54a5)" style="fill: none; stroke: #b0b0b0; stroke-width: 0.8; stroke-linecap: square"/>
     </g>
     <g id="line2d_6">
      <g>
       <use xlink:href="#mf2bc4af843" x="155.24125" y="318.04" style="stroke: #000000; stroke-width: 0.8"/>
      </g>
     </g>
     <g id="text_3">
      <!-- 8.8 -->
      <g transform="translate(147.289688 332.638438) scale(0.1 -0.1)">
       <use xlink:href="#DejaVuSans-38"/>
       <use xlink:href="#DejaVuSans-2e" x="63.623047"/>
       <use xlink:href="#DejaVuSans-38" x="95.410156"/>
      </g>
     </g>
    </g>
    <g id="xtick_4">
     <g id="line2d_7">
      <path d="M 196.95375 318.04 
L 196.95375 10.8 
" clip-path="url(#p98842b54a5)" style="fill: none; stroke: #b0b0b0; stroke-width: 0.8; stroke-linecap: square"/>
     </g>
     <g id="line2d_8">
      <g>
       <use xlink:href="#mf2bc4af843" x="196.95375" y="318.04" style="stroke: #000000; stroke-width: 0.8"/>
      </g>
     </g>
     <g id="text_4">
      <!-- 8.9 -->
      <g transform="translate(189.002187 332.638438) scale(0.1 -0.1)">
       <defs>
        <path id="DejaVuSans-39" d="M 703 97 
L 703 672 
Q 941 559 1184 500 
Q 1428 441 1663 441 
Q 2288 441 2617 861 
Q 2947 1281 2994 2138 
Q 2813 1869 2534 1725 
Q 2256 1581 1919 1581 
Q 1219 1581 811 2004 
Q 403 2428 403 3163 
Q 403 3881 828 4315 
Q 1253 4750 1959 4750 
Q 2769 4750 3195 4129 
Q 3622 3509 3622 2328 
Q 3622 1225 3098 567 
Q 2575 -91 1691 -91 
Q 1453 -91 1209 -44 
Q 966 3 703 97 
z
M 1959 2075 
Q 2384 2075 2632 2365 
Q 2881 2656 2881 3163 
Q 2881 3666 2632 3958 
Q 2384 4250 1959 4250 
Q 1534 4250 1286 3958 
Q 1038 3666 1038 3163 
Q 1038 2656 1286 2365 
Q 1534 2075 1959 2075 
z
" transform="scale(0.015625)"/>
       </defs>
       <use xlink:href="#DejaVuSans-38"/>
       <use xlink:href="#DejaVuSans-2e" x="63.623047"/>
       <use xlink:href="#DejaVuSans-39" x="95.410156"/>
      </g>
     </g>
    </g>
    <g id="xtick_5">
     <g id="line2d_9">
      <path d="M 238.66625 318.04 
L 238.66625 10.8 
" clip-path="url(#p98842b54a5)" style="fill: none; stroke: #b0b0b0; stroke-width: 0.8; stroke-linecap: square"/>
     </g>
     <g id="line2d_10">
      <g>
       <use xlink:href="#mf2bc4af843" x="238.66625" y="318.04" style="stroke: #000000; stroke-width: 0.8"/>
      </g>
     </g>
     <g id="text_5">
      <!-- 9.0 -->
      <g transform="translate(230.714687 332.638438) scale(0.1 -0.1)">
       <defs>
        <path id="DejaVuSans-30" d="M 2034 4250 
Q 1547 4250 1301 3770 
Q 1056 3291 1056 2328 
Q 1056 1369 1301 889 
Q 1547 409 2034 409 
Q 2525 409 2770 889 
Q 3016 1369 3016 2328 
Q 3016 3291 2770 3770 
Q 2525 4250 2034 4250 
z
M 2034 4750 
Q 2819 4750 3233 4129 
Q 3647 3509 3647 2328 
Q 3647 1150 3233 529 
Q 2819 -91 2034 -91 
Q 1250 -91 836 529 
Q 422 1150 422 2328 
Q 422 3509 836 4129 
Q 1250 4750 2034 4750 
z
" transform="scale(0.015625)"/>
       </defs>
       <use xlink:href="#DejaVuSans-39"/>
       <use xlink:href="#DejaVuSans-2e" x="63.623047"/>
       <use xlink:href="#DejaVuSans-30" x="95.410156"/>
      </g>
     </g>
    </g>
    <g id="xtick_6">
     <g id="line2d_11">
      <path d="M 280.37875 318.04 
L 280.37875 10.8 
" clip-path="url(#p98842b54a5)" style="fill: none; stroke: #b0b0b0; stroke-width: 0.8; stroke-linecap: square"/>
     </g>
     <g id="line2d_12">
      <g>
       <use xlink:href="#mf2bc4af843" x="280.37875" y="318.04" style="stroke: #000000; stroke-width: 0.8"/>
      </g>
     </g>
     <g id="text_6">
      <!-- 9.1 -->
      <g transform="translate(272.427187 332.638438) scale(0.1 -0.1)">
       <defs>
        <path id="DejaVuSans-31" d="M 794 531 
L 1825 531 
L 1825 4091 
L 703 3866 
L 703 4441 
L 1819 4666 
L 2450 4666 
L 2450 531 
L 3481 531 
L 3481 0 
L 794 0 
L 794 531 
z
" transform="scale(0.015625)"/>
       </defs>
       <use xlink:href="#DejaVuSans-39"/>
       <use xlink:href="#DejaVuSans-2e" x="63.623047"/>
       <use xlink:href="#DejaVuSans-31" x="95.410156"/>
      </g>
     </g>
    </g>
    <g id="xtick_7">
     <g id="line2d_13">
      <path d="M 322.09125 318.04 
L 322.09125 10.8 
" clip-path="url(#p98842b54a5)" style="fill: none; stroke: #b0b0b0; stroke-width: 0.8; stroke-linecap: square"/>
     </g>
     <g id="line2d_14">
      <g>
       <use xlink:href="#mf2bc4af843" x="322.09125" y="318.04" style="stroke: #000000; stroke-width: 0.8"/>
      </g>
     </g>
     <g id="text_7">
      <!-- 9.2 -->
      <g transform="translate(314.139687 332.638438) scale(0.1 -0.1)">
       <defs>
        <path id="DejaVuSans-32" d="M 1228 531 
L 3431 531 
L 3431 0 
L 469 0 
L 469 531 
Q 828 903 1448 1529 
Q 2069 2156 2228 2338 
Q 2531 2678 2651 2914 
Q 2772 3150 2772 3378 
Q 2772 3750 2511 3984 
Q 2250 4219 1831 4219 
Q 1534 4219 1204 4116 
Q 875 4013 500 3803 
L 500 4441 
Q 881 4594 1212 4672 
Q 1544 4750 1819 4750 
Q 2544 4750 2975 4387 
Q 3406 4025 3406 3419 
Q 3406 3131 3298 2873 
Q 3191 2616 2906 2266 
Q 2828 2175 2409 1742 
Q 1991 1309 1228 531 
z
" transform="scale(0.015625)"/>
       </defs>
       <use xlink:href="#DejaVuSans-39"/>
       <use xlink:href="#DejaVuSans-2e" x="63.623047"/>
       <use xlink:href="#DejaVuSans-32" x="95.410156"/>
      </g>
     </g>
    </g>
    <g id="xtick_8">
     <g id="line2d_15">
      <path d="M 363.80375 318.04 
L 363.80375 10.8 
" clip-path="url(#p98842b54a5)" style="fill: none; stroke: #b0b0b0; stroke-width: 0.8; stroke-linecap: square"/>
     </g>
     <g id="line2d_16">
      <g>
       <use xlink:href="#mf2bc4af843" x="363.80375" y="318.04" style="stroke: #000000; stroke-width: 0.8"/>
      </g>
     </g>
     <g id="text_8">
      <!-- 9.3 -->
      <g transform="translate(355.852188 332.638438) scale(0.1 -0.1)">
       <defs>
        <path id="DejaVuSans-33" d="M 2597 2516 
Q 3050 2419 3304 2112 
Q 3559 1806 3559 1356 
Q 3559 666 3084 287 
Q 2609 -91 1734 -91 
Q 1441 -91 1130 -33 
Q 819 25 488 141 
L 488 750 
Q 750 597 1062 519 
Q 1375 441 1716 441 
Q 2309 441 2620 675 
Q 2931 909 2931 1356 
Q 2931 1769 2642 2001 
Q 2353 2234 1838 2234 
L 1294 2234 
L 1294 2753 
L 1863 2753 
Q 2328 2753 2575 2939 
Q 2822 3125 2822 3475 
Q 2822 3834 2567 4026 
Q 2313 4219 1838 4219 
Q 1578 4219 1281 4162 
Q 984 4106 628 3988 
L 628 4550 
Q 988 4650 1302 4700 
Q 1616 4750 1894 4750 
Q 2613 4750 3031 4423 
Q 3450 4097 3450 3541 
Q 3450 3153 3228 2886 
Q 3006 2619 2597 2516 
z
" transform="scale(0.015625)"/>
       </defs>
       <use xlink:href="#DejaVuSans-39"/>
       <use xlink:href="#DejaVuSans-2e" x="63.623047"/>
       <use xlink:href="#DejaVuSans-33" x="95.410156"/>
      </g>
     </g>
    </g>
    <g id="text_9">
     <!-- Time(s) -->
     <g transform="translate(199.070156 346.316563) scale(0.1 -0.1)">
      <defs>
       <path id="DejaVuSans-54" d="M -19 4666 
L 3928 4666 
L 3928 4134 
L 2272 4134 
L 2272 0 
L 1638 0 
L 1638 4134 
L -19 4134 
L -19 4666 
z
" transform="scale(0.015625)"/>
       <path id="DejaVuSans-69" d="M 603 3500 
L 1178 3500 
L 1178 0 
L 603 0 
L 603 3500 
z
M 603 4863 
L 1178 4863 
L 1178 4134 
L 603 4134 
L 603 4863 
z
" transform="scale(0.015625)"/>
       <path id="DejaVuSans-6d" d="M 3328 2828 
Q 3544 3216 3844 3400 
Q 4144 3584 4550 3584 
Q 5097 3584 5394 3201 
Q 5691 2819 5691 2113 
L 5691 0 
L 5113 0 
L 5113 2094 
Q 5113 2597 4934 2840 
Q 4756 3084 4391 3084 
Q 3944 3084 3684 2787 
Q 3425 2491 3425 1978 
L 3425 0 
L 2847 0 
L 2847 2094 
Q 2847 2600 2669 2842 
Q 2491 3084 2119 3084 
Q 1678 3084 1418 2786 
Q 1159 2488 1159 1978 
L 1159 0 
L 581 0 
L 581 3500 
L 1159 3500 
L 1159 2956 
Q 1356 3278 1631 3431 
Q 1906 3584 2284 3584 
Q 2666 3584 2933 3390 
Q 3200 3197 3328 2828 
z
" transform="scale(0.015625)"/>
       <path id="DejaVuSans-65" d="M 3597 1894 
L 3597 1613 
L 953 1613 
Q 991 1019 1311 708 
Q 1631 397 2203 397 
Q 2534 397 2845 478 
Q 3156 559 3463 722 
L 3463 178 
Q 3153 47 2828 -22 
Q 2503 -91 2169 -91 
Q 1331 -91 842 396 
Q 353 884 353 1716 
Q 353 2575 817 3079 
Q 1281 3584 2069 3584 
Q 2775 3584 3186 3129 
Q 3597 2675 3597 1894 
z
M 3022 2063 
Q 3016 2534 2758 2815 
Q 2500 3097 2075 3097 
Q 1594 3097 1305 2825 
Q 1016 2553 972 2059 
L 3022 2063 
z
" transform="scale(0.015625)"/>
       <path id="DejaVuSans-28" d="M 1984 4856 
Q 1566 4138 1362 3434 
Q 1159 2731 1159 2009 
Q 1159 1288 1364 580 
Q 1569 -128 1984 -844 
L 1484 -844 
Q 1016 -109 783 600 
Q 550 1309 550 2009 
Q 550 2706 781 3412 
Q 1013 4119 1484 4856 
L 1984 4856 
z
" transform="scale(0.015625)"/>
       <path id="DejaVuSans-73" d="M 2834 3397 
L 2834 2853 
Q 2591 2978 2328 3040 
Q 2066 3103 1784 3103 
Q 1356 3103 1142 2972 
Q 928 2841 928 2578 
Q 928 2378 1081 2264 
Q 1234 2150 1697 2047 
L 1894 2003 
Q 2506 1872 2764 1633 
Q 3022 1394 3022 966 
Q 3022 478 2636 193 
Q 2250 -91 1575 -91 
Q 1294 -91 989 -36 
Q 684 19 347 128 
L 347 722 
Q 666 556 975 473 
Q 1284 391 1588 391 
Q 1994 391 2212 530 
Q 2431 669 2431 922 
Q 2431 1156 2273 1281 
Q 2116 1406 1581 1522 
L 1381 1569 
Q 847 1681 609 1914 
Q 372 2147 372 2553 
Q 372 3047 722 3315 
Q 1072 3584 1716 3584 
Q 2034 3584 2315 3537 
Q 2597 3491 2834 3397 
z
" transform="scale(0.015625)"/>
       <path id="DejaVuSans-29" d="M 513 4856 
L 1013 4856 
Q 1481 4119 1714 3412 
Q 1947 2706 1947 2009 
Q 1947 1309 1714 600 
Q 1481 -109 1013 -844 
L 513 -844 
Q 928 -128 1133 580 
Q 1338 1288 1338 2009 
Q 1338 2731 1133 3434 
Q 928 4138 513 4856 
z
" transform="scale(0.015625)"/>
      </defs>
      <use xlink:href="#DejaVuSans-54"/>
      <use xlink:href="#DejaVuSans-69" x="57.958984"/>
      <use xlink:href="#DejaVuSans-6d" x="85.742188"/>
      <use xlink:href="#DejaVuSans-65" x="183.154297"/>
      <use xlink:href="#DejaVuSans-28" x="244.677734"/>
      <use xlink:href="#DejaVuSans-73" x="283.691406"/>
      <use xlink:href="#DejaVuSans-29" x="335.791016"/>
     </g>
    </g>
   </g>
   <g id="matplotlib.axis_2">
    <g id="ytick_1">
     <g id="line2d_17">
      <path d="M 50.96 300.108756 
L 384.66 300.108756 
" clip-path="url(#p98842b54a5)" style="fill: none; stroke: #b0b0b0; stroke-width: 0.8; stroke-linecap: square"/>
     </g>
     <g id="line2d_18">
      <defs>
       <path id="mea03ef2f8e" d="M 0 0 
L -3.5 0 
" style="stroke: #000000; stroke-width: 0.8"/>
      </defs>
      <g>
       <use xlink:href="#mea03ef2f8e" x="50.96" y="300.108756" style="stroke: #000000; stroke-width: 0.8"/>
      </g>
     </g>
     <g id="text_10">
      <!-- 20 -->
      <g transform="translate(31.235 303.907974) scale(0.1 -0.1)">
       <use xlink:href="#DejaVuSans-32"/>
       <use xlink:href="#DejaVuSans-30" x="63.623047"/>
      </g>
     </g>
    </g>
    <g id="ytick_2">
     <g id="line2d_19">
      <path d="M 50.96 265.76427 
L 384.66 265.76427 
" clip-path="url(#p98842b54a5)" style="fill: none; stroke: #b0b0b0; stroke-width: 0.8; stroke-linecap: square"/>
     </g>
     <g id="line2d_20">
      <g>
       <use xlink:href="#mea03ef2f8e" x="50.96" y="265.76427" style="stroke: #000000; stroke-width: 0.8"/>
      </g>
     </g>
     <g id="text_11">
      <!-- 40 -->
      <g transform="translate(31.235 269.563489) scale(0.1 -0.1)">
       <defs>
        <path id="DejaVuSans-34" d="M 2419 4116 
L 825 1625 
L 2419 1625 
L 2419 4116 
z
M 2253 4666 
L 3047 4666 
L 3047 1625 
L 3713 1625 
L 3713 1100 
L 3047 1100 
L 3047 0 
L 2419 0 
L 2419 1100 
L 313 1100 
L 313 1709 
L 2253 4666 
z
" transform="scale(0.015625)"/>
       </defs>
       <use xlink:href="#DejaVuSans-34"/>
       <use xlink:href="#DejaVuSans-30" x="63.623047"/>
      </g>
     </g>
    </g>
    <g id="ytick_3">
     <g id="line2d_21">
      <path d="M 50.96 231.419785 
L 384.66 231.419785 
" clip-path="url(#p98842b54a5)" style="fill: none; stroke: #b0b0b0; stroke-width: 0.8; stroke-linecap: square"/>
     </g>
     <g id="line2d_22">
      <g>
       <use xlink:href="#mea03ef2f8e" x="50.96" y="231.419785" style="stroke: #000000; stroke-width: 0.8"/>
      </g>
     </g>
     <g id="text_12">
      <!-- 60 -->
      <g transform="translate(31.235 235.219004) scale(0.1 -0.1)">
       <use xlink:href="#DejaVuSans-36"/>
       <use xlink:href="#DejaVuSans-30" x="63.623047"/>
      </g>
     </g>
    </g>
    <g id="ytick_4">
     <g id="line2d_23">
      <path d="M 50.96 197.075299 
L 384.66 197.075299 
" clip-path="url(#p98842b54a5)" style="fill: none; stroke: #b0b0b0; stroke-width: 0.8; stroke-linecap: square"/>
     </g>
     <g id="line2d_24">
      <g>
       <use xlink:href="#mea03ef2f8e" x="50.96" y="197.075299" style="stroke: #000000; stroke-width: 0.8"/>
      </g>
     </g>
     <g id="text_13">
      <!-- 80 -->
      <g transform="translate(31.235 200.874518) scale(0.1 -0.1)">
       <use xlink:href="#DejaVuSans-38"/>
       <use xlink:href="#DejaVuSans-30" x="63.623047"/>
      </g>
     </g>
    </g>
    <g id="ytick_5">
     <g id="line2d_25">
      <path d="M 50.96 162.730814 
L 384.66 162.730814 
" clip-path="url(#p98842b54a5)" style="fill: none; stroke: #b0b0b0; stroke-width: 0.8; stroke-linecap: square"/>
     </g>
     <g id="line2d_26">
      <g>
       <use xlink:href="#mea03ef2f8e" x="50.96" y="162.730814" style="stroke: #000000; stroke-width: 0.8"/>
      </g>
     </g>
     <g id="text_14">
      <!-- 100 -->
      <g transform="translate(24.8725 166.530033) scale(0.1 -0.1)">
       <use xlink:href="#DejaVuSans-31"/>
       <use xlink:href="#DejaVuSans-30" x="63.623047"/>
       <use xlink:href="#DejaVuSans-30" x="127.246094"/>
      </g>
     </g>
    </g>
    <g id="ytick_6">
     <g id="line2d_27">
      <path d="M 50.96 128.386329 
L 384.66 128.386329 
" clip-path="url(#p98842b54a5)" style="fill: none; stroke: #b0b0b0; stroke-width: 0.8; stroke-linecap: square"/>
     </g>
     <g id="line2d_28">
      <g>
       <use xlink:href="#mea03ef2f8e" x="50.96" y="128.386329" style="stroke: #000000; stroke-width: 0.8"/>
      </g>
     </g>
     <g id="text_15">
      <!-- 120 -->
      <g transform="translate(24.8725 132.185547) scale(0.1 -0.1)">
       <use xlink:href="#DejaVuSans-31"/>
       <use xlink:href="#DejaVuSans-32" x="63.623047"/>
       <use xlink:href="#DejaVuSans-30" x="127.246094"/>
      </g>
     </g>
    </g>
    <g id="ytick_7">
     <g id="line2d_29">
      <path d="M 50.96 94.041843 
L 384.66 94.041843 
" clip-path="url(#p98842b54a5)" style="fill: none; stroke: #b0b0b0; stroke-width: 0.8; stroke-linecap: square"/>
     </g>
     <g id="line2d_30">
      <g>
       <use xlink:href="#mea03ef2f8e" x="50.96" y="94.041843" style="stroke: #000000; stroke-width: 0.8"/>
      </g>
     </g>
     <g id="text_16">
      <!-- 140 -->
      <g transform="translate(24.8725 97.841062) scale(0.1 -0.1)">
       <use xlink:href="#DejaVuSans-31"/>
       <use xlink:href="#DejaVuSans-34" x="63.623047"/>
       <use xlink:href="#DejaVuSans-30" x="127.246094"/>
      </g>
     </g>
    </g>
    <g id="ytick_8">
     <g id="line2d_31">
      <path d="M 50.96 59.697358 
L 384.66 59.697358 
" clip-path="url(#p98842b54a5)" style="fill: none; stroke: #b0b0b0; stroke-width: 0.8; stroke-linecap: square"/>
     </g>
     <g id="line2d_32">
      <g>
       <use xlink:href="#mea03ef2f8e" x="50.96" y="59.697358" style="stroke: #000000; stroke-width: 0.8"/>
      </g>
     </g>
     <g id="text_17">
      <!-- 160 -->
      <g transform="translate(24.8725 63.496577) scale(0.1 -0.1)">
       <use xlink:href="#DejaVuSans-31"/>
       <use xlink:href="#DejaVuSans-36" x="63.623047"/>
       <use xlink:href="#DejaVuSans-30" x="127.246094"/>
      </g>
     </g>
    </g>
    <g id="ytick_9">
     <g id="line2d_33">
      <path d="M 50.96 25.352872 
L 384.66 25.352872 
" clip-path="url(#p98842b54a5)" style="fill: none; stroke: #b0b0b0; stroke-width: 0.8; stroke-linecap: square"/>
     </g>
     <g id="line2d_34">
      <g>
       <use xlink:href="#mea03ef2f8e" x="50.96" y="25.352872" style="stroke: #000000; stroke-width: 0.8"/>
      </g>
     </g>
     <g id="text_18">
      <!-- 180 -->
      <g transform="translate(24.8725 29.152091) scale(0.1 -0.1)">
       <use xlink:href="#DejaVuSans-31"/>
       <use xlink:href="#DejaVuSans-38" x="63.623047"/>
       <use xlink:href="#DejaVuSans-30" x="127.246094"/>
      </g>
     </g>
    </g>
    <g id="text_19">
     <!-- Volume(ml) -->
     <g transform="translate(18.792812 193.177813) rotate(-90) scale(0.1 -0.1)">
      <defs>
       <path id="DejaVuSans-56" d="M 1831 0 
L 50 4666 
L 709 4666 
L 2188 738 
L 3669 4666 
L 4325 4666 
L 2547 0 
L 1831 0 
z
" transform="scale(0.015625)"/>
       <path id="DejaVuSans-6f" d="M 1959 3097 
Q 1497 3097 1228 2736 
Q 959 2375 959 1747 
Q 959 1119 1226 758 
Q 1494 397 1959 397 
Q 2419 397 2687 759 
Q 2956 1122 2956 1747 
Q 2956 2369 2687 2733 
Q 2419 3097 1959 3097 
z
M 1959 3584 
Q 2709 3584 3137 3096 
Q 3566 2609 3566 1747 
Q 3566 888 3137 398 
Q 2709 -91 1959 -91 
Q 1206 -91 779 398 
Q 353 888 353 1747 
Q 353 2609 779 3096 
Q 1206 3584 1959 3584 
z
" transform="scale(0.015625)"/>
       <path id="DejaVuSans-6c" d="M 603 4863 
L 1178 4863 
L 1178 0 
L 603 0 
L 603 4863 
z
" transform="scale(0.015625)"/>
       <path id="DejaVuSans-75" d="M 544 1381 
L 544 3500 
L 1119 3500 
L 1119 1403 
Q 1119 906 1312 657 
Q 1506 409 1894 409 
Q 2359 409 2629 706 
Q 2900 1003 2900 1516 
L 2900 3500 
L 3475 3500 
L 3475 0 
L 2900 0 
L 2900 538 
Q 2691 219 2414 64 
Q 2138 -91 1772 -91 
Q 1169 -91 856 284 
Q 544 659 544 1381 
z
M 1991 3584 
L 1991 3584 
z
" transform="scale(0.015625)"/>
      </defs>
      <use xlink:href="#DejaVuSans-56"/>
      <use xlink:href="#DejaVuSans-6f" x="60.658203"/>
      <use xlink:href="#DejaVuSans-6c" x="121.839844"/>
      <use xlink:href="#DejaVuSans-75" x="149.623047"/>
      <use xlink:href="#DejaVuSans-6d" x="213.001953"/>
      <use xlink:href="#DejaVuSans-65" x="310.414062"/>
      <use xlink:href="#DejaVuSans-28" x="371.9375"/>
      <use xlink:href="#DejaVuSans-6d" x="410.951172"/>
      <use xlink:href="#DejaVuSans-6c" x="508.363281"/>
      <use xlink:href="#DejaVuSans-29" x="536.146484"/>
     </g>
    </g>
   </g>
   <g id="line2d_35">
    <path d="M -1 262.989283 
L 0.905 262.934434 
L 5.07625 262.335231 
L 9.2475 260.911462 
L 13.41875 258.531027 
L 17.59 255.257532 
L 21.76125 251.269381 
L 25.9325 246.782025 
L 34.275 237.103862 
L 42.6175 227.474033 
L 46.78875 222.925118 
L 50.96 218.631334 
L 55.13125 214.631146 
L 59.3025 210.95399 
L 63.47375 207.625192 
L 67.645 204.66368 
L 71.81625 202.084773 
L 75.9875 199.887307 
L 80.15875 198.052569 
L 84.33 196.545623 
L 88.50125 195.324792 
L 92.6725 194.348708 
L 96.84375 193.57972 
L 101.015 192.98462 
L 105.18625 192.53375 
L 113.52875 191.959273 
L 121.87125 191.673432 
L 134.385 191.507832 
L 163.58375 191.448645 
L 180.26875 191.454185 
L 184.44 191.920157 
L 188.61125 193.871531 
L 192.7825 197.13146 
L 196.95375 201.160951 
L 205.29625 210.169864 
L 213.63875 219.158631 
L 217.81 223.36706 
L 221.98125 227.309682 
L 226.1525 230.962226 
L 230.32375 234.318602 
L 234.495 237.386624 
L 238.66625 240.182025 
L 242.8375 242.725999 
L 247.00875 245.042718 
L 251.18 247.156831 
L 255.35125 249.092296 
L 259.5225 250.869237 
L 263.69375 252.510018 
L 272.03625 255.441511 
L 280.37875 257.99419 
L 288.72125 260.248872 
L 297.06375 262.265033 
L 301.235 263.197949 
L 305.40625 263.860969 
L 309.5775 263.368871 
L 313.74875 263.064135 
L 330.43375 263.058397 
L 334.605 262.938221 
L 338.77625 262.338793 
L 342.9475 260.91466 
L 347.11875 258.533781 
L 351.29 255.259854 
L 355.46125 251.271305 
L 359.6325 246.783538 
L 367.975 237.10467 
L 376.3175 227.471958 
L 380.48875 222.92221 
L 384.66 218.628897 
L 388.83125 214.628612 
L 393.0025 210.952034 
L 397.17375 207.623756 
L 401.345 204.662713 
L 405.51625 202.084109 
L 409.6875 199.886786 
L 413.85875 198.051883 
L 418.03 196.544848 
L 422.20125 195.323983 
L 426.3725 194.347898 
L 430.54375 193.578931 
L 434.715 192.98381 
L 438.88625 192.532945 
L 447.22875 191.958305 
L 455.57125 191.672482 
L 468.085 191.506778 
L 497.28375 191.447541 
L 513.96875 191.453099 
L 518.14 191.919526 
L 522.31125 193.871584 
L 526.4825 197.131982 
L 530.65375 201.161778 
L 538.99625 210.171035 
L 547.33875 219.160126 
L 551.51 223.368151 
L 555.68125 227.31015 
L 559.8525 230.96199 
L 564.02375 234.318155 
L 568.195 237.385898 
L 572.36625 240.181466 
L 576.5375 242.725301 
L 580.70875 245.041541 
L 584.88 247.156423 
L 589.05125 249.092724 
L 593.2225 250.868526 
L 597.39375 252.509947 
L 605.73625 255.442062 
L 614.07875 257.994964 
L 622.42125 260.249677 
L 630.76375 262.265781 
L 634.935 263.198701 
L 639.10625 263.860888 
L 643.2775 263.368869 
L 647.44875 263.064728 
L 651.62 263.062232 
L 651.62 263.062232 
" clip-path="url(#p98842b54a5)" style="fill: none; stroke: #1f77b4; stroke-width: 1.5; stroke-linecap: square"/>
   </g>
   <g id="line2d_36">
    <path d="M -1 221.774022 
L 101.015 221.829416 
L 105.18625 221.964487 
L 109.3575 227.886989 
L 113.52875 234.937844 
L 117.7 241.079058 
L 121.87125 246.178223 
L 126.0425 250.345086 
L 130.21375 253.754079 
L 134.385 256.562201 
L 138.55625 258.896217 
L 142.7275 260.854745 
L 146.89875 262.513661 
L 151.07 263.931363 
L 155.24125 265.152986 
L 159.4125 266.21386 
L 163.58375 264.786296 
L 167.755 253.433162 
L 171.92625 241.703531 
L 176.0975 232.940183 
L 180.26875 227.68574 
L 184.44 224.870766 
L 188.61125 223.422444 
L 192.7825 222.679022 
L 196.95375 222.29129 
L 205.29625 221.969638 
L 217.81 221.841346 
L 259.5225 221.77973 
L 380.48875 221.839036 
L 438.88625 221.959954 
L 443.0575 227.878036 
L 447.22875 234.93856 
L 451.4 241.067608 
L 455.57125 246.17822 
L 459.7425 250.345083 
L 463.91375 253.754076 
L 468.085 256.562198 
L 472.25625 258.896214 
L 476.4275 260.854742 
L 480.59875 262.513659 
L 484.77 263.931358 
L 488.94125 265.152985 
L 493.1125 266.213856 
L 497.28375 264.786031 
L 501.455 253.432828 
L 505.62625 241.703658 
L 509.7975 232.939869 
L 513.96875 227.685736 
L 518.14 224.870762 
L 522.31125 223.422439 
L 526.4825 222.679014 
L 530.65375 222.291395 
L 538.99625 221.972523 
L 551.51 221.841407 
L 593.2225 221.779727 
L 651.62 221.772639 
L 651.62 221.772639 
" clip-path="url(#p98842b54a5)" style="fill: none; stroke: #ff7f0e; stroke-width: 1.5; stroke-linecap: square"/>
   </g>
   <g id="line2d_37">
    <path d="M -1 300.570287 
L 0.905 299.880324 
L 5.07625 297.780526 
L 9.2475 295.142821 
L 13.41875 292.060509 
L 17.59 288.648022 
L 25.9325 281.302927 
L 34.275 273.952893 
L 38.44625 270.480504 
L 42.6175 267.228176 
L 46.78875 264.239039 
L 50.96 261.54982 
L 55.13125 259.180181 
L 59.3025 257.13277 
L 63.47375 255.393601 
L 67.645 253.931798 
L 71.81625 252.712198 
L 75.9875 251.704331 
L 80.15875 250.876511 
L 84.33 250.201419 
L 92.6725 249.220937 
L 101.015 248.610329 
L 109.3575 248.247565 
L 134.385 247.506852 
L 138.55625 247.050729 
L 142.7275 246.263328 
L 146.89875 245.051277 
L 151.07 243.364837 
L 155.24125 241.20935 
L 163.58375 236.089091 
L 167.755 233.952798 
L 171.92625 232.52152 
L 176.0975 231.652004 
L 180.26875 231.348521 
L 184.44 231.344776 
L 188.61125 231.628045 
L 192.7825 232.51516 
L 196.95375 234.27376 
L 201.125 236.984117 
L 205.29625 240.543036 
L 209.4675 244.744417 
L 213.63875 249.363733 
L 230.32375 268.732221 
L 234.495 273.2795 
L 238.66625 277.580972 
L 242.8375 281.594876 
L 247.00875 285.287235 
L 251.18 288.6289 
L 255.35125 291.595197 
L 259.5225 294.159673 
L 263.69375 296.31279 
L 267.865 298.044327 
L 272.03625 299.383336 
L 276.2075 300.386848 
L 280.37875 301.124258 
L 284.55 301.660316 
L 292.8925 302.327603 
L 301.235 302.673347 
L 313.74875 302.889597 
L 317.92 302.897014 
L 322.09125 302.766913 
L 326.2625 302.317423 
L 330.43375 301.384123 
L 334.605 299.875002 
L 338.77625 297.776981 
L 342.9475 295.141042 
L 347.11875 292.060372 
L 351.29 288.649332 
L 359.6325 281.306394 
L 367.975 273.957569 
L 372.14625 270.485518 
L 376.3175 267.230979 
L 380.48875 264.24071 
L 384.66 261.551141 
L 388.83125 259.181257 
L 393.0025 257.13406 
L 397.17375 255.394999 
L 401.345 253.932998 
L 405.51625 252.713801 
L 409.6875 251.705143 
L 413.85875 250.877446 
L 418.03 250.202355 
L 426.3725 249.221628 
L 434.715 248.610729 
L 443.0575 248.247674 
L 468.085 247.506498 
L 472.25625 247.050429 
L 476.4275 246.263155 
L 480.59875 245.051324 
L 484.77 243.365174 
L 488.94125 241.210033 
L 497.28375 236.090256 
L 501.455 233.953789 
L 505.62625 232.522437 
L 509.7975 231.653148 
L 513.96875 231.35115 
L 518.14 231.347814 
L 522.31125 231.631551 
L 526.4825 232.51923 
L 530.65375 234.278301 
L 534.825 236.988925 
L 538.99625 240.547909 
L 543.1675 244.749298 
L 547.33875 249.368729 
L 564.02375 268.73293 
L 568.195 273.279318 
L 572.36625 277.580146 
L 576.5375 281.593801 
L 580.70875 285.285763 
L 584.88 288.627136 
L 589.05125 291.593651 
L 593.2225 294.154651 
L 597.39375 296.308287 
L 601.565 298.040166 
L 605.73625 299.379989 
L 609.9075 300.384423 
L 614.07875 301.122835 
L 618.25 301.659772 
L 626.5925 302.327428 
L 634.935 302.673511 
L 647.44875 302.890235 
L 651.62 302.897698 
L 651.62 302.897698 
" clip-path="url(#p98842b54a5)" style="fill: none; stroke: #2ca02c; stroke-width: 1.5; stroke-linecap: square"/>
   </g>
   <g id="line2d_38">
    <path d="M -1 257.475069 
L 0.905 257.701956 
L 5.07625 258.797886 
L 9.2475 260.441507 
L 13.41875 262.539198 
L 17.59 264.976256 
L 25.9325 270.397259 
L 34.275 275.858031 
L 38.44625 278.398689 
L 42.6175 280.727894 
L 46.78875 282.802467 
L 50.96 284.585748 
L 55.13125 286.058118 
L 59.3025 287.216973 
L 63.47375 288.07635 
L 67.645 288.66716 
L 71.81625 289.024586 
L 75.9875 289.179101 
L 80.15875 289.162384 
L 84.33 289.001731 
L 92.6725 288.336961 
L 101.015 287.336982 
L 113.52875 285.474329 
L 130.21375 282.892917 
L 134.385 282.417814 
L 138.55625 282.171594 
L 142.7275 282.266367 
L 146.89875 282.794738 
L 151.07 283.805587 
L 155.24125 285.29268 
L 163.58375 289.094255 
L 167.755 290.571331 
L 171.92625 291.339791 
L 176.0975 291.546878 
L 180.26875 291.191514 
L 192.7825 289.230883 
L 205.29625 286.98114 
L 217.81 284.389275 
L 230.32375 281.50669 
L 247.00875 277.359399 
L 272.03625 270.821424 
L 313.74875 259.830949 
L 317.92 258.78986 
L 322.09125 257.88466 
L 326.2625 257.302503 
L 330.43375 257.211999 
L 334.605 257.707223 
L 338.77625 258.801445 
L 342.9475 260.443368 
L 347.11875 262.539488 
L 351.29 264.975167 
L 359.6325 270.394151 
L 367.975 275.85385 
L 372.14625 278.394237 
L 376.3175 280.725687 
L 380.48875 282.801457 
L 384.66 284.585151 
L 388.83125 286.057828 
L 393.0025 287.216532 
L 397.17375 288.075864 
L 401.345 288.666933 
L 405.51625 289.024017 
L 409.6875 289.179383 
L 413.85875 289.162601 
L 418.03 289.002006 
L 426.3725 288.337594 
L 434.715 287.338019 
L 447.22875 285.475948 
L 463.91375 282.89508 
L 468.085 282.420045 
L 472.25625 282.17382 
L 476.4275 282.268514 
L 480.59875 282.796712 
L 484.77 283.807319 
L 488.94125 285.294113 
L 497.28375 289.095311 
L 501.455 290.572608 
L 505.62625 291.341188 
L 509.7975 291.548094 
L 513.96875 291.191292 
L 526.4825 289.230503 
L 538.99625 286.98083 
L 551.51 284.389018 
L 564.02375 281.506503 
L 580.70875 277.359464 
L 605.73625 270.821688 
L 647.44875 259.831398 
L 651.62 258.79033 
L 651.62 258.79033 
" clip-path="url(#p98842b54a5)" style="fill: none; stroke: #d62728; stroke-width: 1.5; stroke-linecap: square"/>
   </g>
   <g id="patch_3">
    <path d="M 50.96 318.04 
L 50.96 10.8 
" style="fill: none; stroke: #000000; stroke-width: 0.8; stroke-linejoin: miter; stroke-linecap: square"/>
   </g>
   <g id="patch_4">
    <path d="M 384.66 318.04 
L 384.66 10.8 
" style="fill: none; stroke: #000000; stroke-width: 0.8; stroke-linejoin: miter; stroke-linecap: square"/>
   </g>
   <g id="patch_5">
    <path d="M 50.96 318.04 
L 384.66 318.04 
" style="fill: none; stroke: #000000; stroke-width: 0.8; stroke-linejoin: miter; stroke-linecap: square"/>
   </g>
   <g id="patch_6">
    <path d="M 50.96 10.8 
L 384.66 10.8 
" style="fill: none; stroke: #000000; stroke-width: 0.8; stroke-linejoin: miter; stroke-linecap: square"/>
   </g>
   <g id="legend_1">
    <g id="patch_7">
     <path d="M 332.270937 77.5125 
L 377.66 77.5125 
Q 379.66 77.5125 379.66 75.5125 
L 379.66 17.8 
Q 379.66 15.8 377.66 15.8 
L 332.270937 15.8 
Q 330.270937 15.8 330.270937 17.8 
L 330.270937 75.5125 
Q 330.270937 77.5125 332.270937 77.5125 
z
" style="fill: #ffffff; opacity: 0.8; stroke: #cccccc; stroke-linejoin: miter"/>
    </g>
    <g id="line2d_39">
     <path d="M 334.270937 23.898438 
L 344.270937 23.898438 
L 354.270937 23.898438 
" style="fill: none; stroke: #1f77b4; stroke-width: 1.5; stroke-linecap: square"/>
    </g>
    <g id="text_20">
     <!-- LV -->
     <g transform="translate(362.270937 27.398438) scale(0.1 -0.1)">
      <defs>
       <path id="DejaVuSans-4c" d="M 628 4666 
L 1259 4666 
L 1259 531 
L 3531 531 
L 3531 0 
L 628 0 
L 628 4666 
z
" transform="scale(0.015625)"/>
      </defs>
      <use xlink:href="#DejaVuSans-4c"/>
      <use xlink:href="#DejaVuSans-56" x="44.712891"/>
     </g>
    </g>
    <g id="line2d_40">
     <path d="M 334.270937 38.576563 
L 344.270937 38.576563 
L 354.270937 38.576563 
" style="fill: none; stroke: #ff7f0e; stroke-width: 1.5; stroke-linecap: square"/>
    </g>
    <g id="text_21">
     <!-- LA -->
     <g transform="translate(362.270937 42.076563) scale(0.1 -0.1)">
      <defs>
       <path id="DejaVuSans-41" d="M 2188 4044 
L 1331 1722 
L 3047 1722 
L 2188 4044 
z
M 1831 4666 
L 2547 4666 
L 4325 0 
L 3669 0 
L 3244 1197 
L 1141 1197 
L 716 0 
L 50 0 
L 1831 4666 
z
" transform="scale(0.015625)"/>
      </defs>
      <use xlink:href="#DejaVuSans-4c"/>
      <use xlink:href="#DejaVuSans-41" x="57.962891"/>
     </g>
    </g>
    <g id="line2d_41">
     <path d="M 334.270937 53.254687 
L 344.270937 53.254687 
L 354.270937 53.254687 
" style="fill: none; stroke: #2ca02c; stroke-width: 1.5; stroke-linecap: square"/>
    </g>
    <g id="text_22">
     <!-- RV -->
     <g transform="translate(362.270937 56.754687) scale(0.1 -0.1)">
      <defs>
       <path id="DejaVuSans-52" d="M 2841 2188 
Q 3044 2119 3236 1894 
Q 3428 1669 3622 1275 
L 4263 0 
L 3584 0 
L 2988 1197 
Q 2756 1666 2539 1819 
Q 2322 1972 1947 1972 
L 1259 1972 
L 1259 0 
L 628 0 
L 628 4666 
L 2053 4666 
Q 2853 4666 3247 4331 
Q 3641 3997 3641 3322 
Q 3641 2881 3436 2590 
Q 3231 2300 2841 2188 
z
M 1259 4147 
L 1259 2491 
L 2053 2491 
Q 2509 2491 2742 2702 
Q 2975 2913 2975 3322 
Q 2975 3731 2742 3939 
Q 2509 4147 2053 4147 
L 1259 4147 
z
" transform="scale(0.015625)"/>
      </defs>
      <use xlink:href="#DejaVuSans-52"/>
      <use xlink:href="#DejaVuSans-56" x="63.982422"/>
     </g>
    </g>
    <g id="line2d_42">
     <path d="M 334.270937 67.932813 
L 344.270937 67.932813 
L 354.270937 67.932813 
" style="fill: none; stroke: #d62728; stroke-width: 1.5; stroke-linecap: square"/>
    </g>
    <g id="text_23">
     <!-- RA -->
     <g transform="translate(362.270937 71.432813) scale(0.1 -0.1)">
      <use xlink:href="#DejaVuSans-52"/>
      <use xlink:href="#DejaVuSans-41" x="65.482422"/>
     </g>
    </g>
   </g>
  </g>
  <g id="axes_2">
   <g id="patch_8">
    <path d="M 429.23 318.04 
L 762.93 318.04 
L 762.93 10.8 
L 429.23 10.8 
z
" style="fill: #ffffff"/>
   </g>
   <g id="matplotlib.axis_3">
    <g id="xtick_9">
     <g id="line2d_43">
      <path d="M 450.08625 318.04 
L 450.08625 10.8 
" clip-path="url(#p52bad97cc7)" style="fill: none; stroke: #b0b0b0; stroke-width: 0.8; stroke-linecap: square"/>
     </g>
     <g id="line2d_44">
      <g>
       <use xlink:href="#mf2bc4af843" x="450.08625" y="318.04" style="stroke: #000000; stroke-width: 0.8"/>
      </g>
     </g>
     <g id="text_24">
      <!-- 8.6 -->
      <g transform="translate(442.134687 332.638438) scale(0.1 -0.1)">
       <use xlink:href="#DejaVuSans-38"/>
       <use xlink:href="#DejaVuSans-2e" x="63.623047"/>
       <use xlink:href="#DejaVuSans-36" x="95.410156"/>
      </g>
     </g>
    </g>
    <g id="xtick_10">
     <g id="line2d_45">
      <path d="M 491.79875 318.04 
L 491.79875 10.8 
" clip-path="url(#p52bad97cc7)" style="fill: none; stroke: #b0b0b0; stroke-width: 0.8; stroke-linecap: square"/>
     </g>
     <g id="line2d_46">
      <g>
       <use xlink:href="#mf2bc4af843" x="491.79875" y="318.04" style="stroke: #000000; stroke-width: 0.8"/>
      </g>
     </g>
     <g id="text_25">
      <!-- 8.7 -->
      <g transform="translate(483.847187 332.638438) scale(0.1 -0.1)">
       <use xlink:href="#DejaVuSans-38"/>
       <use xlink:href="#DejaVuSans-2e" x="63.623047"/>
       <use xlink:href="#DejaVuSans-37" x="95.410156"/>
      </g>
     </g>
    </g>
    <g id="xtick_11">
     <g id="line2d_47">
      <path d="M 533.51125 318.04 
L 533.51125 10.8 
" clip-path="url(#p52bad97cc7)" style="fill: none; stroke: #b0b0b0; stroke-width: 0.8; stroke-linecap: square"/>
     </g>
     <g id="line2d_48">
      <g>
       <use xlink:href="#mf2bc4af843" x="533.51125" y="318.04" style="stroke: #000000; stroke-width: 0.8"/>
      </g>
     </g>
     <g id="text_26">
      <!-- 8.8 -->
      <g transform="translate(525.559687 332.638438) scale(0.1 -0.1)">
       <use xlink:href="#DejaVuSans-38"/>
       <use xlink:href="#DejaVuSans-2e" x="63.623047"/>
       <use xlink:href="#DejaVuSans-38" x="95.410156"/>
      </g>
     </g>
    </g>
    <g id="xtick_12">
     <g id="line2d_49">
      <path d="M 575.22375 318.04 
L 575.22375 10.8 
" clip-path="url(#p52bad97cc7)" style="fill: none; stroke: #b0b0b0; stroke-width: 0.8; stroke-linecap: square"/>
     </g>
     <g id="line2d_50">
      <g>
       <use xlink:href="#mf2bc4af843" x="575.22375" y="318.04" style="stroke: #000000; stroke-width: 0.8"/>
      </g>
     </g>
     <g id="text_27">
      <!-- 8.9 -->
      <g transform="translate(567.272187 332.638438) scale(0.1 -0.1)">
       <use xlink:href="#DejaVuSans-38"/>
       <use xlink:href="#DejaVuSans-2e" x="63.623047"/>
       <use xlink:href="#DejaVuSans-39" x="95.410156"/>
      </g>
     </g>
    </g>
    <g id="xtick_13">
     <g id="line2d_51">
      <path d="M 616.93625 318.04 
L 616.93625 10.8 
" clip-path="url(#p52bad97cc7)" style="fill: none; stroke: #b0b0b0; stroke-width: 0.8; stroke-linecap: square"/>
     </g>
     <g id="line2d_52">
      <g>
       <use xlink:href="#mf2bc4af843" x="616.93625" y="318.04" style="stroke: #000000; stroke-width: 0.8"/>
      </g>
     </g>
     <g id="text_28">
      <!-- 9.0 -->
      <g transform="translate(608.984687 332.638438) scale(0.1 -0.1)">
       <use xlink:href="#DejaVuSans-39"/>
       <use xlink:href="#DejaVuSans-2e" x="63.623047"/>
       <use xlink:href="#DejaVuSans-30" x="95.410156"/>
      </g>
     </g>
    </g>
    <g id="xtick_14">
     <g id="line2d_53">
      <path d="M 658.64875 318.04 
L 658.64875 10.8 
" clip-path="url(#p52bad97cc7)" style="fill: none; stroke: #b0b0b0; stroke-width: 0.8; stroke-linecap: square"/>
     </g>
     <g id="line2d_54">
      <g>
       <use xlink:href="#mf2bc4af843" x="658.64875" y="318.04" style="stroke: #000000; stroke-width: 0.8"/>
      </g>
     </g>
     <g id="text_29">
      <!-- 9.1 -->
      <g transform="translate(650.697187 332.638438) scale(0.1 -0.1)">
       <use xlink:href="#DejaVuSans-39"/>
       <use xlink:href="#DejaVuSans-2e" x="63.623047"/>
       <use xlink:href="#DejaVuSans-31" x="95.410156"/>
      </g>
     </g>
    </g>
    <g id="xtick_15">
     <g id="line2d_55">
      <path d="M 700.36125 318.04 
L 700.36125 10.8 
" clip-path="url(#p52bad97cc7)" style="fill: none; stroke: #b0b0b0; stroke-width: 0.8; stroke-linecap: square"/>
     </g>
     <g id="line2d_56">
      <g>
       <use xlink:href="#mf2bc4af843" x="700.36125" y="318.04" style="stroke: #000000; stroke-width: 0.8"/>
      </g>
     </g>
     <g id="text_30">
      <!-- 9.2 -->
      <g transform="translate(692.409687 332.638438) scale(0.1 -0.1)">
       <use xlink:href="#DejaVuSans-39"/>
       <use xlink:href="#DejaVuSans-2e" x="63.623047"/>
       <use xlink:href="#DejaVuSans-32" x="95.410156"/>
      </g>
     </g>
    </g>
    <g id="xtick_16">
     <g id="line2d_57">
      <path d="M 742.07375 318.04 
L 742.07375 10.8 
" clip-path="url(#p52bad97cc7)" style="fill: none; stroke: #b0b0b0; stroke-width: 0.8; stroke-linecap: square"/>
     </g>
     <g id="line2d_58">
      <g>
       <use xlink:href="#mf2bc4af843" x="742.07375" y="318.04" style="stroke: #000000; stroke-width: 0.8"/>
      </g>
     </g>
     <g id="text_31">
      <!-- 9.3 -->
      <g transform="translate(734.122187 332.638438) scale(0.1 -0.1)">
       <use xlink:href="#DejaVuSans-39"/>
       <use xlink:href="#DejaVuSans-2e" x="63.623047"/>
       <use xlink:href="#DejaVuSans-33" x="95.410156"/>
      </g>
     </g>
    </g>
    <g id="text_32">
     <!-- Time(s) -->
     <g transform="translate(577.340156 346.316563) scale(0.1 -0.1)">
      <use xlink:href="#DejaVuSans-54"/>
      <use xlink:href="#DejaVuSans-69" x="57.958984"/>
      <use xlink:href="#DejaVuSans-6d" x="85.742188"/>
      <use xlink:href="#DejaVuSans-65" x="183.154297"/>
      <use xlink:href="#DejaVuSans-28" x="244.677734"/>
      <use xlink:href="#DejaVuSans-73" x="283.691406"/>
      <use xlink:href="#DejaVuSans-29" x="335.791016"/>
     </g>
    </g>
   </g>
   <g id="matplotlib.axis_4">
    <g id="ytick_10">
     <g id="line2d_59">
      <path d="M 429.23 305.678993 
L 762.93 305.678993 
" clip-path="url(#p52bad97cc7)" style="fill: none; stroke: #b0b0b0; stroke-width: 0.8; stroke-linecap: square"/>
     </g>
     <g id="line2d_60">
      <g>
       <use xlink:href="#mea03ef2f8e" x="429.23" y="305.678993" style="stroke: #000000; stroke-width: 0.8"/>
      </g>
     </g>
     <g id="text_33">
      <!-- 0 -->
      <g transform="translate(415.8675 309.478211) scale(0.1 -0.1)">
       <use xlink:href="#DejaVuSans-30"/>
      </g>
     </g>
    </g>
    <g id="ytick_11">
     <g id="line2d_61">
      <path d="M 429.23 270.349715 
L 762.93 270.349715 
" clip-path="url(#p52bad97cc7)" style="fill: none; stroke: #b0b0b0; stroke-width: 0.8; stroke-linecap: square"/>
     </g>
     <g id="line2d_62">
      <g>
       <use xlink:href="#mea03ef2f8e" x="429.23" y="270.349715" style="stroke: #000000; stroke-width: 0.8"/>
      </g>
     </g>
     <g id="text_34">
      <!-- 10 -->
      <g transform="translate(409.505 274.148934) scale(0.1 -0.1)">
       <use xlink:href="#DejaVuSans-31"/>
       <use xlink:href="#DejaVuSans-30" x="63.623047"/>
      </g>
     </g>
    </g>
    <g id="ytick_12">
     <g id="line2d_63">
      <path d="M 429.23 235.020438 
L 762.93 235.020438 
" clip-path="url(#p52bad97cc7)" style="fill: none; stroke: #b0b0b0; stroke-width: 0.8; stroke-linecap: square"/>
     </g>
     <g id="line2d_64">
      <g>
       <use xlink:href="#mea03ef2f8e" x="429.23" y="235.020438" style="stroke: #000000; stroke-width: 0.8"/>
      </g>
     </g>
     <g id="text_35">
      <!-- 20 -->
      <g transform="translate(409.505 238.819657) scale(0.1 -0.1)">
       <use xlink:href="#DejaVuSans-32"/>
       <use xlink:href="#DejaVuSans-30" x="63.623047"/>
      </g>
     </g>
    </g>
    <g id="ytick_13">
     <g id="line2d_65">
      <path d="M 429.23 199.691161 
L 762.93 199.691161 
" clip-path="url(#p52bad97cc7)" style="fill: none; stroke: #b0b0b0; stroke-width: 0.8; stroke-linecap: square"/>
     </g>
     <g id="line2d_66">
      <g>
       <use xlink:href="#mea03ef2f8e" x="429.23" y="199.691161" style="stroke: #000000; stroke-width: 0.8"/>
      </g>
     </g>
     <g id="text_36">
      <!-- 30 -->
      <g transform="translate(409.505 203.490379) scale(0.1 -0.1)">
       <use xlink:href="#DejaVuSans-33"/>
       <use xlink:href="#DejaVuSans-30" x="63.623047"/>
      </g>
     </g>
    </g>
    <g id="ytick_14">
     <g id="line2d_67">
      <path d="M 429.23 164.361883 
L 762.93 164.361883 
" clip-path="url(#p52bad97cc7)" style="fill: none; stroke: #b0b0b0; stroke-width: 0.8; stroke-linecap: square"/>
     </g>
     <g id="line2d_68">
      <g>
       <use xlink:href="#mea03ef2f8e" x="429.23" y="164.361883" style="stroke: #000000; stroke-width: 0.8"/>
      </g>
     </g>
     <g id="text_37">
      <!-- 40 -->
      <g transform="translate(409.505 168.161102) scale(0.1 -0.1)">
       <use xlink:href="#DejaVuSans-34"/>
       <use xlink:href="#DejaVuSans-30" x="63.623047"/>
      </g>
     </g>
    </g>
    <g id="ytick_15">
     <g id="line2d_69">
      <path d="M 429.23 129.032606 
L 762.93 129.032606 
" clip-path="url(#p52bad97cc7)" style="fill: none; stroke: #b0b0b0; stroke-width: 0.8; stroke-linecap: square"/>
     </g>
     <g id="line2d_70">
      <g>
       <use xlink:href="#mea03ef2f8e" x="429.23" y="129.032606" style="stroke: #000000; stroke-width: 0.8"/>
      </g>
     </g>
     <g id="text_38">
      <!-- 50 -->
      <g transform="translate(409.505 132.831825) scale(0.1 -0.1)">
       <defs>
        <path id="DejaVuSans-35" d="M 691 4666 
L 3169 4666 
L 3169 4134 
L 1269 4134 
L 1269 2991 
Q 1406 3038 1543 3061 
Q 1681 3084 1819 3084 
Q 2600 3084 3056 2656 
Q 3513 2228 3513 1497 
Q 3513 744 3044 326 
Q 2575 -91 1722 -91 
Q 1428 -91 1123 -41 
Q 819 9 494 109 
L 494 744 
Q 775 591 1075 516 
Q 1375 441 1709 441 
Q 2250 441 2565 725 
Q 2881 1009 2881 1497 
Q 2881 1984 2565 2268 
Q 2250 2553 1709 2553 
Q 1456 2553 1204 2497 
Q 953 2441 691 2322 
L 691 4666 
z
" transform="scale(0.015625)"/>
       </defs>
       <use xlink:href="#DejaVuSans-35"/>
       <use xlink:href="#DejaVuSans-30" x="63.623047"/>
      </g>
     </g>
    </g>
    <g id="ytick_16">
     <g id="line2d_71">
      <path d="M 429.23 93.703329 
L 762.93 93.703329 
" clip-path="url(#p52bad97cc7)" style="fill: none; stroke: #b0b0b0; stroke-width: 0.8; stroke-linecap: square"/>
     </g>
     <g id="line2d_72">
      <g>
       <use xlink:href="#mea03ef2f8e" x="429.23" y="93.703329" style="stroke: #000000; stroke-width: 0.8"/>
      </g>
     </g>
     <g id="text_39">
      <!-- 60 -->
      <g transform="translate(409.505 97.502547) scale(0.1 -0.1)">
       <use xlink:href="#DejaVuSans-36"/>
       <use xlink:href="#DejaVuSans-30" x="63.623047"/>
      </g>
     </g>
    </g>
    <g id="ytick_17">
     <g id="line2d_73">
      <path d="M 429.23 58.374051 
L 762.93 58.374051 
" clip-path="url(#p52bad97cc7)" style="fill: none; stroke: #b0b0b0; stroke-width: 0.8; stroke-linecap: square"/>
     </g>
     <g id="line2d_74">
      <g>
       <use xlink:href="#mea03ef2f8e" x="429.23" y="58.374051" style="stroke: #000000; stroke-width: 0.8"/>
      </g>
     </g>
     <g id="text_40">
      <!-- 70 -->
      <g transform="translate(409.505 62.17327) scale(0.1 -0.1)">
       <use xlink:href="#DejaVuSans-37"/>
       <use xlink:href="#DejaVuSans-30" x="63.623047"/>
      </g>
     </g>
    </g>
    <g id="ytick_18">
     <g id="line2d_75">
      <path d="M 429.23 23.044774 
L 762.93 23.044774 
" clip-path="url(#p52bad97cc7)" style="fill: none; stroke: #b0b0b0; stroke-width: 0.8; stroke-linecap: square"/>
     </g>
     <g id="line2d_76">
      <g>
       <use xlink:href="#mea03ef2f8e" x="429.23" y="23.044774" style="stroke: #000000; stroke-width: 0.8"/>
      </g>
     </g>
     <g id="text_41">
      <!-- 80 -->
      <g transform="translate(409.505 26.843993) scale(0.1 -0.1)">
       <use xlink:href="#DejaVuSans-38"/>
       <use xlink:href="#DejaVuSans-30" x="63.623047"/>
      </g>
     </g>
    </g>
    <g id="text_42">
     <!-- Pressure(mmHg) -->
     <g transform="translate(403.425313 206.341094) rotate(-90) scale(0.1 -0.1)">
      <defs>
       <path id="DejaVuSans-50" d="M 1259 4147 
L 1259 2394 
L 2053 2394 
Q 2494 2394 2734 2622 
Q 2975 2850 2975 3272 
Q 2975 3691 2734 3919 
Q 2494 4147 2053 4147 
L 1259 4147 
z
M 628 4666 
L 2053 4666 
Q 2838 4666 3239 4311 
Q 3641 3956 3641 3272 
Q 3641 2581 3239 2228 
Q 2838 1875 2053 1875 
L 1259 1875 
L 1259 0 
L 628 0 
L 628 4666 
z
" transform="scale(0.015625)"/>
       <path id="DejaVuSans-72" d="M 2631 2963 
Q 2534 3019 2420 3045 
Q 2306 3072 2169 3072 
Q 1681 3072 1420 2755 
Q 1159 2438 1159 1844 
L 1159 0 
L 581 0 
L 581 3500 
L 1159 3500 
L 1159 2956 
Q 1341 3275 1631 3429 
Q 1922 3584 2338 3584 
Q 2397 3584 2469 3576 
Q 2541 3569 2628 3553 
L 2631 2963 
z
" transform="scale(0.015625)"/>
       <path id="DejaVuSans-48" d="M 628 4666 
L 1259 4666 
L 1259 2753 
L 3553 2753 
L 3553 4666 
L 4184 4666 
L 4184 0 
L 3553 0 
L 3553 2222 
L 1259 2222 
L 1259 0 
L 628 0 
L 628 4666 
z
" transform="scale(0.015625)"/>
       <path id="DejaVuSans-67" d="M 2906 1791 
Q 2906 2416 2648 2759 
Q 2391 3103 1925 3103 
Q 1463 3103 1205 2759 
Q 947 2416 947 1791 
Q 947 1169 1205 825 
Q 1463 481 1925 481 
Q 2391 481 2648 825 
Q 2906 1169 2906 1791 
z
M 3481 434 
Q 3481 -459 3084 -895 
Q 2688 -1331 1869 -1331 
Q 1566 -1331 1297 -1286 
Q 1028 -1241 775 -1147 
L 775 -588 
Q 1028 -725 1275 -790 
Q 1522 -856 1778 -856 
Q 2344 -856 2625 -561 
Q 2906 -266 2906 331 
L 2906 616 
Q 2728 306 2450 153 
Q 2172 0 1784 0 
Q 1141 0 747 490 
Q 353 981 353 1791 
Q 353 2603 747 3093 
Q 1141 3584 1784 3584 
Q 2172 3584 2450 3431 
Q 2728 3278 2906 2969 
L 2906 3500 
L 3481 3500 
L 3481 434 
z
" transform="scale(0.015625)"/>
      </defs>
      <use xlink:href="#DejaVuSans-50"/>
      <use xlink:href="#DejaVuSans-72" x="58.552734"/>
      <use xlink:href="#DejaVuSans-65" x="97.416016"/>
      <use xlink:href="#DejaVuSans-73" x="158.939453"/>
      <use xlink:href="#DejaVuSans-73" x="211.039062"/>
      <use xlink:href="#DejaVuSans-75" x="263.138672"/>
      <use xlink:href="#DejaVuSans-72" x="326.517578"/>
      <use xlink:href="#DejaVuSans-65" x="365.380859"/>
      <use xlink:href="#DejaVuSans-28" x="426.904297"/>
      <use xlink:href="#DejaVuSans-6d" x="465.917969"/>
      <use xlink:href="#DejaVuSans-6d" x="563.330078"/>
      <use xlink:href="#DejaVuSans-48" x="660.742188"/>
      <use xlink:href="#DejaVuSans-67" x="735.9375"/>
      <use xlink:href="#DejaVuSans-29" x="799.414062"/>
     </g>
    </g>
   </g>
   <g id="line2d_77">
    <path d="M -1 80.982255 
L 7.93375 82.931193 
L 12.105 83.883317 
L 16.27625 126.677135 
L 20.4475 184.18997 
L 24.61875 230.226301 
L 28.79 260.310841 
L 32.96125 277.463191 
L 37.1325 286.653674 
L 41.30375 291.455163 
L 45.475 293.925614 
L 49.64625 295.117111 
L 53.8175 295.557947 
L 57.98875 295.527642 
L 62.16 295.188414 
L 66.33125 294.645585 
L 74.67375 293.226668 
L 91.35875 290.140455 
L 99.70125 288.780544 
L 108.04375 287.630052 
L 116.38625 286.719227 
L 124.72875 286.055871 
L 133.07125 285.60697 
L 145.585 285.221003 
L 162.27 285.023375 
L 195.64 284.967808 
L 199.81125 284.967172 
L 203.9825 272.034531 
L 208.15375 253.484962 
L 212.325 232.741094 
L 220.6675 188.857983 
L 224.83875 166.801328 
L 229.01 145.665933 
L 233.18125 127.347139 
L 237.3525 112.400242 
L 241.52375 100.534368 
L 245.695 91.372021 
L 249.86625 84.52659 
L 254.0375 79.607082 
L 258.20875 76.236139 
L 262.38 74.069909 
L 266.55125 72.807929 
L 270.7225 72.201507 
L 274.89375 72.05323 
L 279.065 72.213915 
L 283.23625 72.57449 
L 291.57875 73.628104 
L 304.0925 75.583737 
L 316.60625 77.789888 
L 329.12 80.236239 
L 341.63375 82.933291 
L 345.805 83.885156 
L 349.97625 126.680147 
L 354.1475 184.190998 
L 358.31875 230.224509 
L 362.49 260.309719 
L 366.66125 277.462493 
L 370.8325 286.653203 
L 375.00375 291.454812 
L 379.175 293.925329 
L 383.34625 295.116869 
L 387.5175 295.557748 
L 391.68875 295.527516 
L 395.86 295.188265 
L 400.03125 294.645405 
L 408.37375 293.225981 
L 425.05875 290.139584 
L 433.40125 288.780229 
L 441.74375 287.62941 
L 450.08625 286.718444 
L 458.42875 286.055169 
L 466.77125 285.606367 
L 479.285 285.221287 
L 495.97 285.024679 
L 529.34 284.969678 
L 533.51125 284.96905 
L 537.6825 272.037589 
L 541.85375 253.489708 
L 546.025 232.747726 
L 554.3675 188.868605 
L 558.53875 166.813936 
L 562.71 145.679922 
L 566.88125 127.361814 
L 571.0525 112.4155 
L 575.22375 100.550096 
L 579.395 91.388092 
L 583.56625 84.542892 
L 587.7375 79.623524 
L 591.90875 76.252545 
L 596.08 74.085747 
L 600.25125 72.823462 
L 604.4225 72.217044 
L 608.59375 72.068692 
L 612.765 72.230245 
L 616.93625 72.592401 
L 625.27875 73.646372 
L 637.7925 75.594965 
L 650.30625 77.803239 
L 662.82 80.250898 
L 675.33375 82.948216 
L 679.505 83.900172 
L 683.67625 126.69091 
L 687.8475 184.198834 
L 692.01875 230.229886 
L 696.19 260.312956 
L 700.36125 277.464506 
L 704.5325 286.654561 
L 708.70375 291.455826 
L 712.875 293.926148 
L 717.04625 295.117553 
L 721.2175 295.558322 
L 725.38875 295.527991 
L 729.56 295.188658 
L 733.73125 294.645726 
L 742.07375 293.226166 
L 758.75875 290.139105 
L 767.10125 288.779812 
L 775.44375 287.629173 
L 783.78625 286.718334 
L 792.12875 286.055056 
L 800.47125 285.606234 
L 812.985 285.221154 
L 829.67 285.024538 
L 863.04 284.969497 
L 867.21125 284.968869 
L 871.3825 272.037294 
L 875.55375 253.48925 
L 879.725 232.747086 
L 888.0675 188.86758 
L 892.23875 166.812738 
L 896.41 145.679117 
L 900.58125 127.36189 
L 904.7525 112.41634 
L 908.92375 100.551557 
L 913.095 91.390067 
L 917.26625 84.545309 
L 921.4375 79.626693 
L 925.60875 76.256042 
L 929.78 74.088438 
L 933.95125 72.824676 
L 938.1225 72.216406 
L 942.29375 72.067432 
L 946.465 72.228126 
L 950.63625 72.59071 
L 958.97875 73.642592 
L 971.4925 75.592502 
L 984.00625 77.80527 
L 996.52 80.254048 
L 1009.03375 82.951245 
L 1013.205 83.903255 
L 1017.37625 126.690642 
L 1021.5475 184.198828 
L 1025.71875 230.230711 
L 1029.89 260.313468 
L 1029.89 260.313468 
" clip-path="url(#p52bad97cc7)" style="fill: none; stroke: #1f77b4; stroke-width: 1.5; stroke-linecap: square"/>
   </g>
   <g id="line2d_78">
    <path d="M -1 287.981154 
L 1029.89 287.981038 
L 1029.89 287.981038 
" clip-path="url(#p52bad97cc7)" style="fill: none; stroke: #ff7f0e; stroke-width: 1.5; stroke-linecap: square"/>
   </g>
   <g id="line2d_79">
    <path d="M -1 293.390631 
L 3.7625 293.471694 
L 12.105 293.454985 
L 16.27625 295.626911 
L 20.4475 298.71159 
L 24.61875 301.109809 
L 28.79 302.642291 
L 32.96125 303.494967 
L 37.1325 303.913476 
L 41.30375 304.07317 
L 49.64625 303.970587 
L 57.98875 303.563618 
L 74.67375 302.405721 
L 91.35875 301.312697 
L 103.8725 300.728866 
L 116.38625 300.365332 
L 133.07125 300.113905 
L 158.09875 299.987982 
L 187.2975 299.834423 
L 195.64 299.595808 
L 199.81125 299.418386 
L 203.9825 297.660834 
L 208.15375 295.101641 
L 216.49625 289.14649 
L 224.83875 283.13169 
L 229.01 280.284723 
L 233.18125 277.598775 
L 237.3525 275.230205 
L 241.52375 273.346902 
L 245.695 272.061186 
L 249.86625 271.40325 
L 254.0375 271.334669 
L 258.20875 271.779447 
L 262.38 272.650344 
L 266.55125 273.86185 
L 270.7225 275.335405 
L 274.89375 276.999723 
L 283.23625 280.647682 
L 291.57875 284.348055 
L 295.75 286.092499 
L 299.92125 287.706407 
L 304.0925 289.148317 
L 308.26375 290.378928 
L 312.435 291.372075 
L 316.60625 292.126987 
L 320.7775 292.669045 
L 324.94875 293.037974 
L 333.29125 293.410393 
L 341.63375 293.484861 
L 345.805 293.458421 
L 349.97625 295.629817 
L 354.1475 298.713668 
L 358.31875 301.111201 
L 362.49 302.643224 
L 366.66125 303.495618 
L 370.8325 303.91396 
L 375.00375 304.073551 
L 383.34625 303.970853 
L 391.68875 303.563822 
L 408.37375 302.405778 
L 425.05875 301.312929 
L 437.5725 300.728893 
L 450.08625 300.365303 
L 466.77125 300.113874 
L 491.79875 299.988035 
L 520.9975 299.83467 
L 529.34 299.596142 
L 533.51125 299.418759 
L 537.6825 297.661302 
L 541.85375 295.102066 
L 550.19625 289.146798 
L 558.53875 283.131824 
L 562.71 280.28479 
L 566.88125 277.59873 
L 571.0525 275.229976 
L 575.22375 273.346459 
L 579.395 272.060546 
L 583.56625 271.402456 
L 587.7375 271.333767 
L 591.90875 271.778453 
L 596.08 272.649138 
L 600.25125 273.860537 
L 604.4225 275.334129 
L 608.59375 276.998481 
L 616.93625 280.6472 
L 625.27875 284.347541 
L 629.45 286.09177 
L 633.62125 287.705393 
L 637.7925 289.143657 
L 641.96375 290.374697 
L 646.135 291.367639 
L 650.30625 292.122714 
L 654.4775 292.664986 
L 658.64875 293.033553 
L 666.99125 293.403625 
L 675.33375 293.476726 
L 679.505 293.449958 
L 683.67625 295.622863 
L 687.8475 298.708878 
L 692.01875 301.108074 
L 696.19 302.641173 
L 700.36125 303.494227 
L 704.5325 303.912978 
L 708.70375 304.072847 
L 717.04625 303.970542 
L 725.38875 303.56381 
L 742.07375 302.406123 
L 758.75875 301.313067 
L 771.2725 300.728999 
L 783.78625 300.365435 
L 800.47125 300.113942 
L 825.49875 299.988034 
L 854.6975 299.834656 
L 863.04 299.59617 
L 867.21125 299.418815 
L 871.3825 297.661404 
L 875.55375 295.102217 
L 883.89625 289.146977 
L 892.23875 283.132514 
L 896.41 280.285688 
L 900.58125 277.599879 
L 904.7525 275.231438 
L 908.92375 273.348228 
L 913.095 272.062559 
L 917.26625 271.404633 
L 921.4375 271.336078 
L 925.60875 271.780947 
L 929.78 272.651224 
L 933.95125 273.861991 
L 938.1225 275.33489 
L 942.29375 276.998899 
L 950.63625 280.646679 
L 958.97875 284.34656 
L 963.15 286.090564 
L 967.32125 287.704311 
L 971.4925 289.140066 
L 975.66375 290.37141 
L 979.835 291.364544 
L 984.00625 292.120179 
L 988.1775 292.663118 
L 992.34875 293.032439 
L 1000.69125 293.403509 
L 1009.03375 293.476662 
L 1013.205 293.450095 
L 1017.37625 295.623171 
L 1021.5475 298.709149 
L 1025.71875 301.108277 
L 1029.89 302.641318 
L 1029.89 302.641318 
" clip-path="url(#p52bad97cc7)" style="fill: none; stroke: #2ca02c; stroke-width: 1.5; stroke-linecap: square"/>
   </g>
   <g id="line2d_80">
    <path d="M -1 300.514394 
L 37.1325 299.752993 
L 45.475 299.786472 
L 53.8175 300.01186 
L 66.33125 300.603625 
L 87.1875 301.681124 
L 99.70125 302.119959 
L 112.215 302.334407 
L 128.9 302.361877 
L 149.75625 302.176695 
L 153.9275 301.601166 
L 174.78375 297.907372 
L 183.12625 296.801658 
L 187.2975 296.406198 
L 191.46875 296.145506 
L 195.64 296.033374 
L 199.81125 296.071475 
L 203.9825 296.240672 
L 208.15375 296.989491 
L 212.325 299.252992 
L 216.49625 300.827606 
L 220.6675 301.699205 
L 224.83875 302.102061 
L 233.18125 302.317936 
L 245.695 302.240169 
L 274.89375 301.744387 
L 345.805 300.229241 
L 370.8325 299.753238 
L 379.175 299.78678 
L 387.5175 300.012228 
L 400.03125 300.604061 
L 420.8875 301.681675 
L 433.40125 302.12032 
L 445.915 302.335028 
L 462.6 302.362561 
L 483.45625 302.177278 
L 487.6275 301.60183 
L 508.48375 297.90835 
L 516.82625 296.802557 
L 520.9975 296.40712 
L 525.16875 296.146382 
L 529.34 296.034147 
L 533.51125 296.072171 
L 537.6825 296.241377 
L 541.85375 296.990458 
L 546.025 299.253901 
L 550.19625 300.828395 
L 554.3675 301.699883 
L 558.53875 302.102743 
L 566.88125 302.318574 
L 579.395 302.240797 
L 608.59375 301.745043 
L 679.505 300.229993 
L 704.5325 299.753907 
L 712.875 299.787213 
L 721.2175 300.012381 
L 733.73125 300.603877 
L 754.5875 301.681493 
L 767.10125 302.120296 
L 779.615 302.335009 
L 796.3 302.362584 
L 817.15625 302.177378 
L 821.3275 301.601966 
L 842.18375 297.908712 
L 850.52625 296.802976 
L 854.6975 296.407543 
L 858.86875 296.146786 
L 863.04 296.034514 
L 867.21125 296.072484 
L 871.3825 296.241636 
L 875.55375 296.990686 
L 879.725 299.254112 
L 883.89625 300.828574 
L 888.0675 301.700011 
L 892.23875 302.102722 
L 900.58125 302.318539 
L 913.095 302.240769 
L 942.29375 301.745028 
L 1013.205 300.230025 
L 1029.89 299.876346 
L 1029.89 299.876346 
" clip-path="url(#p52bad97cc7)" style="fill: none; stroke: #d62728; stroke-width: 1.5; stroke-linecap: square"/>
   </g>
   <g id="line2d_81">
    <path d="M -1 80.794453 
L 7.93375 82.780674 
L 12.105 83.746914 
L 16.27625 96.609165 
L 20.4475 109.936968 
L 24.61875 103.164796 
L 28.79 104.977967 
L 41.30375 110.971048 
L 57.98875 118.681912 
L 74.67375 126.106837 
L 91.35875 133.264166 
L 108.04375 140.154842 
L 124.72875 146.774448 
L 141.41375 153.123075 
L 158.09875 159.1945 
L 170.6125 163.516888 
L 183.12625 167.643078 
L 199.81125 172.891417 
L 220.6675 179.264047 
L 224.83875 179.873327 
L 229.01 165.150604 
L 233.18125 140.821021 
L 237.3525 121.725516 
L 241.52375 107.59568 
L 245.695 96.880493 
L 249.86625 88.760074 
L 254.0375 82.734293 
L 258.20875 78.411754 
L 262.38 75.453727 
L 266.55125 73.561668 
L 270.7225 72.478835 
L 274.89375 71.993655 
L 279.065 71.938329 
L 283.23625 72.178564 
L 287.4075 72.612888 
L 295.75 73.798327 
L 308.26375 75.936836 
L 320.7775 78.319697 
L 333.29125 80.922857 
L 345.805 83.749062 
L 349.97625 96.607466 
L 354.1475 109.939241 
L 358.31875 103.174368 
L 362.49 104.982382 
L 375.00375 110.975331 
L 391.68875 118.686034 
L 408.37375 126.110803 
L 425.05875 133.267918 
L 441.74375 140.158451 
L 458.42875 146.777939 
L 475.11375 153.126455 
L 491.79875 159.19795 
L 504.3125 163.520176 
L 516.82625 167.646285 
L 533.51125 172.894526 
L 554.3675 179.267069 
L 558.53875 179.877986 
L 562.71 165.164892 
L 566.88125 140.836511 
L 571.0525 121.740713 
L 575.22375 107.611047 
L 579.395 96.896135 
L 583.56625 88.775967 
L 587.7375 82.750386 
L 591.90875 78.427898 
L 596.08 75.46949 
L 600.25125 73.577324 
L 604.4225 72.494947 
L 608.59375 72.008723 
L 612.765 71.953168 
L 616.93625 72.192805 
L 621.1075 72.628134 
L 629.45 73.815266 
L 641.96375 75.948068 
L 654.4775 78.332904 
L 666.99125 80.937413 
L 679.505 83.763821 
L 683.67625 96.624663 
L 687.8475 109.948216 
L 692.01875 103.18773 
L 696.19 104.996141 
L 708.70375 110.98869 
L 725.38875 118.698859 
L 742.07375 126.123098 
L 758.75875 133.279762 
L 775.44375 140.169812 
L 792.12875 146.788836 
L 808.81375 153.136908 
L 825.49875 159.207967 
L 838.0125 163.529867 
L 850.52625 167.65569 
L 867.21125 172.903563 
L 888.0675 179.275636 
L 892.23875 179.88471 
L 896.41 165.162293 
L 900.58125 140.83452 
L 904.7525 121.74065 
L 908.92375 107.612121 
L 913.095 96.897847 
L 917.26625 88.778139 
L 921.4375 82.753261 
L 925.60875 78.431245 
L 929.78 75.472215 
L 933.95125 73.578893 
L 938.1225 72.494603 
L 942.29375 72.007963 
L 946.465 71.946866 
L 950.63625 72.18621 
L 958.97875 73.189492 
L 967.32125 74.49454 
L 979.835 76.719427 
L 992.34875 79.179012 
L 1004.8625 81.858656 
L 1013.205 83.766972 
L 1017.37625 96.635934 
L 1021.5475 109.947524 
L 1025.71875 103.189392 
L 1029.89 104.999464 
L 1029.89 104.999464 
" clip-path="url(#p52bad97cc7)" style="fill: none; stroke: #9467bd; stroke-width: 1.5; stroke-linecap: square"/>
   </g>
   <g id="patch_9">
    <path d="M 429.23 318.04 
L 429.23 10.8 
" style="fill: none; stroke: #000000; stroke-width: 0.8; stroke-linejoin: miter; stroke-linecap: square"/>
   </g>
   <g id="patch_10">
    <path d="M 762.93 318.04 
L 762.93 10.8 
" style="fill: none; stroke: #000000; stroke-width: 0.8; stroke-linejoin: miter; stroke-linecap: square"/>
   </g>
   <g id="patch_11">
    <path d="M 429.23 318.04 
L 762.93 318.04 
" style="fill: none; stroke: #000000; stroke-width: 0.8; stroke-linejoin: miter; stroke-linecap: square"/>
   </g>
   <g id="patch_12">
    <path d="M 429.23 10.8 
L 762.93 10.8 
" style="fill: none; stroke: #000000; stroke-width: 0.8; stroke-linejoin: miter; stroke-linecap: square"/>
   </g>
   <g id="legend_2">
    <g id="patch_13">
     <path d="M 696.98625 92.190625 
L 755.93 92.190625 
Q 757.93 92.190625 757.93 90.190625 
L 757.93 17.8 
Q 757.93 15.8 755.93 15.8 
L 696.98625 15.8 
Q 694.98625 15.8 694.98625 17.8 
L 694.98625 90.190625 
Q 694.98625 92.190625 696.98625 92.190625 
z
" style="fill: #ffffff; opacity: 0.8; stroke: #cccccc; stroke-linejoin: miter"/>
    </g>
    <g id="line2d_82">
     <path d="M 698.98625 23.898438 
L 708.98625 23.898438 
L 718.98625 23.898438 
" style="fill: none; stroke: #1f77b4; stroke-width: 1.5; stroke-linecap: square"/>
    </g>
    <g id="text_43">
     <!-- LV -->
     <g transform="translate(726.98625 27.398438) scale(0.1 -0.1)">
      <use xlink:href="#DejaVuSans-4c"/>
      <use xlink:href="#DejaVuSans-56" x="44.712891"/>
     </g>
    </g>
    <g id="line2d_83">
     <path d="M 698.98625 38.576563 
L 708.98625 38.576563 
L 718.98625 38.576563 
" style="fill: none; stroke: #ff7f0e; stroke-width: 1.5; stroke-linecap: square"/>
    </g>
    <g id="text_44">
     <!-- LA -->
     <g transform="translate(726.98625 42.076563) scale(0.1 -0.1)">
      <use xlink:href="#DejaVuSans-4c"/>
      <use xlink:href="#DejaVuSans-41" x="57.962891"/>
     </g>
    </g>
    <g id="line2d_84">
     <path d="M 698.98625 53.254687 
L 708.98625 53.254687 
L 718.98625 53.254687 
" style="fill: none; stroke: #2ca02c; stroke-width: 1.5; stroke-linecap: square"/>
    </g>
    <g id="text_45">
     <!-- RV -->
     <g transform="translate(726.98625 56.754687) scale(0.1 -0.1)">
      <use xlink:href="#DejaVuSans-52"/>
      <use xlink:href="#DejaVuSans-56" x="63.982422"/>
     </g>
    </g>
    <g id="line2d_85">
     <path d="M 698.98625 67.932813 
L 708.98625 67.932813 
L 718.98625 67.932813 
" style="fill: none; stroke: #d62728; stroke-width: 1.5; stroke-linecap: square"/>
    </g>
    <g id="text_46">
     <!-- RA -->
     <g transform="translate(726.98625 71.432813) scale(0.1 -0.1)">
      <use xlink:href="#DejaVuSans-52"/>
      <use xlink:href="#DejaVuSans-41" x="65.482422"/>
     </g>
    </g>
    <g id="line2d_86">
     <path d="M 698.98625 82.610937 
L 708.98625 82.610937 
L 718.98625 82.610937 
" style="fill: none; stroke: #9467bd; stroke-width: 1.5; stroke-linecap: square"/>
    </g>
    <g id="text_47">
     <!-- Aorta -->
     <g transform="translate(726.98625 86.110937) scale(0.1 -0.1)">
      <defs>
       <path id="DejaVuSans-74" d="M 1172 4494 
L 1172 3500 
L 2356 3500 
L 2356 3053 
L 1172 3053 
L 1172 1153 
Q 1172 725 1289 603 
Q 1406 481 1766 481 
L 2356 481 
L 2356 0 
L 1766 0 
Q 1100 0 847 248 
Q 594 497 594 1153 
L 594 3053 
L 172 3053 
L 172 3500 
L 594 3500 
L 594 4494 
L 1172 4494 
z
" transform="scale(0.015625)"/>
       <path id="DejaVuSans-61" d="M 2194 1759 
Q 1497 1759 1228 1600 
Q 959 1441 959 1056 
Q 959 750 1161 570 
Q 1363 391 1709 391 
Q 2188 391 2477 730 
Q 2766 1069 2766 1631 
L 2766 1759 
L 2194 1759 
z
M 3341 1997 
L 3341 0 
L 2766 0 
L 2766 531 
Q 2569 213 2275 61 
Q 1981 -91 1556 -91 
Q 1019 -91 701 211 
Q 384 513 384 1019 
Q 384 1609 779 1909 
Q 1175 2209 1959 2209 
L 2766 2209 
L 2766 2266 
Q 2766 2663 2505 2880 
Q 2244 3097 1772 3097 
Q 1472 3097 1187 3025 
Q 903 2953 641 2809 
L 641 3341 
Q 956 3463 1253 3523 
Q 1550 3584 1831 3584 
Q 2591 3584 2966 3190 
Q 3341 2797 3341 1997 
z
" transform="scale(0.015625)"/>
      </defs>
      <use xlink:href="#DejaVuSans-41"/>
      <use xlink:href="#DejaVuSans-6f" x="66.658203"/>
      <use xlink:href="#DejaVuSans-72" x="127.839844"/>
      <use xlink:href="#DejaVuSans-74" x="168.953125"/>
      <use xlink:href="#DejaVuSans-61" x="208.162109"/>
     </g>
    </g>
   </g>
  </g>
  <g id="axes_3">
   <g id="patch_14">
    <path d="M 807.5 318.04 
L 1141.2 318.04 
L 1141.2 10.8 
L 807.5 10.8 
z
" style="fill: #ffffff"/>
   </g>
   <g id="matplotlib.axis_5">
    <g id="xtick_17">
     <g id="line2d_87">
      <path d="M 830.257841 318.04 
L 830.257841 10.8 
" clip-path="url(#p0cca3f5279)" style="fill: none; stroke: #b0b0b0; stroke-width: 0.8; stroke-linecap: square"/>
     </g>
     <g id="line2d_88">
      <g>
       <use xlink:href="#mf2bc4af843" x="830.257841" y="318.04" style="stroke: #000000; stroke-width: 0.8"/>
      </g>
     </g>
     <g id="text_48">
      <!-- 20 -->
      <g transform="translate(823.895341 332.638438) scale(0.1 -0.1)">
       <use xlink:href="#DejaVuSans-32"/>
       <use xlink:href="#DejaVuSans-30" x="63.623047"/>
      </g>
     </g>
    </g>
    <g id="xtick_18">
     <g id="line2d_89">
      <path d="M 877.000801 318.04 
L 877.000801 10.8 
" clip-path="url(#p0cca3f5279)" style="fill: none; stroke: #b0b0b0; stroke-width: 0.8; stroke-linecap: square"/>
     </g>
     <g id="line2d_90">
      <g>
       <use xlink:href="#mf2bc4af843" x="877.000801" y="318.04" style="stroke: #000000; stroke-width: 0.8"/>
      </g>
     </g>
     <g id="text_49">
      <!-- 30 -->
      <g transform="translate(870.638301 332.638438) scale(0.1 -0.1)">
       <use xlink:href="#DejaVuSans-33"/>
       <use xlink:href="#DejaVuSans-30" x="63.623047"/>
      </g>
     </g>
    </g>
    <g id="xtick_19">
     <g id="line2d_91">
      <path d="M 923.743761 318.04 
L 923.743761 10.8 
" clip-path="url(#p0cca3f5279)" style="fill: none; stroke: #b0b0b0; stroke-width: 0.8; stroke-linecap: square"/>
     </g>
     <g id="line2d_92">
      <g>
       <use xlink:href="#mf2bc4af843" x="923.743761" y="318.04" style="stroke: #000000; stroke-width: 0.8"/>
      </g>
     </g>
     <g id="text_50">
      <!-- 40 -->
      <g transform="translate(917.381261 332.638438) scale(0.1 -0.1)">
       <use xlink:href="#DejaVuSans-34"/>
       <use xlink:href="#DejaVuSans-30" x="63.623047"/>
      </g>
     </g>
    </g>
    <g id="xtick_20">
     <g id="line2d_93">
      <path d="M 970.486722 318.04 
L 970.486722 10.8 
" clip-path="url(#p0cca3f5279)" style="fill: none; stroke: #b0b0b0; stroke-width: 0.8; stroke-linecap: square"/>
     </g>
     <g id="line2d_94">
      <g>
       <use xlink:href="#mf2bc4af843" x="970.486722" y="318.04" style="stroke: #000000; stroke-width: 0.8"/>
      </g>
     </g>
     <g id="text_51">
      <!-- 50 -->
      <g transform="translate(964.124222 332.638438) scale(0.1 -0.1)">
       <use xlink:href="#DejaVuSans-35"/>
       <use xlink:href="#DejaVuSans-30" x="63.623047"/>
      </g>
     </g>
    </g>
    <g id="xtick_21">
     <g id="line2d_95">
      <path d="M 1017.229682 318.04 
L 1017.229682 10.8 
" clip-path="url(#p0cca3f5279)" style="fill: none; stroke: #b0b0b0; stroke-width: 0.8; stroke-linecap: square"/>
     </g>
     <g id="line2d_96">
      <g>
       <use xlink:href="#mf2bc4af843" x="1017.229682" y="318.04" style="stroke: #000000; stroke-width: 0.8"/>
      </g>
     </g>
     <g id="text_52">
      <!-- 60 -->
      <g transform="translate(1010.867182 332.638438) scale(0.1 -0.1)">
       <use xlink:href="#DejaVuSans-36"/>
       <use xlink:href="#DejaVuSans-30" x="63.623047"/>
      </g>
     </g>
    </g>
    <g id="xtick_22">
     <g id="line2d_97">
      <path d="M 1063.972642 318.04 
L 1063.972642 10.8 
" clip-path="url(#p0cca3f5279)" style="fill: none; stroke: #b0b0b0; stroke-width: 0.8; stroke-linecap: square"/>
     </g>
     <g id="line2d_98">
      <g>
       <use xlink:href="#mf2bc4af843" x="1063.972642" y="318.04" style="stroke: #000000; stroke-width: 0.8"/>
      </g>
     </g>
     <g id="text_53">
      <!-- 70 -->
      <g transform="translate(1057.610142 332.638438) scale(0.1 -0.1)">
       <use xlink:href="#DejaVuSans-37"/>
       <use xlink:href="#DejaVuSans-30" x="63.623047"/>
      </g>
     </g>
    </g>
    <g id="xtick_23">
     <g id="line2d_99">
      <path d="M 1110.715603 318.04 
L 1110.715603 10.8 
" clip-path="url(#p0cca3f5279)" style="fill: none; stroke: #b0b0b0; stroke-width: 0.8; stroke-linecap: square"/>
     </g>
     <g id="line2d_100">
      <g>
       <use xlink:href="#mf2bc4af843" x="1110.715603" y="318.04" style="stroke: #000000; stroke-width: 0.8"/>
      </g>
     </g>
     <g id="text_54">
      <!-- 80 -->
      <g transform="translate(1104.353103 332.638438) scale(0.1 -0.1)">
       <use xlink:href="#DejaVuSans-38"/>
       <use xlink:href="#DejaVuSans-30" x="63.623047"/>
      </g>
     </g>
    </g>
    <g id="text_55">
     <!-- Volume(ml) -->
     <g transform="translate(945.592188 346.316563) scale(0.1 -0.1)">
      <use xlink:href="#DejaVuSans-56"/>
      <use xlink:href="#DejaVuSans-6f" x="60.658203"/>
      <use xlink:href="#DejaVuSans-6c" x="121.839844"/>
      <use xlink:href="#DejaVuSans-75" x="149.623047"/>
      <use xlink:href="#DejaVuSans-6d" x="213.001953"/>
      <use xlink:href="#DejaVuSans-65" x="310.414062"/>
      <use xlink:href="#DejaVuSans-28" x="371.9375"/>
      <use xlink:href="#DejaVuSans-6d" x="410.951172"/>
      <use xlink:href="#DejaVuSans-6c" x="508.363281"/>
      <use xlink:href="#DejaVuSans-29" x="536.146484"/>
     </g>
    </g>
   </g>
   <g id="matplotlib.axis_6">
    <g id="ytick_19">
     <g id="line2d_101">
      <path d="M 807.5 306.006715 
L 1141.2 306.006715 
" clip-path="url(#p0cca3f5279)" style="fill: none; stroke: #b0b0b0; stroke-width: 0.8; stroke-linecap: square"/>
     </g>
     <g id="line2d_102">
      <g>
       <use xlink:href="#mea03ef2f8e" x="807.5" y="306.006715" style="stroke: #000000; stroke-width: 0.8"/>
      </g>
     </g>
     <g id="text_56">
      <!-- 0 -->
      <g transform="translate(794.1375 309.805934) scale(0.1 -0.1)">
       <use xlink:href="#DejaVuSans-30"/>
      </g>
     </g>
    </g>
    <g id="ytick_20">
     <g id="line2d_103">
      <path d="M 807.5 263.474128 
L 1141.2 263.474128 
" clip-path="url(#p0cca3f5279)" style="fill: none; stroke: #b0b0b0; stroke-width: 0.8; stroke-linecap: square"/>
     </g>
     <g id="line2d_104">
      <g>
       <use xlink:href="#mea03ef2f8e" x="807.5" y="263.474128" style="stroke: #000000; stroke-width: 0.8"/>
      </g>
     </g>
     <g id="text_57">
      <!-- 10 -->
      <g transform="translate(787.775 267.273347) scale(0.1 -0.1)">
       <use xlink:href="#DejaVuSans-31"/>
       <use xlink:href="#DejaVuSans-30" x="63.623047"/>
      </g>
     </g>
    </g>
    <g id="ytick_21">
     <g id="line2d_105">
      <path d="M 807.5 220.941541 
L 1141.2 220.941541 
" clip-path="url(#p0cca3f5279)" style="fill: none; stroke: #b0b0b0; stroke-width: 0.8; stroke-linecap: square"/>
     </g>
     <g id="line2d_106">
      <g>
       <use xlink:href="#mea03ef2f8e" x="807.5" y="220.941541" style="stroke: #000000; stroke-width: 0.8"/>
      </g>
     </g>
     <g id="text_58">
      <!-- 20 -->
      <g transform="translate(787.775 224.740759) scale(0.1 -0.1)">
       <use xlink:href="#DejaVuSans-32"/>
       <use xlink:href="#DejaVuSans-30" x="63.623047"/>
      </g>
     </g>
    </g>
    <g id="ytick_22">
     <g id="line2d_107">
      <path d="M 807.5 178.408954 
L 1141.2 178.408954 
" clip-path="url(#p0cca3f5279)" style="fill: none; stroke: #b0b0b0; stroke-width: 0.8; stroke-linecap: square"/>
     </g>
     <g id="line2d_108">
      <g>
       <use xlink:href="#mea03ef2f8e" x="807.5" y="178.408954" style="stroke: #000000; stroke-width: 0.8"/>
      </g>
     </g>
     <g id="text_59">
      <!-- 30 -->
      <g transform="translate(787.775 182.208172) scale(0.1 -0.1)">
       <use xlink:href="#DejaVuSans-33"/>
       <use xlink:href="#DejaVuSans-30" x="63.623047"/>
      </g>
     </g>
    </g>
    <g id="ytick_23">
     <g id="line2d_109">
      <path d="M 807.5 135.876366 
L 1141.2 135.876366 
" clip-path="url(#p0cca3f5279)" style="fill: none; stroke: #b0b0b0; stroke-width: 0.8; stroke-linecap: square"/>
     </g>
     <g id="line2d_110">
      <g>
       <use xlink:href="#mea03ef2f8e" x="807.5" y="135.876366" style="stroke: #000000; stroke-width: 0.8"/>
      </g>
     </g>
     <g id="text_60">
      <!-- 40 -->
      <g transform="translate(787.775 139.675585) scale(0.1 -0.1)">
       <use xlink:href="#DejaVuSans-34"/>
       <use xlink:href="#DejaVuSans-30" x="63.623047"/>
      </g>
     </g>
    </g>
    <g id="ytick_24">
     <g id="line2d_111">
      <path d="M 807.5 93.343779 
L 1141.2 93.343779 
" clip-path="url(#p0cca3f5279)" style="fill: none; stroke: #b0b0b0; stroke-width: 0.8; stroke-linecap: square"/>
     </g>
     <g id="line2d_112">
      <g>
       <use xlink:href="#mea03ef2f8e" x="807.5" y="93.343779" style="stroke: #000000; stroke-width: 0.8"/>
      </g>
     </g>
     <g id="text_61">
      <!-- 50 -->
      <g transform="translate(787.775 97.142998) scale(0.1 -0.1)">
       <use xlink:href="#DejaVuSans-35"/>
       <use xlink:href="#DejaVuSans-30" x="63.623047"/>
      </g>
     </g>
    </g>
    <g id="ytick_25">
     <g id="line2d_113">
      <path d="M 807.5 50.811192 
L 1141.2 50.811192 
" clip-path="url(#p0cca3f5279)" style="fill: none; stroke: #b0b0b0; stroke-width: 0.8; stroke-linecap: square"/>
     </g>
     <g id="line2d_114">
      <g>
       <use xlink:href="#mea03ef2f8e" x="807.5" y="50.811192" style="stroke: #000000; stroke-width: 0.8"/>
      </g>
     </g>
     <g id="text_62">
      <!-- 60 -->
      <g transform="translate(787.775 54.610411) scale(0.1 -0.1)">
       <use xlink:href="#DejaVuSans-36"/>
       <use xlink:href="#DejaVuSans-30" x="63.623047"/>
      </g>
     </g>
    </g>
    <g id="text_63">
     <!-- Pressure(mmHg) -->
     <g transform="translate(781.695313 206.341094) rotate(-90) scale(0.1 -0.1)">
      <use xlink:href="#DejaVuSans-50"/>
      <use xlink:href="#DejaVuSans-72" x="58.552734"/>
      <use xlink:href="#DejaVuSans-65" x="97.416016"/>
      <use xlink:href="#DejaVuSans-73" x="158.939453"/>
      <use xlink:href="#DejaVuSans-73" x="211.039062"/>
      <use xlink:href="#DejaVuSans-75" x="263.138672"/>
      <use xlink:href="#DejaVuSans-72" x="326.517578"/>
      <use xlink:href="#DejaVuSans-65" x="365.380859"/>
      <use xlink:href="#DejaVuSans-28" x="426.904297"/>
      <use xlink:href="#DejaVuSans-6d" x="465.917969"/>
      <use xlink:href="#DejaVuSans-6d" x="563.330078"/>
      <use xlink:href="#DejaVuSans-48" x="660.742188"/>
      <use xlink:href="#DejaVuSans-67" x="735.9375"/>
      <use xlink:href="#DejaVuSans-29" x="799.414062"/>
     </g>
    </g>
   </g>
   <g id="line2d_115">
    <path d="M 1097.079781 283.180287 
L 1103.0613 282.745145 
L 1108.055469 282.381777 
L 1112.157384 282.083297 
L 1115.480496 281.841469 
L 1118.137404 281.64811 
L 1120.230593 281.49577 
L 1121.850461 281.377874 
L 1123.077731 281.28855 
L 1123.986154 281.222431 
L 1124.641461 281.174735 
L 1125.10247 281.14118 
L 1125.419522 281.118103 
L 1125.634007 281.102492 
L 1125.776627 281.092111 
L 1125.870285 281.085294 
L 1125.931226 281.080859 
L 1125.970628 281.077991 
L 1125.995974 281.076146 
L 1126.012214 281.074964 
L 1126.022595 281.074209 
L 1126.028984 265.506143 
L 1126.031393 243.176523 
L 1126.031675 218.205445 
L 1126.031772 192.008303 
L 1126.031818 165.37978 
L 1126.016315 138.82837 
L 1124.747936 113.385328 
L 1119.436281 91.332328 
L 1110.562733 73.3386 
L 1099.594432 59.053951 
L 1087.541742 48.023901 
L 1075.07211 39.783027 
L 1062.651174 33.860646 
L 1050.604626 29.802357 
L 1039.149255 27.193768 
L 1028.417411 25.674116 
L 1018.47516 24.944055 
L 1009.339082 24.765455 
L 1000.987907 24.959947 
L 993.378806 25.395944 
L 986.454092 25.983185 
L 980.147966 26.66481 
L 974.393336 27.407288 
L 969.124988 28.194126 
L 964.288142 29.010703 
L 959.821925 29.866792 
L 955.686671 30.75259 
L 951.842383 31.669222 
L 948.254622 32.618093 
L 944.893972 33.600161 
L 941.73522 34.615936 
L 938.756714 35.665458 
L 935.939877 36.748209 
L 933.26871 37.863212 
L 930.729305 39.009263 
L 928.924561 90.524634 
L 930.264053 159.757886 
L 931.093548 215.17424 
L 931.100392 251.390967 
L 931.100489 272.039559 
L 931.100548 283.103379 
L 931.109168 288.883577 
L 931.436286 291.857576 
L 933.067935 293.291897 
L 936.944432 293.822534 
L 943.425201 293.78602 
L 952.336852 293.377499 
L 963.193711 292.723869 
L 975.409443 291.914509 
L 988.4227 291.014873 
L 1001.755387 290.0732 
L 1015.038484 289.12395 
L 1027.975693 288.193117 
L 1040.360137 287.29839 
L 1052.046564 286.451927 
L 1062.935367 285.661949 
L 1072.943039 284.935128 
L 1082.002634 284.276706 
L 1090.062612 283.690664 
" clip-path="url(#p0cca3f5279)" style="fill: none; stroke: #1f77b4; stroke-width: 1.5; stroke-linecap: square"/>
   </g>
   <g id="line2d_116">
    <path d="M 1043.311608 284.713248 
L 1043.315506 284.712964 
L 1043.319502 284.712673 
L 1043.323279 284.712398 
L 1043.326699 284.712149 
L 1043.329733 284.711928 
L 1043.332404 284.711734 
L 1043.334732 284.711564 
L 1042.967065 284.738328 
L 1026.845977 284.699617 
L 1007.653502 284.702052 
L 990.937076 284.699132 
L 977.057114 284.699966 
L 965.714884 284.700679 
L 956.435583 284.701242 
L 948.791857 284.701672 
L 942.438649 284.701999 
L 937.107521 284.702247 
L 932.59194 284.702433 
L 928.732946 284.702573 
L 925.40768 284.702663 
L 922.519975 284.702744 
L 926.405813 284.720648 
L 957.30912 284.72628 
L 989.237256 284.725167 
L 1013.091147 284.720567 
L 1027.393778 284.716298 
L 1035.056155 284.713723 
L 1038.998499 284.712318 
L 1041.022098 284.711498 
L 1042.077507 284.710891 
L 1042.641888 284.710313 
L 1042.953045 284.709693 
L 1043.130755 284.709021 
L 1043.236438 284.708309 
L 1043.302256 284.707576 
L 1043.345442 284.706839 
L 1043.375437 284.706109 
L 1043.397438 284.705401 
L 1043.414394 284.704725 
L 1043.428042 284.704086 
L 1043.439015 284.703514 
L 1043.449037 284.702933 
L 1043.457157 284.70244 
L 1043.464129 284.701998 
L 1043.469977 284.701617 
L 1043.474794 284.701296 
L 1043.478621 284.701039 
L 1043.48156 284.700839 
L 1043.483753 284.70069 
L 1043.485361 284.70058 
L 1043.486529 284.7005 
L 1043.487373 284.700442 
L 1043.487983 284.700401 
L 1043.488421 284.700371 
L 1043.488738 284.700349 
L 1043.488963 284.700334 
L 1043.489117 284.700324 
L 1043.489214 284.700317 
L 1043.48927 284.700313 
L 1043.489298 284.700312 
L 1043.489309 284.700311 
L 1043.488904 284.700341 
L 1043.482699 284.700793 
L 1043.466362 284.701982 
L 1043.442758 284.7037 
L 1043.416679 284.705599 
L 1043.391781 284.707411 
L 1043.370041 284.708994 
L 1043.352111 284.710299 
L 1043.337897 284.711334 
L 1043.326941 284.712131 
L 1043.318706 284.712731 
L 1043.312702 284.713168 
L 1043.308546 284.713471 
L 1043.305957 284.713659 
L 1043.30475 284.713747 
L 1043.304769 284.713746 
L 1043.305932 284.713661 
L 1043.308283 284.71349 
" clip-path="url(#p0cca3f5279)" style="fill: none; stroke: #ff7f0e; stroke-width: 1.5; stroke-linecap: square"/>
   </g>
   <g id="line2d_117">
    <path d="M 959.271589 299.609614 
L 962.01501 299.509792 
L 964.268344 299.427796 
L 966.105947 299.360925 
L 967.58991 299.306921 
L 968.774827 299.263799 
L 969.709281 299.229791 
L 970.436904 299.20331 
L 970.996807 299.182933 
L 971.42435 299.167372 
L 971.752623 299.155425 
L 972.01157 299.146 
L 972.229296 299.138076 
L 972.45662 299.129802 
L 972.793814 299.11753 
L 973.440576 299.09399 
L 974.682147 299.0488 
L 976.825457 298.97079 
L 980.124669 298.850709 
L 984.71517 298.683628 
L 990.58242 298.470078 
L 997.472919 296.354292 
L 1004.519799 293.273252 
L 1010.334802 289.766887 
L 1014.230751 286.10376 
L 1016.597581 282.424381 
L 1017.423664 278.86239 
L 1017.433857 275.434872 
L 1016.662797 272.201149 
L 1014.248065 269.349428 
L 1009.461142 267.08188 
L 1002.083531 265.533781 
L 992.396131 264.741513 
L 980.959943 264.658819 
L 968.386133 265.194172 
L 955.204262 266.242381 
L 941.828576 267.700773 
L 928.570617 269.474817 
L 915.664979 271.478515 
L 903.287256 273.634579 
L 891.57862 275.871173 
L 880.652745 278.122004 
L 870.602121 280.32598 
L 861.506086 282.425841 
L 853.431805 284.368466 
L 846.451283 286.099979 
L 840.590483 287.582017 
L 835.87723 288.777411 
L 832.232439 289.686438 
L 829.500872 290.339274 
L 827.493637 290.782988 
L 826.034482 291.065641 
L 824.979218 291.228514 
L 824.218123 291.304011 
L 823.670464 291.31652 
L 823.277007 291.284294 
L 822.996504 293.900235 
L 822.80651 297.615459 
L 822.688372 300.503829 
L 822.668182 302.349513 
L 823.022319 303.376496 
L 824.245834 303.880627 
L 826.786282 304.073092 
L 830.894121 304.074545 
L 836.604947 303.949928 
L 843.779989 303.736755 
L 852.165595 303.460267 
L 861.450468 303.139993 
L 871.310087 302.792182 
L 881.437997 302.430528 
L 891.559895 302.066537 
L 901.441548 301.709676 
L 910.892493 301.367467 
L 919.75137 301.046158 
L 927.890904 300.750618 
L 935.211927 300.484608 
L 941.662768 300.250104 
L 947.235251 300.047464 
L 951.968989 299.875286 
L 955.948564 299.730515 
" clip-path="url(#p0cca3f5279)" style="fill: none; stroke: #2ca02c; stroke-width: 1.5; stroke-linecap: square"/>
   </g>
   <g id="line2d_118">
    <path d="M 860.429025 302.016359 
L 860.008433 302.031667 
L 860.053937 302.030011 
L 860.491237 302.014094 
L 861.258333 301.986174 
L 862.300746 301.948234 
L 863.570025 301.902036 
L 865.022695 301.849163 
L 866.61978 301.791034 
L 868.322776 301.098257 
L 870.09285 300.184793 
L 871.89914 299.24024 
L 873.713768 298.321673 
L 875.486997 297.45393 
L 877.119468 296.651711 
L 878.412702 295.932415 
L 879.082914 295.320457 
L 878.824942 294.844395 
L 877.386713 294.530494 
L 874.635174 294.395376 
L 870.587298 294.441152 
L 865.498896 294.644857 
L 860.239387 295.546669 
L 856.218774 298.271607 
L 854.12702 300.167127 
L 853.563328 301.216302 
L 854.530631 301.701302 
L 856.218288 301.897433 
L 858.012301 301.961139 
L 859.867483 301.95944 
L 861.807299 301.92325 
L 863.846466 301.867503 
L 865.9913 301.799617 
L 868.242347 301.723437 
L 870.596119 301.641094 
L 873.046373 301.55388 
L 875.58518 301.462663 
L 878.203704 301.368087 
L 880.89279 301.27067 
L 883.643415 301.170847 
L 886.446965 301.068995 
L 889.29547 300.965441 
L 892.181743 300.860472 
L 895.099273 300.754338 
L 898.042255 300.64726 
L 901.005855 300.53942 
L 903.985393 300.430991 
L 906.977285 300.322108 
L 909.978154 300.212894 
L 912.985068 300.103458 
L 915.995465 299.993894 
L 919.007089 299.884283 
L 922.017951 299.774699 
L 925.026293 299.665206 
L 928.030551 299.555862 
L 931.029333 299.446716 
L 934.020149 299.33786 
L 936.980779 299.230102 
L 939.894301 299.124059 
L 942.728154 299.020916 
L 945.192113 298.931236 
L 946.776748 298.87356 
L 947.023102 298.864593 
L 945.675097 298.913657 
L 942.69662 299.022065 
L 938.227292 299.184735 
L 932.521641 299.392404 
L 925.891705 299.633713 
L 918.66259 299.896831 
L 911.141196 300.170588 
L 903.602139 300.444987 
L 896.279857 300.711496 
L 889.364907 300.963179 
L 883.018685 301.194163 
L 877.368424 301.399815 
L 872.513196 301.576531 
L 868.50456 301.722433 
L 865.350561 301.837229 
L 863.011453 301.922366 
L 861.402559 301.980925 
" clip-path="url(#p0cca3f5279)" style="fill: none; stroke: #d62728; stroke-width: 1.5; stroke-linecap: square"/>
   </g>
   <g id="patch_15">
    <path d="M 807.5 318.04 
L 807.5 10.8 
" style="fill: none; stroke: #000000; stroke-width: 0.8; stroke-linejoin: miter; stroke-linecap: square"/>
   </g>
   <g id="patch_16">
    <path d="M 1141.2 318.04 
L 1141.2 10.8 
" style="fill: none; stroke: #000000; stroke-width: 0.8; stroke-linejoin: miter; stroke-linecap: square"/>
   </g>
   <g id="patch_17">
    <path d="M 807.5 318.04 
L 1141.2 318.04 
" style="fill: none; stroke: #000000; stroke-width: 0.8; stroke-linejoin: miter; stroke-linecap: square"/>
   </g>
   <g id="patch_18">
    <path d="M 807.5 10.8 
L 1141.2 10.8 
" style="fill: none; stroke: #000000; stroke-width: 0.8; stroke-linejoin: miter; stroke-linecap: square"/>
   </g>
   <g id="legend_3">
    <g id="patch_19">
     <path d="M 814.5 77.5125 
L 859.889063 77.5125 
Q 861.889063 77.5125 861.889063 75.5125 
L 861.889063 17.8 
Q 861.889063 15.8 859.889063 15.8 
L 814.5 15.8 
Q 812.5 15.8 812.5 17.8 
L 812.5 75.5125 
Q 812.5 77.5125 814.5 77.5125 
z
" style="fill: #ffffff; opacity: 0.8; stroke: #cccccc; stroke-linejoin: miter"/>
    </g>
    <g id="line2d_119">
     <path d="M 816.5 23.898438 
L 826.5 23.898438 
L 836.5 23.898438 
" style="fill: none; stroke: #1f77b4; stroke-width: 1.5; stroke-linecap: square"/>
    </g>
    <g id="text_64">
     <!-- LV -->
     <g transform="translate(844.5 27.398438) scale(0.1 -0.1)">
      <use xlink:href="#DejaVuSans-4c"/>
      <use xlink:href="#DejaVuSans-56" x="44.712891"/>
     </g>
    </g>
    <g id="line2d_120">
     <path d="M 816.5 38.576563 
L 826.5 38.576563 
L 836.5 38.576563 
" style="fill: none; stroke: #ff7f0e; stroke-width: 1.5; stroke-linecap: square"/>
    </g>
    <g id="text_65">
     <!-- LA -->
     <g transform="translate(844.5 42.076563) scale(0.1 -0.1)">
      <use xlink:href="#DejaVuSans-4c"/>
      <use xlink:href="#DejaVuSans-41" x="57.962891"/>
     </g>
    </g>
    <g id="line2d_121">
     <path d="M 816.5 53.254687 
L 826.5 53.254687 
L 836.5 53.254687 
" style="fill: none; stroke: #2ca02c; stroke-width: 1.5; stroke-linecap: square"/>
    </g>
    <g id="text_66">
     <!-- RV -->
     <g transform="translate(844.5 56.754687) scale(0.1 -0.1)">
      <use xlink:href="#DejaVuSans-52"/>
      <use xlink:href="#DejaVuSans-56" x="63.982422"/>
     </g>
    </g>
    <g id="line2d_122">
     <path d="M 816.5 67.932813 
L 826.5 67.932813 
L 836.5 67.932813 
" style="fill: none; stroke: #d62728; stroke-width: 1.5; stroke-linecap: square"/>
    </g>
    <g id="text_67">
     <!-- RA -->
     <g transform="translate(844.5 71.432813) scale(0.1 -0.1)">
      <use xlink:href="#DejaVuSans-52"/>
      <use xlink:href="#DejaVuSans-41" x="65.482422"/>
     </g>
    </g>
   </g>
  </g>
 </g>
 <defs>
  <clipPath id="p98842b54a5">
   <rect x="50.96" y="10.8" width="333.7" height="307.24"/>
  </clipPath>
  <clipPath id="p52bad97cc7">
   <rect x="429.23" y="10.8" width="333.7" height="307.24"/>
  </clipPath>
  <clipPath id="p0cca3f5279">
   <rect x="807.5" y="10.8" width="333.7" height="307.24"/>
  </clipPath>
 </defs>
</svg>
